<svg xmlns="http://www.w3.org/2000/svg" xmlns:xlink="http://www.w3.org/1999/xlink" width="1200" zoomAndPan="magnify" viewBox="0 0 900 307.91998" height="400" preserveAspectRatio="xMidYMid meet" version="1.0"><defs><g/><clipPath id="9e9a208d3e"><path d="M 15.636719 95.949219 L 895.691406 95.949219 L 895.691406 222.804688 L 15.636719 222.804688 Z M 15.636719 95.949219 " clip-rule="nonzero"/></clipPath><clipPath id="5094785065"><path d="M 32.507812 95.949219 L 878.511719 95.949219 C 882.988281 95.949219 887.277344 97.726562 890.441406 100.890625 C 893.605469 104.054688 895.382812 108.347656 895.382812 112.820312 L 895.382812 205.933594 C 895.382812 210.410156 893.605469 214.699219 890.441406 217.863281 C 887.277344 221.027344 882.988281 222.804688 878.511719 222.804688 L 32.507812 222.804688 C 28.03125 222.804688 23.742188 221.027344 20.578125 217.863281 C 17.414062 214.699219 15.636719 210.410156 15.636719 205.933594 L 15.636719 112.820312 C 15.636719 108.347656 17.414062 104.054688 20.578125 100.890625 C 23.742188 97.726562 28.03125 95.949219 32.507812 95.949219 Z M 32.507812 95.949219 " clip-rule="nonzero"/></clipPath><clipPath id="e907a688c7"><path d="M 0.636719 0.949219 L 880.5625 0.949219 L 880.5625 127.804688 L 0.636719 127.804688 Z M 0.636719 0.949219 " clip-rule="nonzero"/></clipPath><clipPath id="5bea7e0612"><path d="M 17.507812 0.949219 L 863.511719 0.949219 C 867.988281 0.949219 872.277344 2.726562 875.441406 5.890625 C 878.605469 9.054688 880.382812 13.347656 880.382812 17.820312 L 880.382812 110.933594 C 880.382812 115.410156 878.605469 119.699219 875.441406 122.863281 C 872.277344 126.027344 867.988281 127.804688 863.511719 127.804688 L 17.507812 127.804688 C 13.03125 127.804688 8.742188 126.027344 5.578125 122.863281 C 2.414062 119.699219 0.636719 115.410156 0.636719 110.933594 L 0.636719 17.820312 C 0.636719 13.347656 2.414062 9.054688 5.578125 5.890625 C 8.742188 2.726562 13.03125 0.949219 17.507812 0.949219 Z M 17.507812 0.949219 " clip-rule="nonzero"/></clipPath><clipPath id="027c7a44cf"><rect x="0" width="881" y="0" height="128"/></clipPath><clipPath id="fb822c6f75"><path d="M 15.664062 95.949219 L 895.15625 95.949219 L 895.15625 222.667969 L 15.664062 222.667969 Z M 15.664062 95.949219 " clip-rule="nonzero"/></clipPath><clipPath id="1793002a5e"><path d="M 32.535156 95.949219 L 878.480469 95.949219 C 882.957031 95.949219 887.246094 97.726562 890.410156 100.890625 C 893.574219 104.054688 895.351562 108.34375 895.351562 112.820312 L 895.351562 205.925781 C 895.351562 210.402344 893.574219 214.691406 890.410156 217.855469 C 887.246094 221.019531 882.957031 222.796875 878.480469 222.796875 L 32.535156 222.796875 C 28.058594 222.796875 23.769531 221.019531 20.605469 217.855469 C 17.441406 214.691406 15.664062 210.402344 15.664062 205.925781 L 15.664062 112.820312 C 15.664062 108.34375 17.441406 104.054688 20.605469 100.890625 C 23.769531 97.726562 28.058594 95.949219 32.535156 95.949219 Z M 32.535156 95.949219 " clip-rule="nonzero"/></clipPath><clipPath id="bae4a7ecad"><path d="M 3.355469 83.808594 L 883.414062 83.808594 L 883.414062 210.664062 L 3.355469 210.664062 Z M 3.355469 83.808594 " clip-rule="nonzero"/></clipPath><clipPath id="0eecbe54ab"><path d="M 20.226562 83.808594 L 866.234375 83.808594 C 870.710938 83.808594 875 85.585938 878.164062 88.75 C 881.328125 91.914062 883.105469 96.203125 883.105469 100.679688 L 883.105469 193.792969 C 883.105469 198.265625 881.328125 202.558594 878.164062 205.722656 C 875 208.886719 870.710938 210.664062 866.234375 210.664062 L 20.226562 210.664062 C 15.753906 210.664062 11.460938 208.886719 8.296875 205.722656 C 5.132812 202.558594 3.355469 198.265625 3.355469 193.792969 L 3.355469 100.679688 C 3.355469 96.203125 5.132812 91.914062 8.296875 88.75 C 11.460938 85.585938 15.753906 83.808594 20.226562 83.808594 Z M 20.226562 83.808594 " clip-rule="nonzero"/></clipPath><clipPath id="e369481594"><path d="M 0.355469 0.808594 L 880 0.808594 L 880 127.664062 L 0.355469 127.664062 Z M 0.355469 0.808594 " clip-rule="nonzero"/></clipPath><clipPath id="566317dce2"><path d="M 17.226562 0.808594 L 863.234375 0.808594 C 867.710938 0.808594 872 2.585938 875.164062 5.75 C 878.328125 8.914062 880.105469 13.203125 880.105469 17.679688 L 880.105469 110.792969 C 880.105469 115.265625 878.328125 119.558594 875.164062 122.722656 C 872 125.886719 867.710938 127.664062 863.234375 127.664062 L 17.226562 127.664062 C 12.753906 127.664062 8.460938 125.886719 5.296875 122.722656 C 2.132812 119.558594 0.355469 115.265625 0.355469 110.792969 L 0.355469 17.679688 C 0.355469 13.203125 2.132812 8.914062 5.296875 5.75 C 8.460938 2.585938 12.753906 0.808594 17.226562 0.808594 Z M 17.226562 0.808594 " clip-rule="nonzero"/></clipPath><clipPath id="9f4cae4aa1"><rect x="0" width="881" y="0" height="128"/></clipPath><clipPath id="176cc392f1"><path d="M 3.386719 83.808594 L 882.878906 83.808594 L 882.878906 210.523438 L 3.386719 210.523438 Z M 3.386719 83.808594 " clip-rule="nonzero"/></clipPath><clipPath id="bb991b31da"><path d="M 20.253906 83.808594 L 866.203125 83.808594 C 870.675781 83.808594 874.96875 85.585938 878.132812 88.75 C 881.292969 91.914062 883.070312 96.203125 883.070312 100.675781 L 883.070312 193.785156 C 883.070312 198.257812 881.292969 202.550781 878.132812 205.714844 C 874.96875 208.875 870.675781 210.652344 866.203125 210.652344 L 20.253906 210.652344 C 15.78125 210.652344 11.492188 208.875 8.328125 205.714844 C 5.164062 202.550781 3.386719 198.257812 3.386719 193.785156 L 3.386719 100.675781 C 3.386719 96.203125 5.164062 91.914062 8.328125 88.75 C 11.492188 85.585938 15.78125 83.808594 20.253906 83.808594 Z M 20.253906 83.808594 " clip-rule="nonzero"/></clipPath><clipPath id="fafc3aa9ec"><path d="M 0.0703125 9 L 72 9 L 72 95 L 0.0703125 95 Z M 0.0703125 9 " clip-rule="nonzero"/></clipPath><clipPath id="1fea8a931c"><rect x="0" width="555" y="0" height="121"/></clipPath></defs><g clip-path="url(#9e9a208d3e)"><g clip-path="url(#5094785065)"><g transform="matrix(1, 0, 0, 1, 15, 95)"><g clip-path="url(#027c7a44cf)"><g clip-path="url(#e907a688c7)"><g clip-path="url(#5bea7e0612)"><path fill="#ffffff" d="M 0.636719 0.949219 L 880.195312 0.949219 L 880.195312 127.804688 L 0.636719 127.804688 Z M 0.636719 0.949219 " fill-opacity="1" fill-rule="nonzero"/></g></g></g></g></g></g><g clip-path="url(#fb822c6f75)"><g clip-path="url(#1793002a5e)"><path stroke-linecap="butt" transform="matrix(0.749805, 0, 0, 0.749805, 15.664607, 95.950216)" fill="none" stroke-linejoin="miter" d="M 22.499913 -0.00133049 L 1150.720161 -0.00133049 C 1156.690462 -0.00133049 1162.410698 2.369077 1166.630545 6.588924 C 1170.850391 10.80877 1173.220799 16.529007 1173.220799 22.499308 L 1173.220799 146.672199 C 1173.220799 152.6425 1170.850391 158.362737 1166.630545 162.582583 C 1162.410698 166.80243 1156.690462 169.172837 1150.720161 169.172837 L 22.499913 169.172837 C 16.529611 169.172837 10.809375 166.80243 6.589529 162.582583 C 2.369682 158.362737 -0.000725586 152.6425 -0.000725586 146.672199 L -0.000725586 22.499308 C -0.000725586 16.529007 2.369682 10.80877 6.589529 6.588924 C 10.809375 2.369077 16.529611 -0.00133049 22.499913 -0.00133049 Z M 22.499913 -0.00133049 " stroke="#000000" stroke-width="8" stroke-opacity="1" stroke-miterlimit="4"/></g></g><g clip-path="url(#bae4a7ecad)"><g clip-path="url(#0eecbe54ab)"><g transform="matrix(1, 0, 0, 1, 3, 83)"><g clip-path="url(#9f4cae4aa1)"><g clip-path="url(#e369481594)"><g clip-path="url(#566317dce2)"><path fill="#f794c6" d="M 0.355469 0.808594 L 879.917969 0.808594 L 879.917969 127.664062 L 0.355469 127.664062 Z M 0.355469 0.808594 " fill-opacity="1" fill-rule="nonzero"/></g></g></g></g></g></g><g clip-path="url(#176cc392f1)"><g clip-path="url(#bb991b31da)"><path stroke-linecap="butt" transform="matrix(0.749805, 0, 0, 0.749805, 3.386, 83.807944)" fill="none" stroke-linejoin="miter" d="M 22.496387 0.000866146 L 1150.721845 0.000866146 C 1156.686937 0.000866146 1162.412383 2.371274 1166.632229 6.59112 C 1170.846866 10.810967 1173.217274 16.531203 1173.217274 22.496295 L 1173.217274 146.674395 C 1173.217274 152.639487 1170.846866 158.364933 1166.632229 162.58478 C 1162.412383 166.799417 1156.686937 169.169824 1150.721845 169.169824 L 22.496387 169.169824 C 16.531296 169.169824 10.811059 166.799417 6.591213 162.58478 C 2.371366 158.364933 0.000958659 152.639487 0.000958659 146.674395 L 0.000958659 22.496295 C 0.000958659 16.531203 2.371366 10.810967 6.591213 6.59112 C 10.811059 2.371274 16.531296 0.000866146 22.496387 0.000866146 Z M 22.496387 0.000866146 " stroke="#000000" stroke-width="8" stroke-opacity="1" stroke-miterlimit="4"/></g></g><g transform="matrix(1, 0, 0, 1, 174, 91)"><g clip-path="url(#1fea8a931c)"><g fill="#ff5991" fill-opacity="1"><g transform="translate(5.695277, 100.042085)"><g><path d="M 4.5625 0 C 3.28125 0 2.195312 -0.554688 1.3125 -1.671875 C 0.4375 -2.796875 0 -3.84375 0 -4.8125 L 0.234375 -80.140625 C 0.234375 -83.503906 2 -85.1875 5.53125 -85.1875 L 24.265625 -85.078125 C 32.117188 -84.992188 39.007812 -84.453125 44.9375 -83.453125 C 50.863281 -82.453125 55.507812 -80.390625 58.875 -77.265625 C 62.644531 -73.816406 64.707031 -69.1875 65.0625 -63.375 C 65.425781 -57.570312 63.644531 -51.109375 59.71875 -43.984375 C 62.675781 -42.378906 65.015625 -40.09375 66.734375 -37.125 C 68.460938 -34.164062 69.566406 -30.941406 70.046875 -27.453125 C 70.523438 -23.972656 70.363281 -20.550781 69.5625 -17.1875 C 68.769531 -13.820312 67.289062 -10.976562 65.125 -8.65625 C 62.800781 -6.164062 60.015625 -4.28125 56.765625 -3 C 53.523438 -1.71875 49.539062 -0.859375 44.8125 -0.421875 C 40.09375 0.015625 34.445312 0.210938 27.875 0.171875 C 21.3125 0.140625 13.539062 0.0820312 4.5625 0 Z M 27.75 -19.578125 L 34.484375 -19.578125 C 36.804688 -19.578125 38.726562 -20.054688 40.25 -21.015625 C 41.769531 -21.984375 42.769531 -23.1875 43.25 -24.625 C 43.738281 -26.070312 43.5625 -27.472656 42.71875 -28.828125 C 41.875 -30.191406 40.269531 -31.273438 37.90625 -32.078125 C 35.539062 -32.878906 32.238281 -33.160156 28 -32.921875 Z M 28.359375 -50.828125 C 31.960938 -50.828125 34.582031 -51.585938 36.21875 -53.109375 C 37.863281 -54.628906 38.625 -56.332031 38.5 -58.21875 C 38.382812 -60.101562 37.484375 -61.6875 35.796875 -62.96875 C 34.117188 -64.25 31.71875 -64.644531 28.59375 -64.15625 Z M 28.359375 -50.828125 "/></g></g></g><g fill="#ff5991" fill-opacity="1"><g transform="translate(80.779328, 100.042085)"><g><path d="M 24.390625 1.078125 C 23.109375 1.078125 22.003906 0.597656 21.078125 -0.359375 C 20.160156 -1.316406 19.703125 -2.476562 19.703125 -3.84375 L 20.671875 -26.4375 L 0.359375 -78.21875 C -0.273438 -79.90625 -0.09375 -81.390625 0.90625 -82.671875 C 1.90625 -83.953125 3.125 -84.59375 4.5625 -84.59375 L 24.03125 -84.703125 C 25.394531 -84.703125 26.414062 -84.363281 27.09375 -83.6875 C 27.769531 -83.007812 28.234375 -82.226562 28.484375 -81.34375 L 35.328125 -58.28125 L 40.96875 -81.21875 C 41.207031 -82.34375 41.769531 -83.222656 42.65625 -83.859375 C 43.539062 -84.503906 44.539062 -84.828125 45.65625 -84.828125 L 65.484375 -84.234375 C 67.242188 -84.148438 68.546875 -83.445312 69.390625 -82.125 C 70.234375 -80.800781 70.332031 -79.335938 69.6875 -77.734375 L 50.109375 -27.28125 L 51.78125 -4.078125 C 51.945312 -2.796875 51.585938 -1.65625 50.703125 -0.65625 C 49.828125 0.34375 48.707031 0.84375 47.34375 0.84375 Z M 24.390625 1.078125 "/></g></g></g><g fill="#ff5991" fill-opacity="1"><g transform="translate(155.623111, 100.042085)"><g><path d="M 4.328125 0 C 3.285156 0 2.320312 -0.441406 1.4375 -1.328125 C 0.632812 -2.117188 0.234375 -3.238281 0.234375 -4.6875 L 0 -80.75 C 0 -81.863281 0.441406 -82.941406 1.328125 -83.984375 C 2.203125 -84.953125 3.117188 -85.4375 4.078125 -85.4375 L 50.578125 -85.3125 C 51.941406 -85.3125 53.066406 -84.910156 53.953125 -84.109375 C 54.828125 -83.222656 55.265625 -82.222656 55.265625 -81.109375 L 55.265625 -63.203125 C 55.265625 -62.242188 54.785156 -61.320312 53.828125 -60.4375 C 52.953125 -59.71875 51.867188 -59.273438 50.578125 -59.109375 L 27.875 -58.03125 L 28.109375 -52.03125 L 41.09375 -51.90625 C 42.132812 -51.90625 43.054688 -51.625 43.859375 -51.0625 C 44.660156 -50.5 45.019531 -49.738281 44.9375 -48.78125 L 44.34375 -35.921875 C 44.34375 -35.117188 43.941406 -34.441406 43.140625 -33.890625 C 42.421875 -33.398438 41.539062 -33.078125 40.5 -32.921875 L 28.59375 -32.328125 L 28.84375 -27.515625 L 50.578125 -26.546875 C 51.867188 -26.390625 52.953125 -25.953125 53.828125 -25.234375 C 54.785156 -24.429688 55.265625 -23.507812 55.265625 -22.46875 L 55.265625 -4.5625 C 55.265625 -3.445312 54.828125 -2.445312 53.953125 -1.5625 C 53.066406 -0.757812 51.941406 -0.359375 50.578125 -0.359375 L 18.5 0 C 18.34375 0 18.144531 0 17.90625 0 C 17.664062 0 17.460938 -0.0390625 17.296875 -0.125 Z M 4.328125 0 "/></g></g></g><g fill="#ff5991" fill-opacity="1"><g transform="translate(215.690361, 100.042085)"><g/></g></g><g fill="#ff5991" fill-opacity="1"><g transform="translate(256.536081, 100.042085)"><g><path d="M 4.5625 0 C 3.28125 0 2.195312 -0.554688 1.3125 -1.671875 C 0.4375 -2.796875 0 -3.84375 0 -4.8125 L 0.234375 -80.140625 C 0.234375 -83.503906 2 -85.1875 5.53125 -85.1875 L 24.265625 -85.078125 C 32.117188 -84.992188 39.007812 -84.453125 44.9375 -83.453125 C 50.863281 -82.453125 55.507812 -80.390625 58.875 -77.265625 C 62.644531 -73.816406 64.707031 -69.1875 65.0625 -63.375 C 65.425781 -57.570312 63.644531 -51.109375 59.71875 -43.984375 C 62.675781 -42.378906 65.015625 -40.09375 66.734375 -37.125 C 68.460938 -34.164062 69.566406 -30.941406 70.046875 -27.453125 C 70.523438 -23.972656 70.363281 -20.550781 69.5625 -17.1875 C 68.769531 -13.820312 67.289062 -10.976562 65.125 -8.65625 C 62.800781 -6.164062 60.015625 -4.28125 56.765625 -3 C 53.523438 -1.71875 49.539062 -0.859375 44.8125 -0.421875 C 40.09375 0.015625 34.445312 0.210938 27.875 0.171875 C 21.3125 0.140625 13.539062 0.0820312 4.5625 0 Z M 27.75 -19.578125 L 34.484375 -19.578125 C 36.804688 -19.578125 38.726562 -20.054688 40.25 -21.015625 C 41.769531 -21.984375 42.769531 -23.1875 43.25 -24.625 C 43.738281 -26.070312 43.5625 -27.472656 42.71875 -28.828125 C 41.875 -30.191406 40.269531 -31.273438 37.90625 -32.078125 C 35.539062 -32.878906 32.238281 -33.160156 28 -32.921875 Z M 28.359375 -50.828125 C 31.960938 -50.828125 34.582031 -51.585938 36.21875 -53.109375 C 37.863281 -54.628906 38.625 -56.332031 38.5 -58.21875 C 38.382812 -60.101562 37.484375 -61.6875 35.796875 -62.96875 C 34.117188 -64.25 31.71875 -64.644531 28.59375 -64.15625 Z M 28.359375 -50.828125 "/></g></g></g><g fill="#ff5991" fill-opacity="1"><g transform="translate(331.620132, 100.042085)"><g><path d="M 24.390625 1.078125 C 23.109375 1.078125 22.003906 0.597656 21.078125 -0.359375 C 20.160156 -1.316406 19.703125 -2.476562 19.703125 -3.84375 L 20.671875 -26.4375 L 0.359375 -78.21875 C -0.273438 -79.90625 -0.09375 -81.390625 0.90625 -82.671875 C 1.90625 -83.953125 3.125 -84.59375 4.5625 -84.59375 L 24.03125 -84.703125 C 25.394531 -84.703125 26.414062 -84.363281 27.09375 -83.6875 C 27.769531 -83.007812 28.234375 -82.226562 28.484375 -81.34375 L 35.328125 -58.28125 L 40.96875 -81.21875 C 41.207031 -82.34375 41.769531 -83.222656 42.65625 -83.859375 C 43.539062 -84.503906 44.539062 -84.828125 45.65625 -84.828125 L 65.484375 -84.234375 C 67.242188 -84.148438 68.546875 -83.445312 69.390625 -82.125 C 70.234375 -80.800781 70.332031 -79.335938 69.6875 -77.734375 L 50.109375 -27.28125 L 51.78125 -4.078125 C 51.945312 -2.796875 51.585938 -1.65625 50.703125 -0.65625 C 49.828125 0.34375 48.707031 0.84375 47.34375 0.84375 Z M 24.390625 1.078125 "/></g></g></g><g fill="#ff5991" fill-opacity="1"><g transform="translate(406.463915, 100.042085)"><g><path d="M 4.328125 0 C 3.285156 0 2.320312 -0.441406 1.4375 -1.328125 C 0.632812 -2.117188 0.234375 -3.238281 0.234375 -4.6875 L 0 -80.75 C 0 -81.863281 0.441406 -82.941406 1.328125 -83.984375 C 2.203125 -84.953125 3.117188 -85.4375 4.078125 -85.4375 L 50.578125 -85.3125 C 51.941406 -85.3125 53.066406 -84.910156 53.953125 -84.109375 C 54.828125 -83.222656 55.265625 -82.222656 55.265625 -81.109375 L 55.265625 -63.203125 C 55.265625 -62.242188 54.785156 -61.320312 53.828125 -60.4375 C 52.953125 -59.71875 51.867188 -59.273438 50.578125 -59.109375 L 27.875 -58.03125 L 28.109375 -52.03125 L 41.09375 -51.90625 C 42.132812 -51.90625 43.054688 -51.625 43.859375 -51.0625 C 44.660156 -50.5 45.019531 -49.738281 44.9375 -48.78125 L 44.34375 -35.921875 C 44.34375 -35.117188 43.941406 -34.441406 43.140625 -33.890625 C 42.421875 -33.398438 41.539062 -33.078125 40.5 -32.921875 L 28.59375 -32.328125 L 28.84375 -27.515625 L 50.578125 -26.546875 C 51.867188 -26.390625 52.953125 -25.953125 53.828125 -25.234375 C 54.785156 -24.429688 55.265625 -23.507812 55.265625 -22.46875 L 55.265625 -4.5625 C 55.265625 -3.445312 54.828125 -2.445312 53.953125 -1.5625 C 53.066406 -0.757812 51.941406 -0.359375 50.578125 -0.359375 L 18.5 0 C 18.34375 0 18.144531 0 17.90625 0 C 17.664062 0 17.460938 -0.0390625 17.296875 -0.125 Z M 4.328125 0 "/></g></g></g><g fill="#ff5991" fill-opacity="1"><g transform="translate(466.53114, 100.042085)"><g><path d="M 4.328125 0 C 3.285156 0 2.320312 -0.441406 1.4375 -1.328125 C 0.632812 -2.117188 0.234375 -3.238281 0.234375 -4.6875 L 0 -80.75 C 0 -81.863281 0.441406 -82.941406 1.328125 -83.984375 C 2.203125 -84.953125 3.117188 -85.4375 4.078125 -85.4375 L 50.578125 -85.3125 C 51.941406 -85.3125 53.066406 -84.910156 53.953125 -84.109375 C 54.828125 -83.222656 55.265625 -82.222656 55.265625 -81.109375 L 55.265625 -63.203125 C 55.265625 -62.242188 54.785156 -61.320312 53.828125 -60.4375 C 52.953125 -59.71875 51.867188 -59.273438 50.578125 -59.109375 L 27.875 -58.03125 L 28.109375 -52.03125 L 41.09375 -51.90625 C 42.132812 -51.90625 43.054688 -51.625 43.859375 -51.0625 C 44.660156 -50.5 45.019531 -49.738281 44.9375 -48.78125 L 44.34375 -35.921875 C 44.34375 -35.117188 43.941406 -34.441406 43.140625 -33.890625 C 42.421875 -33.398438 41.539062 -33.078125 40.5 -32.921875 L 28.59375 -32.328125 L 28.84375 -27.515625 L 50.578125 -26.546875 C 51.867188 -26.390625 52.953125 -25.953125 53.828125 -25.234375 C 54.785156 -24.429688 55.265625 -23.507812 55.265625 -22.46875 L 55.265625 -4.5625 C 55.265625 -3.445312 54.828125 -2.445312 53.953125 -1.5625 C 53.066406 -0.757812 51.941406 -0.359375 50.578125 -0.359375 L 18.5 0 C 18.34375 0 18.144531 0 17.90625 0 C 17.664062 0 17.460938 -0.0390625 17.296875 -0.125 Z M 4.328125 0 "/></g></g></g><g fill="#ff5991" fill-opacity="1"><g transform="translate(526.598444, 100.042085)"><g><path d="M 6.484375 -24.875 C 5.367188 -24.875 4.390625 -25.253906 3.546875 -26.015625 C 2.703125 -26.773438 2.238281 -27.632812 2.15625 -28.59375 L 0 -82.78125 C -0.0820312 -83.90625 0.3125 -84.804688 1.1875 -85.484375 C 2.070312 -86.171875 3.117188 -86.515625 4.328125 -86.515625 L 21.03125 -86.390625 C 21.988281 -86.390625 23.007812 -86.046875 24.09375 -85.359375 C 25.175781 -84.679688 25.632812 -83.785156 25.46875 -82.671875 L 22.953125 -28.59375 C 22.953125 -27.550781 22.507812 -26.671875 21.625 -25.953125 C 20.75 -25.234375 19.707031 -24.875 18.5 -24.875 Z M 1.4375 -13.8125 C 2.644531 -16.375 4.789062 -18.234375 7.875 -19.390625 C 10.957031 -20.554688 14.097656 -20.582031 17.296875 -19.46875 C 19.304688 -18.820312 20.988281 -17.617188 22.34375 -15.859375 C 23.707031 -14.097656 24.390625 -12.054688 24.390625 -9.734375 C 24.390625 -6.691406 23.207031 -4.164062 20.84375 -2.15625 C 18.476562 -0.15625 15.734375 0.84375 12.609375 0.84375 C 9.972656 0.84375 7.613281 0.160156 5.53125 -1.203125 C 3.445312 -2.566406 1.984375 -4.367188 1.140625 -6.609375 C 0.296875 -8.847656 0.394531 -11.25 1.4375 -13.8125 Z M 1.4375 -13.8125 "/></g></g></g><g clip-path="url(#fafc3aa9ec)"><g fill="#ffffff" fill-opacity="1"><g transform="translate(0.385265, 94.732073)"><g><path d="M 4.5625 0 C 3.28125 0 2.195312 -0.554688 1.3125 -1.671875 C 0.4375 -2.796875 0 -3.84375 0 -4.8125 L 0.234375 -80.140625 C 0.234375 -83.503906 2 -85.1875 5.53125 -85.1875 L 24.265625 -85.078125 C 32.117188 -84.992188 39.007812 -84.453125 44.9375 -83.453125 C 50.863281 -82.453125 55.507812 -80.390625 58.875 -77.265625 C 62.644531 -73.816406 64.707031 -69.1875 65.0625 -63.375 C 65.425781 -57.570312 63.644531 -51.109375 59.71875 -43.984375 C 62.675781 -42.378906 65.015625 -40.09375 66.734375 -37.125 C 68.460938 -34.164062 69.566406 -30.941406 70.046875 -27.453125 C 70.523438 -23.972656 70.363281 -20.550781 69.5625 -17.1875 C 68.769531 -13.820312 67.289062 -10.976562 65.125 -8.65625 C 62.800781 -6.164062 60.015625 -4.28125 56.765625 -3 C 53.523438 -1.71875 49.539062 -0.859375 44.8125 -0.421875 C 40.09375 0.015625 34.445312 0.210938 27.875 0.171875 C 21.3125 0.140625 13.539062 0.0820312 4.5625 0 Z M 27.75 -19.578125 L 34.484375 -19.578125 C 36.804688 -19.578125 38.726562 -20.054688 40.25 -21.015625 C 41.769531 -21.984375 42.769531 -23.1875 43.25 -24.625 C 43.738281 -26.070312 43.5625 -27.472656 42.71875 -28.828125 C 41.875 -30.191406 40.269531 -31.273438 37.90625 -32.078125 C 35.539062 -32.878906 32.238281 -33.160156 28 -32.921875 Z M 28.359375 -50.828125 C 31.960938 -50.828125 34.582031 -51.585938 36.21875 -53.109375 C 37.863281 -54.628906 38.625 -56.332031 38.5 -58.21875 C 38.382812 -60.101562 37.484375 -61.6875 35.796875 -62.96875 C 34.117188 -64.25 31.71875 -64.644531 28.59375 -64.15625 Z M 28.359375 -50.828125 "/></g></g></g></g><g fill="#ffffff" fill-opacity="1"><g transform="translate(75.469316, 94.732073)"><g><path d="M 24.390625 1.078125 C 23.109375 1.078125 22.003906 0.597656 21.078125 -0.359375 C 20.160156 -1.316406 19.703125 -2.476562 19.703125 -3.84375 L 20.671875 -26.4375 L 0.359375 -78.21875 C -0.273438 -79.90625 -0.09375 -81.390625 0.90625 -82.671875 C 1.90625 -83.953125 3.125 -84.59375 4.5625 -84.59375 L 24.03125 -84.703125 C 25.394531 -84.703125 26.414062 -84.363281 27.09375 -83.6875 C 27.769531 -83.007812 28.234375 -82.226562 28.484375 -81.34375 L 35.328125 -58.28125 L 40.96875 -81.21875 C 41.207031 -82.34375 41.769531 -83.222656 42.65625 -83.859375 C 43.539062 -84.503906 44.539062 -84.828125 45.65625 -84.828125 L 65.484375 -84.234375 C 67.242188 -84.148438 68.546875 -83.445312 69.390625 -82.125 C 70.234375 -80.800781 70.332031 -79.335938 69.6875 -77.734375 L 50.109375 -27.28125 L 51.78125 -4.078125 C 51.945312 -2.796875 51.585938 -1.65625 50.703125 -0.65625 C 49.828125 0.34375 48.707031 0.84375 47.34375 0.84375 Z M 24.390625 1.078125 "/></g></g></g><g fill="#ffffff" fill-opacity="1"><g transform="translate(150.313099, 94.732073)"><g><path d="M 4.328125 0 C 3.285156 0 2.320312 -0.441406 1.4375 -1.328125 C 0.632812 -2.117188 0.234375 -3.238281 0.234375 -4.6875 L 0 -80.75 C 0 -81.863281 0.441406 -82.941406 1.328125 -83.984375 C 2.203125 -84.953125 3.117188 -85.4375 4.078125 -85.4375 L 50.578125 -85.3125 C 51.941406 -85.3125 53.066406 -84.910156 53.953125 -84.109375 C 54.828125 -83.222656 55.265625 -82.222656 55.265625 -81.109375 L 55.265625 -63.203125 C 55.265625 -62.242188 54.785156 -61.320312 53.828125 -60.4375 C 52.953125 -59.71875 51.867188 -59.273438 50.578125 -59.109375 L 27.875 -58.03125 L 28.109375 -52.03125 L 41.09375 -51.90625 C 42.132812 -51.90625 43.054688 -51.625 43.859375 -51.0625 C 44.660156 -50.5 45.019531 -49.738281 44.9375 -48.78125 L 44.34375 -35.921875 C 44.34375 -35.117188 43.941406 -34.441406 43.140625 -33.890625 C 42.421875 -33.398438 41.539062 -33.078125 40.5 -32.921875 L 28.59375 -32.328125 L 28.84375 -27.515625 L 50.578125 -26.546875 C 51.867188 -26.390625 52.953125 -25.953125 53.828125 -25.234375 C 54.785156 -24.429688 55.265625 -23.507812 55.265625 -22.46875 L 55.265625 -4.5625 C 55.265625 -3.445312 54.828125 -2.445312 53.953125 -1.5625 C 53.066406 -0.757812 51.941406 -0.359375 50.578125 -0.359375 L 18.5 0 C 18.34375 0 18.144531 0 17.90625 0 C 17.664062 0 17.460938 -0.0390625 17.296875 -0.125 Z M 4.328125 0 "/></g></g></g><g fill="#ffffff" fill-opacity="1"><g transform="translate(210.380349, 94.732073)"><g/></g></g><g fill="#ffffff" fill-opacity="1"><g transform="translate(251.226069, 94.732073)"><g><path d="M 4.5625 0 C 3.28125 0 2.195312 -0.554688 1.3125 -1.671875 C 0.4375 -2.796875 0 -3.84375 0 -4.8125 L 0.234375 -80.140625 C 0.234375 -83.503906 2 -85.1875 5.53125 -85.1875 L 24.265625 -85.078125 C 32.117188 -84.992188 39.007812 -84.453125 44.9375 -83.453125 C 50.863281 -82.453125 55.507812 -80.390625 58.875 -77.265625 C 62.644531 -73.816406 64.707031 -69.1875 65.0625 -63.375 C 65.425781 -57.570312 63.644531 -51.109375 59.71875 -43.984375 C 62.675781 -42.378906 65.015625 -40.09375 66.734375 -37.125 C 68.460938 -34.164062 69.566406 -30.941406 70.046875 -27.453125 C 70.523438 -23.972656 70.363281 -20.550781 69.5625 -17.1875 C 68.769531 -13.820312 67.289062 -10.976562 65.125 -8.65625 C 62.800781 -6.164062 60.015625 -4.28125 56.765625 -3 C 53.523438 -1.71875 49.539062 -0.859375 44.8125 -0.421875 C 40.09375 0.015625 34.445312 0.210938 27.875 0.171875 C 21.3125 0.140625 13.539062 0.0820312 4.5625 0 Z M 27.75 -19.578125 L 34.484375 -19.578125 C 36.804688 -19.578125 38.726562 -20.054688 40.25 -21.015625 C 41.769531 -21.984375 42.769531 -23.1875 43.25 -24.625 C 43.738281 -26.070312 43.5625 -27.472656 42.71875 -28.828125 C 41.875 -30.191406 40.269531 -31.273438 37.90625 -32.078125 C 35.539062 -32.878906 32.238281 -33.160156 28 -32.921875 Z M 28.359375 -50.828125 C 31.960938 -50.828125 34.582031 -51.585938 36.21875 -53.109375 C 37.863281 -54.628906 38.625 -56.332031 38.5 -58.21875 C 38.382812 -60.101562 37.484375 -61.6875 35.796875 -62.96875 C 34.117188 -64.25 31.71875 -64.644531 28.59375 -64.15625 Z M 28.359375 -50.828125 "/></g></g></g><g fill="#ffffff" fill-opacity="1"><g transform="translate(326.31012, 94.732073)"><g><path d="M 24.390625 1.078125 C 23.109375 1.078125 22.003906 0.597656 21.078125 -0.359375 C 20.160156 -1.316406 19.703125 -2.476562 19.703125 -3.84375 L 20.671875 -26.4375 L 0.359375 -78.21875 C -0.273438 -79.90625 -0.09375 -81.390625 0.90625 -82.671875 C 1.90625 -83.953125 3.125 -84.59375 4.5625 -84.59375 L 24.03125 -84.703125 C 25.394531 -84.703125 26.414062 -84.363281 27.09375 -83.6875 C 27.769531 -83.007812 28.234375 -82.226562 28.484375 -81.34375 L 35.328125 -58.28125 L 40.96875 -81.21875 C 41.207031 -82.34375 41.769531 -83.222656 42.65625 -83.859375 C 43.539062 -84.503906 44.539062 -84.828125 45.65625 -84.828125 L 65.484375 -84.234375 C 67.242188 -84.148438 68.546875 -83.445312 69.390625 -82.125 C 70.234375 -80.800781 70.332031 -79.335938 69.6875 -77.734375 L 50.109375 -27.28125 L 51.78125 -4.078125 C 51.945312 -2.796875 51.585938 -1.65625 50.703125 -0.65625 C 49.828125 0.34375 48.707031 0.84375 47.34375 0.84375 Z M 24.390625 1.078125 "/></g></g></g><g fill="#ffffff" fill-opacity="1"><g transform="translate(401.153903, 94.732073)"><g><path d="M 4.328125 0 C 3.285156 0 2.320312 -0.441406 1.4375 -1.328125 C 0.632812 -2.117188 0.234375 -3.238281 0.234375 -4.6875 L 0 -80.75 C 0 -81.863281 0.441406 -82.941406 1.328125 -83.984375 C 2.203125 -84.953125 3.117188 -85.4375 4.078125 -85.4375 L 50.578125 -85.3125 C 51.941406 -85.3125 53.066406 -84.910156 53.953125 -84.109375 C 54.828125 -83.222656 55.265625 -82.222656 55.265625 -81.109375 L 55.265625 -63.203125 C 55.265625 -62.242188 54.785156 -61.320312 53.828125 -60.4375 C 52.953125 -59.71875 51.867188 -59.273438 50.578125 -59.109375 L 27.875 -58.03125 L 28.109375 -52.03125 L 41.09375 -51.90625 C 42.132812 -51.90625 43.054688 -51.625 43.859375 -51.0625 C 44.660156 -50.5 45.019531 -49.738281 44.9375 -48.78125 L 44.34375 -35.921875 C 44.34375 -35.117188 43.941406 -34.441406 43.140625 -33.890625 C 42.421875 -33.398438 41.539062 -33.078125 40.5 -32.921875 L 28.59375 -32.328125 L 28.84375 -27.515625 L 50.578125 -26.546875 C 51.867188 -26.390625 52.953125 -25.953125 53.828125 -25.234375 C 54.785156 -24.429688 55.265625 -23.507812 55.265625 -22.46875 L 55.265625 -4.5625 C 55.265625 -3.445312 54.828125 -2.445312 53.953125 -1.5625 C 53.066406 -0.757812 51.941406 -0.359375 50.578125 -0.359375 L 18.5 0 C 18.34375 0 18.144531 0 17.90625 0 C 17.664062 0 17.460938 -0.0390625 17.296875 -0.125 Z M 4.328125 0 "/></g></g></g><g fill="#ffffff" fill-opacity="1"><g transform="translate(461.221128, 94.732073)"><g><path d="M 4.328125 0 C 3.285156 0 2.320312 -0.441406 1.4375 -1.328125 C 0.632812 -2.117188 0.234375 -3.238281 0.234375 -4.6875 L 0 -80.75 C 0 -81.863281 0.441406 -82.941406 1.328125 -83.984375 C 2.203125 -84.953125 3.117188 -85.4375 4.078125 -85.4375 L 50.578125 -85.3125 C 51.941406 -85.3125 53.066406 -84.910156 53.953125 -84.109375 C 54.828125 -83.222656 55.265625 -82.222656 55.265625 -81.109375 L 55.265625 -63.203125 C 55.265625 -62.242188 54.785156 -61.320312 53.828125 -60.4375 C 52.953125 -59.71875 51.867188 -59.273438 50.578125 -59.109375 L 27.875 -58.03125 L 28.109375 -52.03125 L 41.09375 -51.90625 C 42.132812 -51.90625 43.054688 -51.625 43.859375 -51.0625 C 44.660156 -50.5 45.019531 -49.738281 44.9375 -48.78125 L 44.34375 -35.921875 C 44.34375 -35.117188 43.941406 -34.441406 43.140625 -33.890625 C 42.421875 -33.398438 41.539062 -33.078125 40.5 -32.921875 L 28.59375 -32.328125 L 28.84375 -27.515625 L 50.578125 -26.546875 C 51.867188 -26.390625 52.953125 -25.953125 53.828125 -25.234375 C 54.785156 -24.429688 55.265625 -23.507812 55.265625 -22.46875 L 55.265625 -4.5625 C 55.265625 -3.445312 54.828125 -2.445312 53.953125 -1.5625 C 53.066406 -0.757812 51.941406 -0.359375 50.578125 -0.359375 L 18.5 0 C 18.34375 0 18.144531 0 17.90625 0 C 17.664062 0 17.460938 -0.0390625 17.296875 -0.125 Z M 4.328125 0 "/></g></g></g><g fill="#ffffff" fill-opacity="1"><g transform="translate(521.288432, 94.732073)"><g><path d="M 6.484375 -24.875 C 5.367188 -24.875 4.390625 -25.253906 3.546875 -26.015625 C 2.703125 -26.773438 2.238281 -27.632812 2.15625 -28.59375 L 0 -82.78125 C -0.0820312 -83.90625 0.3125 -84.804688 1.1875 -85.484375 C 2.070312 -86.171875 3.117188 -86.515625 4.328125 -86.515625 L 21.03125 -86.390625 C 21.988281 -86.390625 23.007812 -86.046875 24.09375 -85.359375 C 25.175781 -84.679688 25.632812 -83.785156 25.46875 -82.671875 L 22.953125 -28.59375 C 22.953125 -27.550781 22.507812 -26.671875 21.625 -25.953125 C 20.75 -25.234375 19.707031 -24.875 18.5 -24.875 Z M 1.4375 -13.8125 C 2.644531 -16.375 4.789062 -18.234375 7.875 -19.390625 C 10.957031 -20.554688 14.097656 -20.582031 17.296875 -19.46875 C 19.304688 -18.820312 20.988281 -17.617188 22.34375 -15.859375 C 23.707031 -14.097656 24.390625 -12.054688 24.390625 -9.734375 C 24.390625 -6.691406 23.207031 -4.164062 20.84375 -2.15625 C 18.476562 -0.15625 15.734375 0.84375 12.609375 0.84375 C 9.972656 0.84375 7.613281 0.160156 5.53125 -1.203125 C 3.445312 -2.566406 1.984375 -4.367188 1.140625 -6.609375 C 0.296875 -8.847656 0.394531 -11.25 1.4375 -13.8125 Z M 1.4375 -13.8125 "/></g></g></g></g></g></svg>