<svg xmlns="http://www.w3.org/2000/svg" xmlns:xlink="http://www.w3.org/1999/xlink" width="1200" zoomAndPan="magnify" viewBox="0 0 900 307.91998" height="400" preserveAspectRatio="xMidYMid meet" version="1.0"><defs><g/><clipPath id="acbb36212b"><path d="M 15.636719 95.949219 L 895.691406 95.949219 L 895.691406 222.804688 L 15.636719 222.804688 Z M 15.636719 95.949219 " clip-rule="nonzero"/></clipPath><clipPath id="a6a889b905"><path d="M 32.507812 95.949219 L 878.511719 95.949219 C 882.988281 95.949219 887.277344 97.726562 890.441406 100.890625 C 893.605469 104.054688 895.382812 108.347656 895.382812 112.820312 L 895.382812 205.933594 C 895.382812 210.410156 893.605469 214.699219 890.441406 217.863281 C 887.277344 221.027344 882.988281 222.804688 878.511719 222.804688 L 32.507812 222.804688 C 28.03125 222.804688 23.742188 221.027344 20.578125 217.863281 C 17.414062 214.699219 15.636719 210.410156 15.636719 205.933594 L 15.636719 112.820312 C 15.636719 108.347656 17.414062 104.054688 20.578125 100.890625 C 23.742188 97.726562 28.03125 95.949219 32.507812 95.949219 Z M 32.507812 95.949219 " clip-rule="nonzero"/></clipPath><clipPath id="3999549bd1"><path d="M 0.636719 0.949219 L 880.5625 0.949219 L 880.5625 127.804688 L 0.636719 127.804688 Z M 0.636719 0.949219 " clip-rule="nonzero"/></clipPath><clipPath id="d04e058d2d"><path d="M 17.507812 0.949219 L 863.511719 0.949219 C 867.988281 0.949219 872.277344 2.726562 875.441406 5.890625 C 878.605469 9.054688 880.382812 13.347656 880.382812 17.820312 L 880.382812 110.933594 C 880.382812 115.410156 878.605469 119.699219 875.441406 122.863281 C 872.277344 126.027344 867.988281 127.804688 863.511719 127.804688 L 17.507812 127.804688 C 13.03125 127.804688 8.742188 126.027344 5.578125 122.863281 C 2.414062 119.699219 0.636719 115.410156 0.636719 110.933594 L 0.636719 17.820312 C 0.636719 13.347656 2.414062 9.054688 5.578125 5.890625 C 8.742188 2.726562 13.03125 0.949219 17.507812 0.949219 Z M 17.507812 0.949219 " clip-rule="nonzero"/></clipPath><clipPath id="3482edc4a6"><rect x="0" width="881" y="0" height="128"/></clipPath><clipPath id="648659b604"><path d="M 15.664062 95.949219 L 895.15625 95.949219 L 895.15625 222.667969 L 15.664062 222.667969 Z M 15.664062 95.949219 " clip-rule="nonzero"/></clipPath><clipPath id="682f33bf87"><path d="M 32.535156 95.949219 L 878.480469 95.949219 C 882.957031 95.949219 887.246094 97.726562 890.410156 100.890625 C 893.574219 104.054688 895.351562 108.34375 895.351562 112.820312 L 895.351562 205.925781 C 895.351562 210.402344 893.574219 214.691406 890.410156 217.855469 C 887.246094 221.019531 882.957031 222.796875 878.480469 222.796875 L 32.535156 222.796875 C 28.058594 222.796875 23.769531 221.019531 20.605469 217.855469 C 17.441406 214.691406 15.664062 210.402344 15.664062 205.925781 L 15.664062 112.820312 C 15.664062 108.34375 17.441406 104.054688 20.605469 100.890625 C 23.769531 97.726562 28.058594 95.949219 32.535156 95.949219 Z M 32.535156 95.949219 " clip-rule="nonzero"/></clipPath><clipPath id="cc923ede17"><path d="M 3.355469 83.808594 L 883.414062 83.808594 L 883.414062 210.664062 L 3.355469 210.664062 Z M 3.355469 83.808594 " clip-rule="nonzero"/></clipPath><clipPath id="7be3b916f7"><path d="M 20.226562 83.808594 L 866.234375 83.808594 C 870.710938 83.808594 875 85.585938 878.164062 88.75 C 881.328125 91.914062 883.105469 96.203125 883.105469 100.679688 L 883.105469 193.792969 C 883.105469 198.265625 881.328125 202.558594 878.164062 205.722656 C 875 208.886719 870.710938 210.664062 866.234375 210.664062 L 20.226562 210.664062 C 15.753906 210.664062 11.460938 208.886719 8.296875 205.722656 C 5.132812 202.558594 3.355469 198.265625 3.355469 193.792969 L 3.355469 100.679688 C 3.355469 96.203125 5.132812 91.914062 8.296875 88.75 C 11.460938 85.585938 15.753906 83.808594 20.226562 83.808594 Z M 20.226562 83.808594 " clip-rule="nonzero"/></clipPath><clipPath id="5fc3712b8f"><path d="M 0.355469 0.808594 L 880 0.808594 L 880 127.664062 L 0.355469 127.664062 Z M 0.355469 0.808594 " clip-rule="nonzero"/></clipPath><clipPath id="25df7f2e29"><path d="M 17.226562 0.808594 L 863.234375 0.808594 C 867.710938 0.808594 872 2.585938 875.164062 5.75 C 878.328125 8.914062 880.105469 13.203125 880.105469 17.679688 L 880.105469 110.792969 C 880.105469 115.265625 878.328125 119.558594 875.164062 122.722656 C 872 125.886719 867.710938 127.664062 863.234375 127.664062 L 17.226562 127.664062 C 12.753906 127.664062 8.460938 125.886719 5.296875 122.722656 C 2.132812 119.558594 0.355469 115.265625 0.355469 110.792969 L 0.355469 17.679688 C 0.355469 13.203125 2.132812 8.914062 5.296875 5.75 C 8.460938 2.585938 12.753906 0.808594 17.226562 0.808594 Z M 17.226562 0.808594 " clip-rule="nonzero"/></clipPath><clipPath id="9d77262f2f"><rect x="0" width="881" y="0" height="128"/></clipPath><clipPath id="2625cc97b6"><path d="M 3.386719 83.808594 L 882.878906 83.808594 L 882.878906 210.523438 L 3.386719 210.523438 Z M 3.386719 83.808594 " clip-rule="nonzero"/></clipPath><clipPath id="7647bae11d"><path d="M 20.253906 83.808594 L 866.203125 83.808594 C 870.675781 83.808594 874.96875 85.585938 878.132812 88.75 C 881.292969 91.914062 883.070312 96.203125 883.070312 100.675781 L 883.070312 193.785156 C 883.070312 198.257812 881.292969 202.550781 878.132812 205.714844 C 874.96875 208.875 870.675781 210.652344 866.203125 210.652344 L 20.253906 210.652344 C 15.78125 210.652344 11.492188 208.875 8.328125 205.714844 C 5.164062 202.550781 3.386719 198.257812 3.386719 193.785156 L 3.386719 100.675781 C 3.386719 96.203125 5.164062 91.914062 8.328125 88.75 C 11.492188 85.585938 15.78125 83.808594 20.253906 83.808594 Z M 20.253906 83.808594 " clip-rule="nonzero"/></clipPath><clipPath id="3e61189667"><rect x="0" width="539" y="0" height="84"/></clipPath></defs><g clip-path="url(#acbb36212b)"><g clip-path="url(#a6a889b905)"><g transform="matrix(1, 0, 0, 1, 15, 95)"><g clip-path="url(#3482edc4a6)"><g clip-path="url(#3999549bd1)"><g clip-path="url(#d04e058d2d)"><path fill="#ffffff" d="M 0.636719 0.949219 L 880.195312 0.949219 L 880.195312 127.804688 L 0.636719 127.804688 Z M 0.636719 0.949219 " fill-opacity="1" fill-rule="nonzero"/></g></g></g></g></g></g><g clip-path="url(#648659b604)"><g clip-path="url(#682f33bf87)"><path stroke-linecap="butt" transform="matrix(0.749805, 0, 0, 0.749805, 15.664607, 95.950248)" fill="none" stroke-linejoin="miter" d="M 22.499913 -0.00137209 L 1150.720161 -0.00137209 C 1156.690462 -0.00137209 1162.410698 2.369036 1166.630545 6.588882 C 1170.850391 10.808729 1173.220799 16.528965 1173.220799 22.499266 L 1173.220799 146.672157 C 1173.220799 152.642459 1170.850391 158.362695 1166.630545 162.582541 C 1162.410698 166.802388 1156.690462 169.172796 1150.720161 169.172796 L 22.499913 169.172796 C 16.529611 169.172796 10.809375 166.802388 6.589529 162.582541 C 2.369682 158.362695 -0.000725586 152.642459 -0.000725586 146.672157 L -0.000725586 22.499266 C -0.000725586 16.528965 2.369682 10.808729 6.589529 6.588882 C 10.809375 2.369036 16.529611 -0.00137209 22.499913 -0.00137209 Z M 22.499913 -0.00137209 " stroke="#000000" stroke-width="8" stroke-opacity="1" stroke-miterlimit="4"/></g></g><g clip-path="url(#cc923ede17)"><g clip-path="url(#7be3b916f7)"><g transform="matrix(1, 0, 0, 1, 3, 83)"><g clip-path="url(#9d77262f2f)"><g clip-path="url(#5fc3712b8f)"><g clip-path="url(#25df7f2e29)"><path fill="#f794c6" d="M 0.355469 0.808594 L 879.917969 0.808594 L 879.917969 127.664062 L 0.355469 127.664062 Z M 0.355469 0.808594 " fill-opacity="1" fill-rule="nonzero"/></g></g></g></g></g></g><g clip-path="url(#2625cc97b6)"><g clip-path="url(#7647bae11d)"><path stroke-linecap="butt" transform="matrix(0.749805, 0, 0, 0.749805, 3.386, 83.807944)" fill="none" stroke-linejoin="miter" d="M 22.496387 0.000866146 L 1150.721845 0.000866146 C 1156.686937 0.000866146 1162.412383 2.371274 1166.632229 6.59112 C 1170.846866 10.810967 1173.217274 16.531203 1173.217274 22.496295 L 1173.217274 146.674395 C 1173.217274 152.639487 1170.846866 158.364933 1166.632229 162.58478 C 1162.412383 166.799417 1156.686937 169.169824 1150.721845 169.169824 L 22.496387 169.169824 C 16.531296 169.169824 10.811059 166.799417 6.591213 162.58478 C 2.371366 158.364933 0.000958659 152.639487 0.000958659 146.674395 L 0.000958659 22.496295 C 0.000958659 16.531203 2.371366 10.810967 6.591213 6.59112 C 10.811059 2.371274 16.531296 0.000866146 22.496387 0.000866146 Z M 22.496387 0.000866146 " stroke="#000000" stroke-width="8" stroke-opacity="1" stroke-miterlimit="4"/></g></g><g transform="matrix(1, 0, 0, 1, 181, 108)"><g clip-path="url(#3e61189667)"><g fill="#ff5991" fill-opacity="1"><g transform="translate(5.149561, 69.953534)"><g><path d="M 2.96875 0 C 2.25 0 1.585938 -0.300781 0.984375 -0.90625 C 0.441406 -1.457031 0.171875 -2.226562 0.171875 -3.21875 L 0 -55.421875 C 0 -56.191406 0.300781 -56.929688 0.90625 -57.640625 C 1.507812 -58.304688 2.140625 -58.640625 2.796875 -58.640625 L 34.71875 -58.546875 C 35.65625 -58.546875 36.425781 -58.273438 37.03125 -57.734375 C 37.632812 -57.128906 37.9375 -56.441406 37.9375 -55.671875 L 37.9375 -43.375 C 37.9375 -42.71875 37.609375 -42.085938 36.953125 -41.484375 C 36.335938 -40.984375 35.59375 -40.679688 34.71875 -40.578125 L 19.125 -39.828125 L 19.296875 -35.703125 L 28.203125 -35.625 C 28.921875 -35.625 29.550781 -35.429688 30.09375 -35.046875 C 30.644531 -34.660156 30.894531 -34.140625 30.84375 -33.484375 L 30.4375 -24.65625 C 30.4375 -24.101562 30.160156 -23.632812 29.609375 -23.25 C 29.109375 -22.925781 28.503906 -22.707031 27.796875 -22.59375 L 19.625 -22.1875 L 19.796875 -18.890625 L 34.71875 -18.21875 C 35.59375 -18.113281 36.335938 -17.8125 36.953125 -17.3125 C 37.609375 -16.769531 37.9375 -16.140625 37.9375 -15.421875 L 37.9375 -3.140625 C 37.9375 -2.367188 37.632812 -1.679688 37.03125 -1.078125 C 36.425781 -0.523438 35.65625 -0.25 34.71875 -0.25 L 12.703125 0 C 12.585938 0 12.445312 0 12.28125 0 C 12.125 0 11.988281 -0.0234375 11.875 -0.078125 Z M 2.96875 0 "/></g></g></g><g fill="#ff5991" fill-opacity="1"><g transform="translate(46.377253, 69.953534)"><g><path d="M 2.890625 0.828125 C 2.003906 0.609375 1.410156 0.15625 1.109375 -0.53125 C 0.804688 -1.21875 0.65625 -2.054688 0.65625 -3.046875 L 0.65625 -15.25 C 0.65625 -16.300781 1.175781 -17.019531 2.21875 -17.40625 C 3.269531 -17.789062 4.578125 -17.992188 6.140625 -18.015625 C 7.710938 -18.046875 9.304688 -18.003906 10.921875 -17.890625 C 12.546875 -17.785156 13.910156 -17.757812 15.015625 -17.8125 C 16.878906 -17.925781 18.140625 -18.363281 18.796875 -19.125 C 19.460938 -19.894531 19.503906 -20.789062 18.921875 -21.8125 C 18.347656 -22.832031 17.125 -23.671875 15.25 -24.328125 C 11.738281 -25.648438 8.851562 -27.007812 6.59375 -28.40625 C 4.34375 -29.8125 2.679688 -31.445312 1.609375 -33.3125 C 0.535156 -35.1875 0 -37.441406 0 -40.078125 C 0 -43.046875 0.425781 -45.722656 1.28125 -48.109375 C 2.132812 -50.503906 3.710938 -52.609375 6.015625 -54.421875 C 7.554688 -55.640625 9.34375 -56.550781 11.375 -57.15625 C 13.414062 -57.757812 15.546875 -58.171875 17.765625 -58.390625 C 19.992188 -58.609375 22.097656 -58.742188 24.078125 -58.796875 C 25.015625 -58.847656 26.40625 -58.875 28.25 -58.875 C 30.09375 -58.875 32.015625 -58.816406 34.015625 -58.703125 C 36.023438 -58.597656 37.8125 -58.421875 39.375 -58.171875 C 40.945312 -57.929688 41.925781 -57.59375 42.3125 -57.15625 C 42.632812 -56.769531 42.847656 -56.191406 42.953125 -55.421875 C 43.066406 -54.648438 43.109375 -53.328125 43.078125 -51.453125 C 43.054688 -49.585938 43.019531 -46.734375 42.96875 -42.890625 C 42.96875 -40.910156 41.785156 -39.921875 39.421875 -39.921875 C 38.148438 -39.921875 36.734375 -39.957031 35.171875 -40.03125 C 33.609375 -40.113281 32.109375 -40.15625 30.671875 -40.15625 C 29.242188 -40.15625 28.144531 -39.960938 27.375 -39.578125 C 26.0625 -38.972656 25.304688 -38.078125 25.109375 -36.890625 C 24.921875 -35.710938 25.675781 -34.6875 27.375 -33.8125 C 28.363281 -33.3125 29.585938 -32.785156 31.046875 -32.234375 C 32.503906 -31.691406 33.921875 -31.117188 35.296875 -30.515625 C 39.253906 -28.640625 41.972656 -26.082031 43.453125 -22.84375 C 44.941406 -19.601562 45.21875 -16.03125 44.28125 -12.125 C 43.894531 -10.414062 43.257812 -8.765625 42.375 -7.171875 C 41.5 -5.578125 40.347656 -4.203125 38.921875 -3.046875 C 36.941406 -1.453125 34.164062 -0.328125 30.59375 0.328125 C 27.019531 0.984375 22.882812 1.296875 18.1875 1.265625 C 13.488281 1.242188 8.390625 1.097656 2.890625 0.828125 Z M 2.890625 0.828125 "/></g></g></g><g fill="#ff5991" fill-opacity="1"><g transform="translate(94.531184, 69.953534)"><g><path d="M 13.1875 0 C 12.3125 0 11.570312 -0.300781 10.96875 -0.90625 C 10.363281 -1.507812 10.0625 -2.28125 10.0625 -3.21875 L 10.46875 -38.09375 L 3.296875 -38.09375 C 2.421875 -38.039062 1.648438 -38.332031 0.984375 -38.96875 C 0.328125 -39.601562 0 -40.382812 0 -41.3125 L 0.171875 -55.25 C 0.273438 -56.1875 0.613281 -56.957031 1.1875 -57.5625 C 1.769531 -58.164062 2.5 -58.46875 3.375 -58.46875 L 39 -58.71875 C 39.9375 -58.71875 40.722656 -58.382812 41.359375 -57.71875 C 41.992188 -57.0625 42.28125 -56.269531 42.21875 -55.34375 L 41.8125 -41.234375 C 41.644531 -39.367188 40.628906 -38.351562 38.765625 -38.1875 L 32.078125 -38.1875 L 32.25 -3.375 C 32.351562 -2.445312 32.050781 -1.679688 31.34375 -1.078125 C 30.625 -0.410156 29.851562 -0.078125 29.03125 -0.078125 Z M 13.1875 0 "/></g></g></g><g fill="#ff5991" fill-opacity="1"><g transform="translate(140.046542, 69.953534)"><g><path d="M 2.890625 0.25 C 1.835938 0.25 1.039062 -0.191406 0.5 -1.078125 C 0.113281 -1.734375 -0.0351562 -2.253906 0.046875 -2.640625 C 0.128906 -3.023438 0.25 -3.710938 0.40625 -4.703125 L 12.625 -55.5 C 12.84375 -56.320312 13.179688 -57.0625 13.640625 -57.71875 C 14.109375 -58.382812 14.726562 -58.71875 15.5 -58.71875 L 36.203125 -58.71875 C 36.972656 -58.71875 37.59375 -58.382812 38.0625 -57.71875 C 38.53125 -57.0625 38.875 -56.320312 39.09375 -55.5 L 51.296875 -4.703125 C 51.460938 -3.710938 51.597656 -3.023438 51.703125 -2.640625 C 51.816406 -2.253906 51.65625 -1.734375 51.21875 -1.078125 C 50.664062 -0.191406 49.867188 0.25 48.828125 0.25 C 44.753906 0.25 41.585938 0.257812 39.328125 0.28125 C 37.078125 0.3125 35.457031 0.226562 34.46875 0.03125 C 33.476562 -0.15625 32.816406 -0.59375 32.484375 -1.28125 C 32.160156 -1.96875 31.859375 -3.050781 31.578125 -4.53125 L 31.09375 -7.09375 L 20.609375 -7.09375 L 20.125 -4.53125 C 19.84375 -3.050781 19.535156 -1.96875 19.203125 -1.28125 C 18.878906 -0.59375 18.222656 -0.15625 17.234375 0.03125 C 16.242188 0.226562 14.617188 0.3125 12.359375 0.28125 C 10.109375 0.257812 6.953125 0.25 2.890625 0.25 Z M 23.421875 -23.015625 L 28.28125 -23.015625 L 25.890625 -36.703125 Z M 23.421875 -23.015625 "/></g></g></g><g fill="#ff5991" fill-opacity="1"><g transform="translate(195.044276, 69.953534)"><g><path d="M 13.1875 0 C 12.3125 0 11.570312 -0.300781 10.96875 -0.90625 C 10.363281 -1.507812 10.0625 -2.28125 10.0625 -3.21875 L 10.46875 -38.09375 L 3.296875 -38.09375 C 2.421875 -38.039062 1.648438 -38.332031 0.984375 -38.96875 C 0.328125 -39.601562 0 -40.382812 0 -41.3125 L 0.171875 -55.25 C 0.273438 -56.1875 0.613281 -56.957031 1.1875 -57.5625 C 1.769531 -58.164062 2.5 -58.46875 3.375 -58.46875 L 39 -58.71875 C 39.9375 -58.71875 40.722656 -58.382812 41.359375 -57.71875 C 41.992188 -57.0625 42.28125 -56.269531 42.21875 -55.34375 L 41.8125 -41.234375 C 41.644531 -39.367188 40.628906 -38.351562 38.765625 -38.1875 L 32.078125 -38.1875 L 32.25 -3.375 C 32.351562 -2.445312 32.050781 -1.679688 31.34375 -1.078125 C 30.625 -0.410156 29.851562 -0.078125 29.03125 -0.078125 Z M 13.1875 0 "/></g></g></g><g fill="#ff5991" fill-opacity="1"><g transform="translate(240.559635, 69.953534)"><g><path d="M 18.140625 0 L 3.140625 0 C 2.304688 0 1.570312 -0.328125 0.9375 -0.984375 C 0.3125 -1.648438 0 -2.394531 0 -3.21875 L 0.171875 -54.59375 C 0.171875 -55.53125 0.472656 -56.300781 1.078125 -56.90625 C 1.679688 -57.507812 2.421875 -57.8125 3.296875 -57.8125 L 19.125 -57.734375 C 19.957031 -57.734375 20.71875 -57.414062 21.40625 -56.78125 C 22.09375 -56.144531 22.40625 -55.359375 22.34375 -54.421875 L 21.359375 -3.21875 C 21.359375 -2.332031 21.039062 -1.570312 20.40625 -0.9375 C 19.78125 -0.3125 19.023438 0 18.140625 0 Z M 18.140625 0 "/></g></g></g><g fill="#ff5991" fill-opacity="1"><g transform="translate(266.20326, 69.953534)"><g><path d="M 2.890625 0.828125 C 2.003906 0.609375 1.410156 0.15625 1.109375 -0.53125 C 0.804688 -1.21875 0.65625 -2.054688 0.65625 -3.046875 L 0.65625 -15.25 C 0.65625 -16.300781 1.175781 -17.019531 2.21875 -17.40625 C 3.269531 -17.789062 4.578125 -17.992188 6.140625 -18.015625 C 7.710938 -18.046875 9.304688 -18.003906 10.921875 -17.890625 C 12.546875 -17.785156 13.910156 -17.757812 15.015625 -17.8125 C 16.878906 -17.925781 18.140625 -18.363281 18.796875 -19.125 C 19.460938 -19.894531 19.503906 -20.789062 18.921875 -21.8125 C 18.347656 -22.832031 17.125 -23.671875 15.25 -24.328125 C 11.738281 -25.648438 8.851562 -27.007812 6.59375 -28.40625 C 4.34375 -29.8125 2.679688 -31.445312 1.609375 -33.3125 C 0.535156 -35.1875 0 -37.441406 0 -40.078125 C 0 -43.046875 0.425781 -45.722656 1.28125 -48.109375 C 2.132812 -50.503906 3.710938 -52.609375 6.015625 -54.421875 C 7.554688 -55.640625 9.34375 -56.550781 11.375 -57.15625 C 13.414062 -57.757812 15.546875 -58.171875 17.765625 -58.390625 C 19.992188 -58.609375 22.097656 -58.742188 24.078125 -58.796875 C 25.015625 -58.847656 26.40625 -58.875 28.25 -58.875 C 30.09375 -58.875 32.015625 -58.816406 34.015625 -58.703125 C 36.023438 -58.597656 37.8125 -58.421875 39.375 -58.171875 C 40.945312 -57.929688 41.925781 -57.59375 42.3125 -57.15625 C 42.632812 -56.769531 42.847656 -56.191406 42.953125 -55.421875 C 43.066406 -54.648438 43.109375 -53.328125 43.078125 -51.453125 C 43.054688 -49.585938 43.019531 -46.734375 42.96875 -42.890625 C 42.96875 -40.910156 41.785156 -39.921875 39.421875 -39.921875 C 38.148438 -39.921875 36.734375 -39.957031 35.171875 -40.03125 C 33.609375 -40.113281 32.109375 -40.15625 30.671875 -40.15625 C 29.242188 -40.15625 28.144531 -39.960938 27.375 -39.578125 C 26.0625 -38.972656 25.304688 -38.078125 25.109375 -36.890625 C 24.921875 -35.710938 25.675781 -34.6875 27.375 -33.8125 C 28.363281 -33.3125 29.585938 -32.785156 31.046875 -32.234375 C 32.503906 -31.691406 33.921875 -31.117188 35.296875 -30.515625 C 39.253906 -28.640625 41.972656 -26.082031 43.453125 -22.84375 C 44.941406 -19.601562 45.21875 -16.03125 44.28125 -12.125 C 43.894531 -10.414062 43.257812 -8.765625 42.375 -7.171875 C 41.5 -5.578125 40.347656 -4.203125 38.921875 -3.046875 C 36.941406 -1.453125 34.164062 -0.328125 30.59375 0.328125 C 27.019531 0.984375 22.882812 1.296875 18.1875 1.265625 C 13.488281 1.242188 8.390625 1.097656 2.890625 0.828125 Z M 2.890625 0.828125 "/></g></g></g><g fill="#ff5991" fill-opacity="1"><g transform="translate(314.35719, 69.953534)"><g><path d="M 13.1875 0 C 12.3125 0 11.570312 -0.300781 10.96875 -0.90625 C 10.363281 -1.507812 10.0625 -2.28125 10.0625 -3.21875 L 10.46875 -38.09375 L 3.296875 -38.09375 C 2.421875 -38.039062 1.648438 -38.332031 0.984375 -38.96875 C 0.328125 -39.601562 0 -40.382812 0 -41.3125 L 0.171875 -55.25 C 0.273438 -56.1875 0.613281 -56.957031 1.1875 -57.5625 C 1.769531 -58.164062 2.5 -58.46875 3.375 -58.46875 L 39 -58.71875 C 39.9375 -58.71875 40.722656 -58.382812 41.359375 -57.71875 C 41.992188 -57.0625 42.28125 -56.269531 42.21875 -55.34375 L 41.8125 -41.234375 C 41.644531 -39.367188 40.628906 -38.351562 38.765625 -38.1875 L 32.078125 -38.1875 L 32.25 -3.375 C 32.351562 -2.445312 32.050781 -1.679688 31.34375 -1.078125 C 30.625 -0.410156 29.851562 -0.078125 29.03125 -0.078125 Z M 13.1875 0 "/></g></g></g><g fill="#ff5991" fill-opacity="1"><g transform="translate(359.872549, 69.953534)"><g><path d="M 18.140625 0 L 3.140625 0 C 2.304688 0 1.570312 -0.328125 0.9375 -0.984375 C 0.3125 -1.648438 0 -2.394531 0 -3.21875 L 0.171875 -54.59375 C 0.171875 -55.53125 0.472656 -56.300781 1.078125 -56.90625 C 1.679688 -57.507812 2.421875 -57.8125 3.296875 -57.8125 L 19.125 -57.734375 C 19.957031 -57.734375 20.71875 -57.414062 21.40625 -56.78125 C 22.09375 -56.144531 22.40625 -55.359375 22.34375 -54.421875 L 21.359375 -3.21875 C 21.359375 -2.332031 21.039062 -1.570312 20.40625 -0.9375 C 19.78125 -0.3125 19.023438 0 18.140625 0 Z M 18.140625 0 "/></g></g></g><g fill="#ff5991" fill-opacity="1"><g transform="translate(385.516174, 69.953534)"><g><path d="M 33.734375 0.5 C 30.378906 1.375 26.941406 1.644531 23.421875 1.3125 C 19.898438 0.988281 16.597656 0.046875 13.515625 -1.515625 C 10.441406 -3.085938 7.890625 -5.222656 5.859375 -7.921875 C 4.097656 -10.335938 2.734375 -13.125 1.765625 -16.28125 C 0.804688 -19.445312 0.242188 -22.785156 0.078125 -26.296875 C -0.0859375 -29.816406 0.078125 -33.285156 0.578125 -36.703125 C 1.515625 -42.421875 3.46875 -47.257812 6.4375 -51.21875 C 9.40625 -55.175781 13.113281 -57.921875 17.5625 -59.453125 C 22.019531 -60.992188 26.941406 -60.992188 32.328125 -59.453125 C 35.898438 -58.523438 38.6875 -57.148438 40.6875 -55.328125 C 42.695312 -53.515625 44.140625 -51.484375 45.015625 -49.234375 C 45.898438 -46.984375 46.425781 -44.703125 46.59375 -42.390625 C 46.757812 -40.078125 46.785156 -37.957031 46.671875 -36.03125 C 46.617188 -34.382812 45.628906 -33.425781 43.703125 -33.15625 L 32 -32.828125 C 31.113281 -32.710938 30.34375 -32.941406 29.6875 -33.515625 C 29.03125 -34.097656 28.671875 -34.828125 28.609375 -35.703125 C 28.609375 -36.035156 28.566406 -36.628906 28.484375 -37.484375 C 28.410156 -38.335938 28.234375 -39.203125 27.953125 -40.078125 C 27.679688 -40.960938 27.242188 -41.566406 26.640625 -41.890625 C 24.878906 -42.660156 23.546875 -42.507812 22.640625 -41.4375 C 21.734375 -40.363281 21.113281 -38.671875 20.78125 -36.359375 C 20.445312 -34.054688 20.28125 -31.421875 20.28125 -28.453125 L 20.28125 -28.046875 C 20.34375 -23.703125 21.003906 -20.507812 22.265625 -18.46875 C 23.523438 -16.4375 25.453125 -15.972656 28.046875 -17.078125 C 28.648438 -17.398438 29.070312 -17.988281 29.3125 -18.84375 C 29.5625 -19.695312 29.726562 -20.5625 29.8125 -21.4375 C 29.894531 -22.320312 29.9375 -22.957031 29.9375 -23.34375 C 29.988281 -24.164062 30.34375 -24.863281 31 -25.4375 C 31.664062 -26.019531 32.4375 -26.253906 33.3125 -26.140625 L 45.03125 -25.8125 C 47.007812 -25.539062 48.023438 -24.550781 48.078125 -22.84375 C 48.191406 -20.976562 48.148438 -18.898438 47.953125 -16.609375 C 47.765625 -14.328125 47.226562 -12.0625 46.34375 -9.8125 C 45.46875 -7.5625 44.039062 -5.523438 42.0625 -3.703125 C 40.082031 -1.890625 37.304688 -0.488281 33.734375 0.5 Z M 33.734375 0.5 "/></g></g></g><g fill="#ff5991" fill-opacity="1"><g transform="translate(436.968334, 69.953534)"><g><path d="M 2.890625 0.25 C 1.835938 0.25 1.039062 -0.191406 0.5 -1.078125 C 0.113281 -1.734375 -0.0351562 -2.253906 0.046875 -2.640625 C 0.128906 -3.023438 0.25 -3.710938 0.40625 -4.703125 L 12.625 -55.5 C 12.84375 -56.320312 13.179688 -57.0625 13.640625 -57.71875 C 14.109375 -58.382812 14.726562 -58.71875 15.5 -58.71875 L 36.203125 -58.71875 C 36.972656 -58.71875 37.59375 -58.382812 38.0625 -57.71875 C 38.53125 -57.0625 38.875 -56.320312 39.09375 -55.5 L 51.296875 -4.703125 C 51.460938 -3.710938 51.597656 -3.023438 51.703125 -2.640625 C 51.816406 -2.253906 51.65625 -1.734375 51.21875 -1.078125 C 50.664062 -0.191406 49.867188 0.25 48.828125 0.25 C 44.753906 0.25 41.585938 0.257812 39.328125 0.28125 C 37.078125 0.3125 35.457031 0.226562 34.46875 0.03125 C 33.476562 -0.15625 32.816406 -0.59375 32.484375 -1.28125 C 32.160156 -1.96875 31.859375 -3.050781 31.578125 -4.53125 L 31.09375 -7.09375 L 20.609375 -7.09375 L 20.125 -4.53125 C 19.84375 -3.050781 19.535156 -1.96875 19.203125 -1.28125 C 18.878906 -0.59375 18.222656 -0.15625 17.234375 0.03125 C 16.242188 0.226562 14.617188 0.3125 12.359375 0.28125 C 10.109375 0.257812 6.953125 0.25 2.890625 0.25 Z M 23.421875 -23.015625 L 28.28125 -23.015625 L 25.890625 -36.703125 Z M 23.421875 -23.015625 "/></g></g></g><g fill="#ff5991" fill-opacity="1"><g transform="translate(491.966046, 69.953534)"><g><path d="M 2.890625 0.828125 C 2.003906 0.609375 1.410156 0.15625 1.109375 -0.53125 C 0.804688 -1.21875 0.65625 -2.054688 0.65625 -3.046875 L 0.65625 -15.25 C 0.65625 -16.300781 1.175781 -17.019531 2.21875 -17.40625 C 3.269531 -17.789062 4.578125 -17.992188 6.140625 -18.015625 C 7.710938 -18.046875 9.304688 -18.003906 10.921875 -17.890625 C 12.546875 -17.785156 13.910156 -17.757812 15.015625 -17.8125 C 16.878906 -17.925781 18.140625 -18.363281 18.796875 -19.125 C 19.460938 -19.894531 19.503906 -20.789062 18.921875 -21.8125 C 18.347656 -22.832031 17.125 -23.671875 15.25 -24.328125 C 11.738281 -25.648438 8.851562 -27.007812 6.59375 -28.40625 C 4.34375 -29.8125 2.679688 -31.445312 1.609375 -33.3125 C 0.535156 -35.1875 0 -37.441406 0 -40.078125 C 0 -43.046875 0.425781 -45.722656 1.28125 -48.109375 C 2.132812 -50.503906 3.710938 -52.609375 6.015625 -54.421875 C 7.554688 -55.640625 9.34375 -56.550781 11.375 -57.15625 C 13.414062 -57.757812 15.546875 -58.171875 17.765625 -58.390625 C 19.992188 -58.609375 22.097656 -58.742188 24.078125 -58.796875 C 25.015625 -58.847656 26.40625 -58.875 28.25 -58.875 C 30.09375 -58.875 32.015625 -58.816406 34.015625 -58.703125 C 36.023438 -58.597656 37.8125 -58.421875 39.375 -58.171875 C 40.945312 -57.929688 41.925781 -57.59375 42.3125 -57.15625 C 42.632812 -56.769531 42.847656 -56.191406 42.953125 -55.421875 C 43.066406 -54.648438 43.109375 -53.328125 43.078125 -51.453125 C 43.054688 -49.585938 43.019531 -46.734375 42.96875 -42.890625 C 42.96875 -40.910156 41.785156 -39.921875 39.421875 -39.921875 C 38.148438 -39.921875 36.734375 -39.957031 35.171875 -40.03125 C 33.609375 -40.113281 32.109375 -40.15625 30.671875 -40.15625 C 29.242188 -40.15625 28.144531 -39.960938 27.375 -39.578125 C 26.0625 -38.972656 25.304688 -38.078125 25.109375 -36.890625 C 24.921875 -35.710938 25.675781 -34.6875 27.375 -33.8125 C 28.363281 -33.3125 29.585938 -32.785156 31.046875 -32.234375 C 32.503906 -31.691406 33.921875 -31.117188 35.296875 -30.515625 C 39.253906 -28.640625 41.972656 -26.082031 43.453125 -22.84375 C 44.941406 -19.601562 45.21875 -16.03125 44.28125 -12.125 C 43.894531 -10.414062 43.257812 -8.765625 42.375 -7.171875 C 41.5 -5.578125 40.347656 -4.203125 38.921875 -3.046875 C 36.941406 -1.453125 34.164062 -0.328125 30.59375 0.328125 C 27.019531 0.984375 22.882812 1.296875 18.1875 1.265625 C 13.488281 1.242188 8.390625 1.097656 2.890625 0.828125 Z M 2.890625 0.828125 "/></g></g></g><g fill="#ffffff" fill-opacity="1"><g transform="translate(1.504555, 66.308522)"><g><path d="M 2.96875 0 C 2.25 0 1.585938 -0.300781 0.984375 -0.90625 C 0.441406 -1.457031 0.171875 -2.226562 0.171875 -3.21875 L 0 -55.421875 C 0 -56.191406 0.300781 -56.929688 0.90625 -57.640625 C 1.507812 -58.304688 2.140625 -58.640625 2.796875 -58.640625 L 34.71875 -58.546875 C 35.65625 -58.546875 36.425781 -58.273438 37.03125 -57.734375 C 37.632812 -57.128906 37.9375 -56.441406 37.9375 -55.671875 L 37.9375 -43.375 C 37.9375 -42.71875 37.609375 -42.085938 36.953125 -41.484375 C 36.335938 -40.984375 35.59375 -40.679688 34.71875 -40.578125 L 19.125 -39.828125 L 19.296875 -35.703125 L 28.203125 -35.625 C 28.921875 -35.625 29.550781 -35.429688 30.09375 -35.046875 C 30.644531 -34.660156 30.894531 -34.140625 30.84375 -33.484375 L 30.4375 -24.65625 C 30.4375 -24.101562 30.160156 -23.632812 29.609375 -23.25 C 29.109375 -22.925781 28.503906 -22.707031 27.796875 -22.59375 L 19.625 -22.1875 L 19.796875 -18.890625 L 34.71875 -18.21875 C 35.59375 -18.113281 36.335938 -17.8125 36.953125 -17.3125 C 37.609375 -16.769531 37.9375 -16.140625 37.9375 -15.421875 L 37.9375 -3.140625 C 37.9375 -2.367188 37.632812 -1.679688 37.03125 -1.078125 C 36.425781 -0.523438 35.65625 -0.25 34.71875 -0.25 L 12.703125 0 C 12.585938 0 12.445312 0 12.28125 0 C 12.125 0 11.988281 -0.0234375 11.875 -0.078125 Z M 2.96875 0 "/></g></g></g><g fill="#ffffff" fill-opacity="1"><g transform="translate(42.732248, 66.308522)"><g><path d="M 2.890625 0.828125 C 2.003906 0.609375 1.410156 0.15625 1.109375 -0.53125 C 0.804688 -1.21875 0.65625 -2.054688 0.65625 -3.046875 L 0.65625 -15.25 C 0.65625 -16.300781 1.175781 -17.019531 2.21875 -17.40625 C 3.269531 -17.789062 4.578125 -17.992188 6.140625 -18.015625 C 7.710938 -18.046875 9.304688 -18.003906 10.921875 -17.890625 C 12.546875 -17.785156 13.910156 -17.757812 15.015625 -17.8125 C 16.878906 -17.925781 18.140625 -18.363281 18.796875 -19.125 C 19.460938 -19.894531 19.503906 -20.789062 18.921875 -21.8125 C 18.347656 -22.832031 17.125 -23.671875 15.25 -24.328125 C 11.738281 -25.648438 8.851562 -27.007812 6.59375 -28.40625 C 4.34375 -29.8125 2.679688 -31.445312 1.609375 -33.3125 C 0.535156 -35.1875 0 -37.441406 0 -40.078125 C 0 -43.046875 0.425781 -45.722656 1.28125 -48.109375 C 2.132812 -50.503906 3.710938 -52.609375 6.015625 -54.421875 C 7.554688 -55.640625 9.34375 -56.550781 11.375 -57.15625 C 13.414062 -57.757812 15.546875 -58.171875 17.765625 -58.390625 C 19.992188 -58.609375 22.097656 -58.742188 24.078125 -58.796875 C 25.015625 -58.847656 26.40625 -58.875 28.25 -58.875 C 30.09375 -58.875 32.015625 -58.816406 34.015625 -58.703125 C 36.023438 -58.597656 37.8125 -58.421875 39.375 -58.171875 C 40.945312 -57.929688 41.925781 -57.59375 42.3125 -57.15625 C 42.632812 -56.769531 42.847656 -56.191406 42.953125 -55.421875 C 43.066406 -54.648438 43.109375 -53.328125 43.078125 -51.453125 C 43.054688 -49.585938 43.019531 -46.734375 42.96875 -42.890625 C 42.96875 -40.910156 41.785156 -39.921875 39.421875 -39.921875 C 38.148438 -39.921875 36.734375 -39.957031 35.171875 -40.03125 C 33.609375 -40.113281 32.109375 -40.15625 30.671875 -40.15625 C 29.242188 -40.15625 28.144531 -39.960938 27.375 -39.578125 C 26.0625 -38.972656 25.304688 -38.078125 25.109375 -36.890625 C 24.921875 -35.710938 25.675781 -34.6875 27.375 -33.8125 C 28.363281 -33.3125 29.585938 -32.785156 31.046875 -32.234375 C 32.503906 -31.691406 33.921875 -31.117188 35.296875 -30.515625 C 39.253906 -28.640625 41.972656 -26.082031 43.453125 -22.84375 C 44.941406 -19.601562 45.21875 -16.03125 44.28125 -12.125 C 43.894531 -10.414062 43.257812 -8.765625 42.375 -7.171875 C 41.5 -5.578125 40.347656 -4.203125 38.921875 -3.046875 C 36.941406 -1.453125 34.164062 -0.328125 30.59375 0.328125 C 27.019531 0.984375 22.882812 1.296875 18.1875 1.265625 C 13.488281 1.242188 8.390625 1.097656 2.890625 0.828125 Z M 2.890625 0.828125 "/></g></g></g><g fill="#ffffff" fill-opacity="1"><g transform="translate(90.886179, 66.308522)"><g><path d="M 13.1875 0 C 12.3125 0 11.570312 -0.300781 10.96875 -0.90625 C 10.363281 -1.507812 10.0625 -2.28125 10.0625 -3.21875 L 10.46875 -38.09375 L 3.296875 -38.09375 C 2.421875 -38.039062 1.648438 -38.332031 0.984375 -38.96875 C 0.328125 -39.601562 0 -40.382812 0 -41.3125 L 0.171875 -55.25 C 0.273438 -56.1875 0.613281 -56.957031 1.1875 -57.5625 C 1.769531 -58.164062 2.5 -58.46875 3.375 -58.46875 L 39 -58.71875 C 39.9375 -58.71875 40.722656 -58.382812 41.359375 -57.71875 C 41.992188 -57.0625 42.28125 -56.269531 42.21875 -55.34375 L 41.8125 -41.234375 C 41.644531 -39.367188 40.628906 -38.351562 38.765625 -38.1875 L 32.078125 -38.1875 L 32.25 -3.375 C 32.351562 -2.445312 32.050781 -1.679688 31.34375 -1.078125 C 30.625 -0.410156 29.851562 -0.078125 29.03125 -0.078125 Z M 13.1875 0 "/></g></g></g><g fill="#ffffff" fill-opacity="1"><g transform="translate(136.401537, 66.308522)"><g><path d="M 2.890625 0.25 C 1.835938 0.25 1.039062 -0.191406 0.5 -1.078125 C 0.113281 -1.734375 -0.0351562 -2.253906 0.046875 -2.640625 C 0.128906 -3.023438 0.25 -3.710938 0.40625 -4.703125 L 12.625 -55.5 C 12.84375 -56.320312 13.179688 -57.0625 13.640625 -57.71875 C 14.109375 -58.382812 14.726562 -58.71875 15.5 -58.71875 L 36.203125 -58.71875 C 36.972656 -58.71875 37.59375 -58.382812 38.0625 -57.71875 C 38.53125 -57.0625 38.875 -56.320312 39.09375 -55.5 L 51.296875 -4.703125 C 51.460938 -3.710938 51.597656 -3.023438 51.703125 -2.640625 C 51.816406 -2.253906 51.65625 -1.734375 51.21875 -1.078125 C 50.664062 -0.191406 49.867188 0.25 48.828125 0.25 C 44.753906 0.25 41.585938 0.257812 39.328125 0.28125 C 37.078125 0.3125 35.457031 0.226562 34.46875 0.03125 C 33.476562 -0.15625 32.816406 -0.59375 32.484375 -1.28125 C 32.160156 -1.96875 31.859375 -3.050781 31.578125 -4.53125 L 31.09375 -7.09375 L 20.609375 -7.09375 L 20.125 -4.53125 C 19.84375 -3.050781 19.535156 -1.96875 19.203125 -1.28125 C 18.878906 -0.59375 18.222656 -0.15625 17.234375 0.03125 C 16.242188 0.226562 14.617188 0.3125 12.359375 0.28125 C 10.109375 0.257812 6.953125 0.25 2.890625 0.25 Z M 23.421875 -23.015625 L 28.28125 -23.015625 L 25.890625 -36.703125 Z M 23.421875 -23.015625 "/></g></g></g><g fill="#ffffff" fill-opacity="1"><g transform="translate(191.399271, 66.308522)"><g><path d="M 13.1875 0 C 12.3125 0 11.570312 -0.300781 10.96875 -0.90625 C 10.363281 -1.507812 10.0625 -2.28125 10.0625 -3.21875 L 10.46875 -38.09375 L 3.296875 -38.09375 C 2.421875 -38.039062 1.648438 -38.332031 0.984375 -38.96875 C 0.328125 -39.601562 0 -40.382812 0 -41.3125 L 0.171875 -55.25 C 0.273438 -56.1875 0.613281 -56.957031 1.1875 -57.5625 C 1.769531 -58.164062 2.5 -58.46875 3.375 -58.46875 L 39 -58.71875 C 39.9375 -58.71875 40.722656 -58.382812 41.359375 -57.71875 C 41.992188 -57.0625 42.28125 -56.269531 42.21875 -55.34375 L 41.8125 -41.234375 C 41.644531 -39.367188 40.628906 -38.351562 38.765625 -38.1875 L 32.078125 -38.1875 L 32.25 -3.375 C 32.351562 -2.445312 32.050781 -1.679688 31.34375 -1.078125 C 30.625 -0.410156 29.851562 -0.078125 29.03125 -0.078125 Z M 13.1875 0 "/></g></g></g><g fill="#ffffff" fill-opacity="1"><g transform="translate(236.914629, 66.308522)"><g><path d="M 18.140625 0 L 3.140625 0 C 2.304688 0 1.570312 -0.328125 0.9375 -0.984375 C 0.3125 -1.648438 0 -2.394531 0 -3.21875 L 0.171875 -54.59375 C 0.171875 -55.53125 0.472656 -56.300781 1.078125 -56.90625 C 1.679688 -57.507812 2.421875 -57.8125 3.296875 -57.8125 L 19.125 -57.734375 C 19.957031 -57.734375 20.71875 -57.414062 21.40625 -56.78125 C 22.09375 -56.144531 22.40625 -55.359375 22.34375 -54.421875 L 21.359375 -3.21875 C 21.359375 -2.332031 21.039062 -1.570312 20.40625 -0.9375 C 19.78125 -0.3125 19.023438 0 18.140625 0 Z M 18.140625 0 "/></g></g></g><g fill="#ffffff" fill-opacity="1"><g transform="translate(262.558255, 66.308522)"><g><path d="M 2.890625 0.828125 C 2.003906 0.609375 1.410156 0.15625 1.109375 -0.53125 C 0.804688 -1.21875 0.65625 -2.054688 0.65625 -3.046875 L 0.65625 -15.25 C 0.65625 -16.300781 1.175781 -17.019531 2.21875 -17.40625 C 3.269531 -17.789062 4.578125 -17.992188 6.140625 -18.015625 C 7.710938 -18.046875 9.304688 -18.003906 10.921875 -17.890625 C 12.546875 -17.785156 13.910156 -17.757812 15.015625 -17.8125 C 16.878906 -17.925781 18.140625 -18.363281 18.796875 -19.125 C 19.460938 -19.894531 19.503906 -20.789062 18.921875 -21.8125 C 18.347656 -22.832031 17.125 -23.671875 15.25 -24.328125 C 11.738281 -25.648438 8.851562 -27.007812 6.59375 -28.40625 C 4.34375 -29.8125 2.679688 -31.445312 1.609375 -33.3125 C 0.535156 -35.1875 0 -37.441406 0 -40.078125 C 0 -43.046875 0.425781 -45.722656 1.28125 -48.109375 C 2.132812 -50.503906 3.710938 -52.609375 6.015625 -54.421875 C 7.554688 -55.640625 9.34375 -56.550781 11.375 -57.15625 C 13.414062 -57.757812 15.546875 -58.171875 17.765625 -58.390625 C 19.992188 -58.609375 22.097656 -58.742188 24.078125 -58.796875 C 25.015625 -58.847656 26.40625 -58.875 28.25 -58.875 C 30.09375 -58.875 32.015625 -58.816406 34.015625 -58.703125 C 36.023438 -58.597656 37.8125 -58.421875 39.375 -58.171875 C 40.945312 -57.929688 41.925781 -57.59375 42.3125 -57.15625 C 42.632812 -56.769531 42.847656 -56.191406 42.953125 -55.421875 C 43.066406 -54.648438 43.109375 -53.328125 43.078125 -51.453125 C 43.054688 -49.585938 43.019531 -46.734375 42.96875 -42.890625 C 42.96875 -40.910156 41.785156 -39.921875 39.421875 -39.921875 C 38.148438 -39.921875 36.734375 -39.957031 35.171875 -40.03125 C 33.609375 -40.113281 32.109375 -40.15625 30.671875 -40.15625 C 29.242188 -40.15625 28.144531 -39.960938 27.375 -39.578125 C 26.0625 -38.972656 25.304688 -38.078125 25.109375 -36.890625 C 24.921875 -35.710938 25.675781 -34.6875 27.375 -33.8125 C 28.363281 -33.3125 29.585938 -32.785156 31.046875 -32.234375 C 32.503906 -31.691406 33.921875 -31.117188 35.296875 -30.515625 C 39.253906 -28.640625 41.972656 -26.082031 43.453125 -22.84375 C 44.941406 -19.601562 45.21875 -16.03125 44.28125 -12.125 C 43.894531 -10.414062 43.257812 -8.765625 42.375 -7.171875 C 41.5 -5.578125 40.347656 -4.203125 38.921875 -3.046875 C 36.941406 -1.453125 34.164062 -0.328125 30.59375 0.328125 C 27.019531 0.984375 22.882812 1.296875 18.1875 1.265625 C 13.488281 1.242188 8.390625 1.097656 2.890625 0.828125 Z M 2.890625 0.828125 "/></g></g></g><g fill="#ffffff" fill-opacity="1"><g transform="translate(310.712185, 66.308522)"><g><path d="M 13.1875 0 C 12.3125 0 11.570312 -0.300781 10.96875 -0.90625 C 10.363281 -1.507812 10.0625 -2.28125 10.0625 -3.21875 L 10.46875 -38.09375 L 3.296875 -38.09375 C 2.421875 -38.039062 1.648438 -38.332031 0.984375 -38.96875 C 0.328125 -39.601562 0 -40.382812 0 -41.3125 L 0.171875 -55.25 C 0.273438 -56.1875 0.613281 -56.957031 1.1875 -57.5625 C 1.769531 -58.164062 2.5 -58.46875 3.375 -58.46875 L 39 -58.71875 C 39.9375 -58.71875 40.722656 -58.382812 41.359375 -57.71875 C 41.992188 -57.0625 42.28125 -56.269531 42.21875 -55.34375 L 41.8125 -41.234375 C 41.644531 -39.367188 40.628906 -38.351562 38.765625 -38.1875 L 32.078125 -38.1875 L 32.25 -3.375 C 32.351562 -2.445312 32.050781 -1.679688 31.34375 -1.078125 C 30.625 -0.410156 29.851562 -0.078125 29.03125 -0.078125 Z M 13.1875 0 "/></g></g></g><g fill="#ffffff" fill-opacity="1"><g transform="translate(356.227543, 66.308522)"><g><path d="M 18.140625 0 L 3.140625 0 C 2.304688 0 1.570312 -0.328125 0.9375 -0.984375 C 0.3125 -1.648438 0 -2.394531 0 -3.21875 L 0.171875 -54.59375 C 0.171875 -55.53125 0.472656 -56.300781 1.078125 -56.90625 C 1.679688 -57.507812 2.421875 -57.8125 3.296875 -57.8125 L 19.125 -57.734375 C 19.957031 -57.734375 20.71875 -57.414062 21.40625 -56.78125 C 22.09375 -56.144531 22.40625 -55.359375 22.34375 -54.421875 L 21.359375 -3.21875 C 21.359375 -2.332031 21.039062 -1.570312 20.40625 -0.9375 C 19.78125 -0.3125 19.023438 0 18.140625 0 Z M 18.140625 0 "/></g></g></g><g fill="#ffffff" fill-opacity="1"><g transform="translate(381.871168, 66.308522)"><g><path d="M 33.734375 0.5 C 30.378906 1.375 26.941406 1.644531 23.421875 1.3125 C 19.898438 0.988281 16.597656 0.046875 13.515625 -1.515625 C 10.441406 -3.085938 7.890625 -5.222656 5.859375 -7.921875 C 4.097656 -10.335938 2.734375 -13.125 1.765625 -16.28125 C 0.804688 -19.445312 0.242188 -22.785156 0.078125 -26.296875 C -0.0859375 -29.816406 0.078125 -33.285156 0.578125 -36.703125 C 1.515625 -42.421875 3.46875 -47.257812 6.4375 -51.21875 C 9.40625 -55.175781 13.113281 -57.921875 17.5625 -59.453125 C 22.019531 -60.992188 26.941406 -60.992188 32.328125 -59.453125 C 35.898438 -58.523438 38.6875 -57.148438 40.6875 -55.328125 C 42.695312 -53.515625 44.140625 -51.484375 45.015625 -49.234375 C 45.898438 -46.984375 46.425781 -44.703125 46.59375 -42.390625 C 46.757812 -40.078125 46.785156 -37.957031 46.671875 -36.03125 C 46.617188 -34.382812 45.628906 -33.425781 43.703125 -33.15625 L 32 -32.828125 C 31.113281 -32.710938 30.34375 -32.941406 29.6875 -33.515625 C 29.03125 -34.097656 28.671875 -34.828125 28.609375 -35.703125 C 28.609375 -36.035156 28.566406 -36.628906 28.484375 -37.484375 C 28.410156 -38.335938 28.234375 -39.203125 27.953125 -40.078125 C 27.679688 -40.960938 27.242188 -41.566406 26.640625 -41.890625 C 24.878906 -42.660156 23.546875 -42.507812 22.640625 -41.4375 C 21.734375 -40.363281 21.113281 -38.671875 20.78125 -36.359375 C 20.445312 -34.054688 20.28125 -31.421875 20.28125 -28.453125 L 20.28125 -28.046875 C 20.34375 -23.703125 21.003906 -20.507812 22.265625 -18.46875 C 23.523438 -16.4375 25.453125 -15.972656 28.046875 -17.078125 C 28.648438 -17.398438 29.070312 -17.988281 29.3125 -18.84375 C 29.5625 -19.695312 29.726562 -20.5625 29.8125 -21.4375 C 29.894531 -22.320312 29.9375 -22.957031 29.9375 -23.34375 C 29.988281 -24.164062 30.34375 -24.863281 31 -25.4375 C 31.664062 -26.019531 32.4375 -26.253906 33.3125 -26.140625 L 45.03125 -25.8125 C 47.007812 -25.539062 48.023438 -24.550781 48.078125 -22.84375 C 48.191406 -20.976562 48.148438 -18.898438 47.953125 -16.609375 C 47.765625 -14.328125 47.226562 -12.0625 46.34375 -9.8125 C 45.46875 -7.5625 44.039062 -5.523438 42.0625 -3.703125 C 40.082031 -1.890625 37.304688 -0.488281 33.734375 0.5 Z M 33.734375 0.5 "/></g></g></g><g fill="#ffffff" fill-opacity="1"><g transform="translate(433.323328, 66.308522)"><g><path d="M 2.890625 0.25 C 1.835938 0.25 1.039062 -0.191406 0.5 -1.078125 C 0.113281 -1.734375 -0.0351562 -2.253906 0.046875 -2.640625 C 0.128906 -3.023438 0.25 -3.710938 0.40625 -4.703125 L 12.625 -55.5 C 12.84375 -56.320312 13.179688 -57.0625 13.640625 -57.71875 C 14.109375 -58.382812 14.726562 -58.71875 15.5 -58.71875 L 36.203125 -58.71875 C 36.972656 -58.71875 37.59375 -58.382812 38.0625 -57.71875 C 38.53125 -57.0625 38.875 -56.320312 39.09375 -55.5 L 51.296875 -4.703125 C 51.460938 -3.710938 51.597656 -3.023438 51.703125 -2.640625 C 51.816406 -2.253906 51.65625 -1.734375 51.21875 -1.078125 C 50.664062 -0.191406 49.867188 0.25 48.828125 0.25 C 44.753906 0.25 41.585938 0.257812 39.328125 0.28125 C 37.078125 0.3125 35.457031 0.226562 34.46875 0.03125 C 33.476562 -0.15625 32.816406 -0.59375 32.484375 -1.28125 C 32.160156 -1.96875 31.859375 -3.050781 31.578125 -4.53125 L 31.09375 -7.09375 L 20.609375 -7.09375 L 20.125 -4.53125 C 19.84375 -3.050781 19.535156 -1.96875 19.203125 -1.28125 C 18.878906 -0.59375 18.222656 -0.15625 17.234375 0.03125 C 16.242188 0.226562 14.617188 0.3125 12.359375 0.28125 C 10.109375 0.257812 6.953125 0.25 2.890625 0.25 Z M 23.421875 -23.015625 L 28.28125 -23.015625 L 25.890625 -36.703125 Z M 23.421875 -23.015625 "/></g></g></g><g fill="#ffffff" fill-opacity="1"><g transform="translate(488.32104, 66.308522)"><g><path d="M 2.890625 0.828125 C 2.003906 0.609375 1.410156 0.15625 1.109375 -0.53125 C 0.804688 -1.21875 0.65625 -2.054688 0.65625 -3.046875 L 0.65625 -15.25 C 0.65625 -16.300781 1.175781 -17.019531 2.21875 -17.40625 C 3.269531 -17.789062 4.578125 -17.992188 6.140625 -18.015625 C 7.710938 -18.046875 9.304688 -18.003906 10.921875 -17.890625 C 12.546875 -17.785156 13.910156 -17.757812 15.015625 -17.8125 C 16.878906 -17.925781 18.140625 -18.363281 18.796875 -19.125 C 19.460938 -19.894531 19.503906 -20.789062 18.921875 -21.8125 C 18.347656 -22.832031 17.125 -23.671875 15.25 -24.328125 C 11.738281 -25.648438 8.851562 -27.007812 6.59375 -28.40625 C 4.34375 -29.8125 2.679688 -31.445312 1.609375 -33.3125 C 0.535156 -35.1875 0 -37.441406 0 -40.078125 C 0 -43.046875 0.425781 -45.722656 1.28125 -48.109375 C 2.132812 -50.503906 3.710938 -52.609375 6.015625 -54.421875 C 7.554688 -55.640625 9.34375 -56.550781 11.375 -57.15625 C 13.414062 -57.757812 15.546875 -58.171875 17.765625 -58.390625 C 19.992188 -58.609375 22.097656 -58.742188 24.078125 -58.796875 C 25.015625 -58.847656 26.40625 -58.875 28.25 -58.875 C 30.09375 -58.875 32.015625 -58.816406 34.015625 -58.703125 C 36.023438 -58.597656 37.8125 -58.421875 39.375 -58.171875 C 40.945312 -57.929688 41.925781 -57.59375 42.3125 -57.15625 C 42.632812 -56.769531 42.847656 -56.191406 42.953125 -55.421875 C 43.066406 -54.648438 43.109375 -53.328125 43.078125 -51.453125 C 43.054688 -49.585938 43.019531 -46.734375 42.96875 -42.890625 C 42.96875 -40.910156 41.785156 -39.921875 39.421875 -39.921875 C 38.148438 -39.921875 36.734375 -39.957031 35.171875 -40.03125 C 33.609375 -40.113281 32.109375 -40.15625 30.671875 -40.15625 C 29.242188 -40.15625 28.144531 -39.960938 27.375 -39.578125 C 26.0625 -38.972656 25.304688 -38.078125 25.109375 -36.890625 C 24.921875 -35.710938 25.675781 -34.6875 27.375 -33.8125 C 28.363281 -33.3125 29.585938 -32.785156 31.046875 -32.234375 C 32.503906 -31.691406 33.921875 -31.117188 35.296875 -30.515625 C 39.253906 -28.640625 41.972656 -26.082031 43.453125 -22.84375 C 44.941406 -19.601562 45.21875 -16.03125 44.28125 -12.125 C 43.894531 -10.414062 43.257812 -8.765625 42.375 -7.171875 C 41.5 -5.578125 40.347656 -4.203125 38.921875 -3.046875 C 36.941406 -1.453125 34.164062 -0.328125 30.59375 0.328125 C 27.019531 0.984375 22.882812 1.296875 18.1875 1.265625 C 13.488281 1.242188 8.390625 1.097656 2.890625 0.828125 Z M 2.890625 0.828125 "/></g></g></g></g></g></svg>