<svg xmlns="http://www.w3.org/2000/svg" xmlns:xlink="http://www.w3.org/1999/xlink" width="1200" zoomAndPan="magnify" viewBox="0 0 900 307.91998" height="400" preserveAspectRatio="xMidYMid meet" version="1.0"><defs><g/><clipPath id="607b403dd0"><path d="M 15.636719 95.949219 L 895.691406 95.949219 L 895.691406 222.804688 L 15.636719 222.804688 Z M 15.636719 95.949219 " clip-rule="nonzero"/></clipPath><clipPath id="a072991857"><path d="M 32.507812 95.949219 L 878.511719 95.949219 C 882.988281 95.949219 887.277344 97.726562 890.441406 100.890625 C 893.605469 104.054688 895.382812 108.347656 895.382812 112.820312 L 895.382812 205.933594 C 895.382812 210.410156 893.605469 214.699219 890.441406 217.863281 C 887.277344 221.027344 882.988281 222.804688 878.511719 222.804688 L 32.507812 222.804688 C 28.03125 222.804688 23.742188 221.027344 20.578125 217.863281 C 17.414062 214.699219 15.636719 210.410156 15.636719 205.933594 L 15.636719 112.820312 C 15.636719 108.347656 17.414062 104.054688 20.578125 100.890625 C 23.742188 97.726562 28.03125 95.949219 32.507812 95.949219 Z M 32.507812 95.949219 " clip-rule="nonzero"/></clipPath><clipPath id="1d6c8b53e8"><path d="M 0.636719 0.949219 L 880.5625 0.949219 L 880.5625 127.804688 L 0.636719 127.804688 Z M 0.636719 0.949219 " clip-rule="nonzero"/></clipPath><clipPath id="64d0a023d9"><path d="M 17.507812 0.949219 L 863.511719 0.949219 C 867.988281 0.949219 872.277344 2.726562 875.441406 5.890625 C 878.605469 9.054688 880.382812 13.347656 880.382812 17.820312 L 880.382812 110.933594 C 880.382812 115.410156 878.605469 119.699219 875.441406 122.863281 C 872.277344 126.027344 867.988281 127.804688 863.511719 127.804688 L 17.507812 127.804688 C 13.03125 127.804688 8.742188 126.027344 5.578125 122.863281 C 2.414062 119.699219 0.636719 115.410156 0.636719 110.933594 L 0.636719 17.820312 C 0.636719 13.347656 2.414062 9.054688 5.578125 5.890625 C 8.742188 2.726562 13.03125 0.949219 17.507812 0.949219 Z M 17.507812 0.949219 " clip-rule="nonzero"/></clipPath><clipPath id="d43f0d9dba"><rect x="0" width="881" y="0" height="128"/></clipPath><clipPath id="0a42c1e86e"><path d="M 15.664062 95.949219 L 895.15625 95.949219 L 895.15625 222.667969 L 15.664062 222.667969 Z M 15.664062 95.949219 " clip-rule="nonzero"/></clipPath><clipPath id="e3e4d0e3ca"><path d="M 32.535156 95.949219 L 878.480469 95.949219 C 882.957031 95.949219 887.246094 97.726562 890.410156 100.890625 C 893.574219 104.054688 895.351562 108.34375 895.351562 112.820312 L 895.351562 205.925781 C 895.351562 210.402344 893.574219 214.691406 890.410156 217.855469 C 887.246094 221.019531 882.957031 222.796875 878.480469 222.796875 L 32.535156 222.796875 C 28.058594 222.796875 23.769531 221.019531 20.605469 217.855469 C 17.441406 214.691406 15.664062 210.402344 15.664062 205.925781 L 15.664062 112.820312 C 15.664062 108.34375 17.441406 104.054688 20.605469 100.890625 C 23.769531 97.726562 28.058594 95.949219 32.535156 95.949219 Z M 32.535156 95.949219 " clip-rule="nonzero"/></clipPath><clipPath id="eb7686a229"><path d="M 3.355469 83.808594 L 883.414062 83.808594 L 883.414062 210.664062 L 3.355469 210.664062 Z M 3.355469 83.808594 " clip-rule="nonzero"/></clipPath><clipPath id="dc02164ff1"><path d="M 20.226562 83.808594 L 866.234375 83.808594 C 870.710938 83.808594 875 85.585938 878.164062 88.75 C 881.328125 91.914062 883.105469 96.203125 883.105469 100.679688 L 883.105469 193.792969 C 883.105469 198.265625 881.328125 202.558594 878.164062 205.722656 C 875 208.886719 870.710938 210.664062 866.234375 210.664062 L 20.226562 210.664062 C 15.753906 210.664062 11.460938 208.886719 8.296875 205.722656 C 5.132812 202.558594 3.355469 198.265625 3.355469 193.792969 L 3.355469 100.679688 C 3.355469 96.203125 5.132812 91.914062 8.296875 88.75 C 11.460938 85.585938 15.753906 83.808594 20.226562 83.808594 Z M 20.226562 83.808594 " clip-rule="nonzero"/></clipPath><clipPath id="f4550bc0df"><path d="M 0.355469 0.808594 L 880 0.808594 L 880 127.664062 L 0.355469 127.664062 Z M 0.355469 0.808594 " clip-rule="nonzero"/></clipPath><clipPath id="89eb2e545a"><path d="M 17.226562 0.808594 L 863.234375 0.808594 C 867.710938 0.808594 872 2.585938 875.164062 5.75 C 878.328125 8.914062 880.105469 13.203125 880.105469 17.679688 L 880.105469 110.792969 C 880.105469 115.265625 878.328125 119.558594 875.164062 122.722656 C 872 125.886719 867.710938 127.664062 863.234375 127.664062 L 17.226562 127.664062 C 12.753906 127.664062 8.460938 125.886719 5.296875 122.722656 C 2.132812 119.558594 0.355469 115.265625 0.355469 110.792969 L 0.355469 17.679688 C 0.355469 13.203125 2.132812 8.914062 5.296875 5.75 C 8.460938 2.585938 12.753906 0.808594 17.226562 0.808594 Z M 17.226562 0.808594 " clip-rule="nonzero"/></clipPath><clipPath id="6c1befa935"><rect x="0" width="881" y="0" height="128"/></clipPath><clipPath id="5510293607"><path d="M 3.386719 83.808594 L 882.878906 83.808594 L 882.878906 210.523438 L 3.386719 210.523438 Z M 3.386719 83.808594 " clip-rule="nonzero"/></clipPath><clipPath id="e4b1c8a4c3"><path d="M 20.253906 83.808594 L 866.203125 83.808594 C 870.675781 83.808594 874.96875 85.585938 878.132812 88.75 C 881.292969 91.914062 883.070312 96.203125 883.070312 100.675781 L 883.070312 193.785156 C 883.070312 198.257812 881.292969 202.550781 878.132812 205.714844 C 874.96875 208.875 870.675781 210.652344 866.203125 210.652344 L 20.253906 210.652344 C 15.78125 210.652344 11.492188 208.875 8.328125 205.714844 C 5.164062 202.550781 3.386719 198.257812 3.386719 193.785156 L 3.386719 100.675781 C 3.386719 96.203125 5.164062 91.914062 8.328125 88.75 C 11.492188 85.585938 15.78125 83.808594 20.253906 83.808594 Z M 20.253906 83.808594 " clip-rule="nonzero"/></clipPath><clipPath id="9a2fd7b47f"><rect x="0" width="415" y="0" height="119"/></clipPath><clipPath id="fb3f1f1808"><rect x="0" width="406" y="0" height="43"/></clipPath></defs><g clip-path="url(#607b403dd0)"><g clip-path="url(#a072991857)"><g transform="matrix(1, 0, 0, 1, 15, 95)"><g clip-path="url(#d43f0d9dba)"><g clip-path="url(#1d6c8b53e8)"><g clip-path="url(#64d0a023d9)"><path fill="#ffffff" d="M 0.636719 0.949219 L 880.195312 0.949219 L 880.195312 127.804688 L 0.636719 127.804688 Z M 0.636719 0.949219 " fill-opacity="1" fill-rule="nonzero"/></g></g></g></g></g></g><g clip-path="url(#0a42c1e86e)"><g clip-path="url(#e3e4d0e3ca)"><path stroke-linecap="butt" transform="matrix(0.749805, 0, 0, 0.749805, 15.664607, 95.950276)" fill="none" stroke-linejoin="miter" d="M 22.499913 -0.00141049 L 1150.720161 -0.00141049 C 1156.690462 -0.00141049 1162.410698 2.368997 1166.630545 6.588844 C 1170.850391 10.80869 1173.220799 16.528927 1173.220799 22.499228 L 1173.220799 146.672119 C 1173.220799 152.64242 1170.850391 158.362657 1166.630545 162.582503 C 1162.410698 166.80235 1156.690462 169.172757 1150.720161 169.172757 L 22.499913 169.172757 C 16.529611 169.172757 10.809375 166.80235 6.589529 162.582503 C 2.369682 158.362657 -0.000725586 152.64242 -0.000725586 146.672119 L -0.000725586 22.499228 C -0.000725586 16.528927 2.369682 10.80869 6.589529 6.588844 C 10.809375 2.368997 16.529611 -0.00141049 22.499913 -0.00141049 Z M 22.499913 -0.00141049 " stroke="#020201" stroke-width="8" stroke-opacity="1" stroke-miterlimit="4"/></g></g><g clip-path="url(#eb7686a229)"><g clip-path="url(#dc02164ff1)"><g transform="matrix(1, 0, 0, 1, 3, 83)"><g clip-path="url(#6c1befa935)"><g clip-path="url(#f4550bc0df)"><g clip-path="url(#89eb2e545a)"><path fill="#f794c6" d="M 0.355469 0.808594 L 879.917969 0.808594 L 879.917969 127.664062 L 0.355469 127.664062 Z M 0.355469 0.808594 " fill-opacity="1" fill-rule="nonzero"/></g></g></g></g></g></g><g clip-path="url(#5510293607)"><g clip-path="url(#e4b1c8a4c3)"><path stroke-linecap="butt" transform="matrix(0.749805, 0, 0, 0.749805, 3.386, 83.807952)" fill="none" stroke-linejoin="miter" d="M 22.496387 0.000856546 L 1150.721845 0.000856546 C 1156.686937 0.000856546 1162.412383 2.371264 1166.632229 6.591111 C 1170.846866 10.810957 1173.217274 16.531194 1173.217274 22.496285 L 1173.217274 146.674386 C 1173.217274 152.639478 1170.846866 158.364924 1166.632229 162.58477 C 1162.412383 166.799407 1156.686937 169.169815 1150.721845 169.169815 L 22.496387 169.169815 C 16.531296 169.169815 10.811059 166.799407 6.591213 162.58477 C 2.371366 158.364924 0.000958659 152.639478 0.000958659 146.674386 L 0.000958659 22.496285 C 0.000958659 16.531194 2.371366 10.810957 6.591213 6.591111 C 10.811059 2.371264 16.531296 0.000856546 22.496387 0.000856546 Z M 22.496387 0.000856546 " stroke="#000000" stroke-width="8" stroke-opacity="1" stroke-miterlimit="4"/></g></g><g transform="matrix(1, 0, 0, 1, 243, 96)"><g clip-path="url(#9a2fd7b47f)"><g fill="#ff5991" fill-opacity="1"><g transform="translate(6.278609, 99.896252)"><g><path d="M 4.109375 0 C 3.015625 0 2.078125 -0.507812 1.296875 -1.53125 C 0.429688 -2.550781 0 -3.609375 0 -4.703125 L 0.234375 -79.6875 C 0.234375 -81.175781 0.625 -82.3125 1.40625 -83.09375 C 2.269531 -83.957031 3.25 -84.390625 4.34375 -84.390625 L 25.390625 -84.265625 C 26.410156 -84.265625 27.425781 -83.835938 28.4375 -82.984375 C 29.300781 -81.960938 29.695312 -80.785156 29.625 -79.453125 L 29.140625 -49.359375 L 39.375 -49.359375 L 39.484375 -79.921875 C 39.484375 -81.328125 39.878906 -82.425781 40.671875 -83.21875 C 41.523438 -84.070312 42.503906 -84.5 43.609375 -84.5 L 64.640625 -84.390625 C 65.660156 -84.390625 66.679688 -83.957031 67.703125 -83.09375 C 68.554688 -82.070312 68.945312 -80.9375 68.875 -79.6875 L 67.578125 -6 C 67.578125 -4.738281 67.1875 -3.679688 66.40625 -2.828125 C 65.625 -1.878906 64.601562 -1.40625 63.34375 -1.40625 L 43.375 -1.40625 C 42.269531 -1.40625 41.328125 -1.914062 40.546875 -2.9375 C 39.679688 -3.957031 39.25 -4.976562 39.25 -6 L 39.375 -27.734375 L 28.671875 -27.734375 L 28.328125 -4.703125 C 28.328125 -3.367188 27.9375 -2.269531 27.15625 -1.40625 C 26.363281 -0.46875 25.34375 0 24.09375 0 Z M 4.109375 0 "/></g></g></g><g fill="#ff5991" fill-opacity="1"><g transform="translate(79.851446, 99.896252)"><g><path d="M 4.109375 0.359375 C 2.617188 0.359375 1.484375 -0.269531 0.703125 -1.53125 C 0.148438 -2.46875 -0.0664062 -3.207031 0.046875 -3.75 C 0.171875 -4.300781 0.351562 -5.285156 0.59375 -6.703125 L 17.984375 -79.09375 C 18.296875 -80.269531 18.785156 -81.328125 19.453125 -82.265625 C 20.117188 -83.210938 21 -83.6875 22.09375 -83.6875 L 51.59375 -83.6875 C 52.6875 -83.6875 53.566406 -83.210938 54.234375 -82.265625 C 54.898438 -81.328125 55.390625 -80.269531 55.703125 -79.09375 L 73.109375 -6.703125 C 73.335938 -5.285156 73.53125 -4.300781 73.6875 -3.75 C 73.84375 -3.207031 73.609375 -2.46875 72.984375 -1.53125 C 72.203125 -0.269531 71.066406 0.359375 69.578125 0.359375 C 63.773438 0.359375 59.269531 0.375 56.0625 0.40625 C 52.851562 0.445312 50.539062 0.328125 49.125 0.046875 C 47.71875 -0.222656 46.78125 -0.847656 46.3125 -1.828125 C 45.84375 -2.804688 45.410156 -4.351562 45.015625 -6.46875 L 44.3125 -10.109375 L 29.390625 -10.109375 L 28.671875 -6.46875 C 28.285156 -4.351562 27.851562 -2.804688 27.375 -1.828125 C 26.90625 -0.847656 25.96875 -0.222656 24.5625 0.046875 C 23.15625 0.328125 20.84375 0.445312 17.625 0.40625 C 14.414062 0.375 9.910156 0.359375 4.109375 0.359375 Z M 33.375 -32.796875 L 40.3125 -32.796875 L 36.90625 -52.296875 Z M 33.375 -32.796875 "/></g></g></g><g fill="#ff5991" fill-opacity="1"><g transform="translate(158.242952, 99.896252)"><g><path d="M 4.109375 0.703125 C 3.085938 0.703125 2.144531 0.195312 1.28125 -0.8125 C 0.425781 -1.832031 0 -2.851562 0 -3.875 L 0.234375 -77.921875 C 0.234375 -79.410156 0.664062 -80.546875 1.53125 -81.328125 C 2.394531 -82.109375 3.332031 -82.5 4.34375 -82.5 L 25.390625 -82.390625 C 27.265625 -82.390625 28.597656 -81.445312 29.390625 -79.5625 L 41.71875 -50.1875 L 41.84375 -78.15625 C 41.84375 -79.570312 42.269531 -80.671875 43.125 -81.453125 C 43.988281 -82.234375 44.929688 -82.625 45.953125 -82.625 L 67 -82.5 C 68.25 -82.5 69.300781 -82.046875 70.15625 -81.140625 C 71.019531 -80.242188 71.375 -79.171875 71.21875 -77.921875 L 70.28125 -3.765625 C 70.28125 -2.585938 69.867188 -1.546875 69.046875 -0.640625 C 68.222656 0.253906 67.222656 0.703125 66.046875 0.703125 L 46.078125 0.703125 C 45.054688 0.703125 44.226562 0.3125 43.59375 -0.46875 C 42.96875 -1.25 42.5 -1.953125 42.1875 -2.578125 L 28.796875 -30.328125 L 28.328125 -3.875 C 28.328125 -2.46875 27.894531 -1.351562 27.03125 -0.53125 C 26.164062 0.289062 25.1875 0.703125 24.09375 0.703125 Z M 4.109375 0.703125 "/></g></g></g><g fill="#ff5991" fill-opacity="1"><g transform="translate(234.166362, 99.896252)"><g><path d="M 4.109375 0.703125 C 3.085938 0.703125 2.144531 0.195312 1.28125 -0.8125 C 0.425781 -1.832031 0 -2.851562 0 -3.875 L 0.234375 -77.921875 C 0.234375 -79.410156 0.664062 -80.546875 1.53125 -81.328125 C 2.394531 -82.109375 3.332031 -82.5 4.34375 -82.5 L 25.390625 -82.390625 C 27.265625 -82.390625 28.597656 -81.445312 29.390625 -79.5625 L 41.71875 -50.1875 L 41.84375 -78.15625 C 41.84375 -79.570312 42.269531 -80.671875 43.125 -81.453125 C 43.988281 -82.234375 44.929688 -82.625 45.953125 -82.625 L 67 -82.5 C 68.25 -82.5 69.300781 -82.046875 70.15625 -81.140625 C 71.019531 -80.242188 71.375 -79.171875 71.21875 -77.921875 L 70.28125 -3.765625 C 70.28125 -2.585938 69.867188 -1.546875 69.046875 -0.640625 C 68.222656 0.253906 67.222656 0.703125 66.046875 0.703125 L 46.078125 0.703125 C 45.054688 0.703125 44.226562 0.3125 43.59375 -0.46875 C 42.96875 -1.25 42.5 -1.953125 42.1875 -2.578125 L 28.796875 -30.328125 L 28.328125 -3.875 C 28.328125 -2.46875 27.894531 -1.351562 27.03125 -0.53125 C 26.164062 0.289062 25.1875 0.703125 24.09375 0.703125 Z M 4.109375 0.703125 "/></g></g></g><g fill="#ff5991" fill-opacity="1"><g transform="translate(310.089759, 99.896252)"><g><path d="M 4.109375 0.359375 C 2.617188 0.359375 1.484375 -0.269531 0.703125 -1.53125 C 0.148438 -2.46875 -0.0664062 -3.207031 0.046875 -3.75 C 0.171875 -4.300781 0.351562 -5.285156 0.59375 -6.703125 L 17.984375 -79.09375 C 18.296875 -80.269531 18.785156 -81.328125 19.453125 -82.265625 C 20.117188 -83.210938 21 -83.6875 22.09375 -83.6875 L 51.59375 -83.6875 C 52.6875 -83.6875 53.566406 -83.210938 54.234375 -82.265625 C 54.898438 -81.328125 55.390625 -80.269531 55.703125 -79.09375 L 73.109375 -6.703125 C 73.335938 -5.285156 73.53125 -4.300781 73.6875 -3.75 C 73.84375 -3.207031 73.609375 -2.46875 72.984375 -1.53125 C 72.203125 -0.269531 71.066406 0.359375 69.578125 0.359375 C 63.773438 0.359375 59.269531 0.375 56.0625 0.40625 C 52.851562 0.445312 50.539062 0.328125 49.125 0.046875 C 47.71875 -0.222656 46.78125 -0.847656 46.3125 -1.828125 C 45.84375 -2.804688 45.410156 -4.351562 45.015625 -6.46875 L 44.3125 -10.109375 L 29.390625 -10.109375 L 28.671875 -6.46875 C 28.285156 -4.351562 27.851562 -2.804688 27.375 -1.828125 C 26.90625 -0.847656 25.96875 -0.222656 24.5625 0.046875 C 23.15625 0.328125 20.84375 0.445312 17.625 0.40625 C 14.414062 0.375 9.910156 0.359375 4.109375 0.359375 Z M 33.375 -32.796875 L 40.3125 -32.796875 L 36.90625 -52.296875 Z M 33.375 -32.796875 "/></g></g></g><g fill="#ff5991" fill-opacity="1"><g transform="translate(388.481277, 99.896252)"><g><path d="M 6.34375 -24.328125 C 5.25 -24.328125 4.289062 -24.695312 3.46875 -25.4375 C 2.644531 -26.1875 2.191406 -27.03125 2.109375 -27.96875 L 0 -80.984375 C -0.0820312 -82.078125 0.304688 -82.957031 1.171875 -83.625 C 2.035156 -84.289062 3.054688 -84.625 4.234375 -84.625 L 20.5625 -84.5 C 21.507812 -84.5 22.507812 -84.164062 23.5625 -83.5 C 24.625 -82.832031 25.078125 -81.953125 24.921875 -80.859375 L 22.453125 -27.96875 C 22.453125 -26.945312 22.019531 -26.082031 21.15625 -25.375 C 20.289062 -24.675781 19.269531 -24.328125 18.09375 -24.328125 Z M 1.40625 -13.515625 C 2.582031 -16.023438 4.675781 -17.847656 7.6875 -18.984375 C 10.707031 -20.117188 13.785156 -20.140625 16.921875 -19.046875 C 18.878906 -18.410156 20.523438 -17.226562 21.859375 -15.5 C 23.191406 -13.78125 23.859375 -11.785156 23.859375 -9.515625 C 23.859375 -6.535156 22.703125 -4.066406 20.390625 -2.109375 C 18.078125 -0.148438 15.394531 0.828125 12.34375 0.828125 C 9.757812 0.828125 7.445312 0.160156 5.40625 -1.171875 C 3.363281 -2.503906 1.929688 -4.265625 1.109375 -6.453125 C 0.285156 -8.648438 0.382812 -11.003906 1.40625 -13.515625 Z M 1.40625 -13.515625 "/></g></g></g><g fill="#ffffff" fill-opacity="1"><g transform="translate(1.084204, 94.701845)"><g><path d="M 4.109375 0 C 3.015625 0 2.078125 -0.507812 1.296875 -1.53125 C 0.429688 -2.550781 0 -3.609375 0 -4.703125 L 0.234375 -79.6875 C 0.234375 -81.175781 0.625 -82.3125 1.40625 -83.09375 C 2.269531 -83.957031 3.25 -84.390625 4.34375 -84.390625 L 25.390625 -84.265625 C 26.410156 -84.265625 27.425781 -83.835938 28.4375 -82.984375 C 29.300781 -81.960938 29.695312 -80.785156 29.625 -79.453125 L 29.140625 -49.359375 L 39.375 -49.359375 L 39.484375 -79.921875 C 39.484375 -81.328125 39.878906 -82.425781 40.671875 -83.21875 C 41.523438 -84.070312 42.503906 -84.5 43.609375 -84.5 L 64.640625 -84.390625 C 65.660156 -84.390625 66.679688 -83.957031 67.703125 -83.09375 C 68.554688 -82.070312 68.945312 -80.9375 68.875 -79.6875 L 67.578125 -6 C 67.578125 -4.738281 67.1875 -3.679688 66.40625 -2.828125 C 65.625 -1.878906 64.601562 -1.40625 63.34375 -1.40625 L 43.375 -1.40625 C 42.269531 -1.40625 41.328125 -1.914062 40.546875 -2.9375 C 39.679688 -3.957031 39.25 -4.976562 39.25 -6 L 39.375 -27.734375 L 28.671875 -27.734375 L 28.328125 -4.703125 C 28.328125 -3.367188 27.9375 -2.269531 27.15625 -1.40625 C 26.363281 -0.46875 25.34375 0 24.09375 0 Z M 4.109375 0 "/></g></g></g><g fill="#ffffff" fill-opacity="1"><g transform="translate(74.657041, 94.701845)"><g><path d="M 4.109375 0.359375 C 2.617188 0.359375 1.484375 -0.269531 0.703125 -1.53125 C 0.148438 -2.46875 -0.0664062 -3.207031 0.046875 -3.75 C 0.171875 -4.300781 0.351562 -5.285156 0.59375 -6.703125 L 17.984375 -79.09375 C 18.296875 -80.269531 18.785156 -81.328125 19.453125 -82.265625 C 20.117188 -83.210938 21 -83.6875 22.09375 -83.6875 L 51.59375 -83.6875 C 52.6875 -83.6875 53.566406 -83.210938 54.234375 -82.265625 C 54.898438 -81.328125 55.390625 -80.269531 55.703125 -79.09375 L 73.109375 -6.703125 C 73.335938 -5.285156 73.53125 -4.300781 73.6875 -3.75 C 73.84375 -3.207031 73.609375 -2.46875 72.984375 -1.53125 C 72.203125 -0.269531 71.066406 0.359375 69.578125 0.359375 C 63.773438 0.359375 59.269531 0.375 56.0625 0.40625 C 52.851562 0.445312 50.539062 0.328125 49.125 0.046875 C 47.71875 -0.222656 46.78125 -0.847656 46.3125 -1.828125 C 45.84375 -2.804688 45.410156 -4.351562 45.015625 -6.46875 L 44.3125 -10.109375 L 29.390625 -10.109375 L 28.671875 -6.46875 C 28.285156 -4.351562 27.851562 -2.804688 27.375 -1.828125 C 26.90625 -0.847656 25.96875 -0.222656 24.5625 0.046875 C 23.15625 0.328125 20.84375 0.445312 17.625 0.40625 C 14.414062 0.375 9.910156 0.359375 4.109375 0.359375 Z M 33.375 -32.796875 L 40.3125 -32.796875 L 36.90625 -52.296875 Z M 33.375 -32.796875 "/></g></g></g><g fill="#ffffff" fill-opacity="1"><g transform="translate(153.048547, 94.701845)"><g><path d="M 4.109375 0.703125 C 3.085938 0.703125 2.144531 0.195312 1.28125 -0.8125 C 0.425781 -1.832031 0 -2.851562 0 -3.875 L 0.234375 -77.921875 C 0.234375 -79.410156 0.664062 -80.546875 1.53125 -81.328125 C 2.394531 -82.109375 3.332031 -82.5 4.34375 -82.5 L 25.390625 -82.390625 C 27.265625 -82.390625 28.597656 -81.445312 29.390625 -79.5625 L 41.71875 -50.1875 L 41.84375 -78.15625 C 41.84375 -79.570312 42.269531 -80.671875 43.125 -81.453125 C 43.988281 -82.234375 44.929688 -82.625 45.953125 -82.625 L 67 -82.5 C 68.25 -82.5 69.300781 -82.046875 70.15625 -81.140625 C 71.019531 -80.242188 71.375 -79.171875 71.21875 -77.921875 L 70.28125 -3.765625 C 70.28125 -2.585938 69.867188 -1.546875 69.046875 -0.640625 C 68.222656 0.253906 67.222656 0.703125 66.046875 0.703125 L 46.078125 0.703125 C 45.054688 0.703125 44.226562 0.3125 43.59375 -0.46875 C 42.96875 -1.25 42.5 -1.953125 42.1875 -2.578125 L 28.796875 -30.328125 L 28.328125 -3.875 C 28.328125 -2.46875 27.894531 -1.351562 27.03125 -0.53125 C 26.164062 0.289062 25.1875 0.703125 24.09375 0.703125 Z M 4.109375 0.703125 "/></g></g></g><g fill="#ffffff" fill-opacity="1"><g transform="translate(228.971957, 94.701845)"><g><path d="M 4.109375 0.703125 C 3.085938 0.703125 2.144531 0.195312 1.28125 -0.8125 C 0.425781 -1.832031 0 -2.851562 0 -3.875 L 0.234375 -77.921875 C 0.234375 -79.410156 0.664062 -80.546875 1.53125 -81.328125 C 2.394531 -82.109375 3.332031 -82.5 4.34375 -82.5 L 25.390625 -82.390625 C 27.265625 -82.390625 28.597656 -81.445312 29.390625 -79.5625 L 41.71875 -50.1875 L 41.84375 -78.15625 C 41.84375 -79.570312 42.269531 -80.671875 43.125 -81.453125 C 43.988281 -82.234375 44.929688 -82.625 45.953125 -82.625 L 67 -82.5 C 68.25 -82.5 69.300781 -82.046875 70.15625 -81.140625 C 71.019531 -80.242188 71.375 -79.171875 71.21875 -77.921875 L 70.28125 -3.765625 C 70.28125 -2.585938 69.867188 -1.546875 69.046875 -0.640625 C 68.222656 0.253906 67.222656 0.703125 66.046875 0.703125 L 46.078125 0.703125 C 45.054688 0.703125 44.226562 0.3125 43.59375 -0.46875 C 42.96875 -1.25 42.5 -1.953125 42.1875 -2.578125 L 28.796875 -30.328125 L 28.328125 -3.875 C 28.328125 -2.46875 27.894531 -1.351562 27.03125 -0.53125 C 26.164062 0.289062 25.1875 0.703125 24.09375 0.703125 Z M 4.109375 0.703125 "/></g></g></g><g fill="#ffffff" fill-opacity="1"><g transform="translate(304.895354, 94.701845)"><g><path d="M 4.109375 0.359375 C 2.617188 0.359375 1.484375 -0.269531 0.703125 -1.53125 C 0.148438 -2.46875 -0.0664062 -3.207031 0.046875 -3.75 C 0.171875 -4.300781 0.351562 -5.285156 0.59375 -6.703125 L 17.984375 -79.09375 C 18.296875 -80.269531 18.785156 -81.328125 19.453125 -82.265625 C 20.117188 -83.210938 21 -83.6875 22.09375 -83.6875 L 51.59375 -83.6875 C 52.6875 -83.6875 53.566406 -83.210938 54.234375 -82.265625 C 54.898438 -81.328125 55.390625 -80.269531 55.703125 -79.09375 L 73.109375 -6.703125 C 73.335938 -5.285156 73.53125 -4.300781 73.6875 -3.75 C 73.84375 -3.207031 73.609375 -2.46875 72.984375 -1.53125 C 72.203125 -0.269531 71.066406 0.359375 69.578125 0.359375 C 63.773438 0.359375 59.269531 0.375 56.0625 0.40625 C 52.851562 0.445312 50.539062 0.328125 49.125 0.046875 C 47.71875 -0.222656 46.78125 -0.847656 46.3125 -1.828125 C 45.84375 -2.804688 45.410156 -4.351562 45.015625 -6.46875 L 44.3125 -10.109375 L 29.390625 -10.109375 L 28.671875 -6.46875 C 28.285156 -4.351562 27.851562 -2.804688 27.375 -1.828125 C 26.90625 -0.847656 25.96875 -0.222656 24.5625 0.046875 C 23.15625 0.328125 20.84375 0.445312 17.625 0.40625 C 14.414062 0.375 9.910156 0.359375 4.109375 0.359375 Z M 33.375 -32.796875 L 40.3125 -32.796875 L 36.90625 -52.296875 Z M 33.375 -32.796875 "/></g></g></g><g fill="#ffffff" fill-opacity="1"><g transform="translate(383.286872, 94.701845)"><g><path d="M 6.34375 -24.328125 C 5.25 -24.328125 4.289062 -24.695312 3.46875 -25.4375 C 2.644531 -26.1875 2.191406 -27.03125 2.109375 -27.96875 L 0 -80.984375 C -0.0820312 -82.078125 0.304688 -82.957031 1.171875 -83.625 C 2.035156 -84.289062 3.054688 -84.625 4.234375 -84.625 L 20.5625 -84.5 C 21.507812 -84.5 22.507812 -84.164062 23.5625 -83.5 C 24.625 -82.832031 25.078125 -81.953125 24.921875 -80.859375 L 22.453125 -27.96875 C 22.453125 -26.945312 22.019531 -26.082031 21.15625 -25.375 C 20.289062 -24.675781 19.269531 -24.328125 18.09375 -24.328125 Z M 1.40625 -13.515625 C 2.582031 -16.023438 4.675781 -17.847656 7.6875 -18.984375 C 10.707031 -20.117188 13.785156 -20.140625 16.921875 -19.046875 C 18.878906 -18.410156 20.523438 -17.226562 21.859375 -15.5 C 23.191406 -13.78125 23.859375 -11.785156 23.859375 -9.515625 C 23.859375 -6.535156 22.703125 -4.066406 20.390625 -2.109375 C 18.078125 -0.148438 15.394531 0.828125 12.34375 0.828125 C 9.757812 0.828125 7.445312 0.160156 5.40625 -1.171875 C 3.363281 -2.503906 1.929688 -4.265625 1.109375 -6.453125 C 0.285156 -8.648438 0.382812 -11.003906 1.40625 -13.515625 Z M 1.40625 -13.515625 "/></g></g></g></g></g><g transform="matrix(1, 0, 0, 1, 66, 36)"><g clip-path="url(#fb3f1f1808)"><g fill="#f794c6" fill-opacity="1"><g transform="translate(1.386944, 33.150476)"><g><path d="M 22.375 -10 C 22.5625 -7.769531 21.914062 -5.785156 20.4375 -4.046875 C 19.820312 -3.296875 19.222656 -2.769531 18.640625 -2.46875 C 13.960938 0.09375 9.507812 0.65625 5.28125 -0.78125 C 4.414062 -1.082031 3.535156 -1.609375 2.640625 -2.359375 C 1.867188 -2.992188 1.632812 -3.882812 1.9375 -5.03125 C 2.125 -5.789062 2.226562 -6.582031 2.25 -7.40625 C 2.28125 -8.851562 2.304688 -10.300781 2.328125 -11.75 C 2.347656 -13.195312 2.367188 -14.632812 2.390625 -16.0625 C 2.421875 -17.21875 2.441406 -18.375 2.453125 -19.53125 C 2.460938 -20.695312 2.476562 -21.859375 2.5 -23.015625 L 2.5 -23.15625 C 2.519531 -23.40625 2.5 -23.675781 2.4375 -23.96875 C 2.382812 -24.269531 2.144531 -24.550781 1.71875 -24.8125 C 1.488281 -24.945312 1.347656 -25.144531 1.296875 -25.40625 C 1.273438 -25.707031 1.382812 -25.976562 1.625 -26.21875 L 1.9375 -26.53125 C 2.332031 -26.90625 2.75 -27.285156 3.1875 -27.671875 C 3.625 -28.066406 4.078125 -28.320312 4.546875 -28.4375 C 7.265625 -29.132812 9.90625 -29.53125 12.46875 -29.625 C 12.613281 -29.65625 12.769531 -29.671875 12.9375 -29.671875 C 16.0625 -29.671875 18.28125 -28.285156 19.59375 -25.515625 C 20.789062 -23.023438 20.425781 -20.769531 18.5 -18.75 C 18.40625 -18.65625 18.296875 -18.5625 18.171875 -18.46875 C 18.054688 -18.375 17.929688 -18.28125 17.796875 -18.1875 C 17.722656 -18.132812 17.648438 -18.078125 17.578125 -18.015625 C 17.503906 -17.960938 17.4375 -17.910156 17.375 -17.859375 L 16.953125 -17.546875 L 17.375 -17.265625 C 17.507812 -17.148438 17.640625 -17.046875 17.765625 -16.953125 C 17.898438 -16.859375 18.023438 -16.765625 18.140625 -16.671875 C 18.378906 -16.484375 18.597656 -16.3125 18.796875 -16.15625 C 18.992188 -16 19.1875 -15.835938 19.375 -15.671875 C 21.164062 -14.171875 22.164062 -12.28125 22.375 -10 Z M 7.5 -19.5625 L 7.5 -19.09375 L 7.96875 -19.203125 C 8.195312 -19.242188 8.410156 -19.296875 8.609375 -19.359375 C 8.816406 -19.421875 9.023438 -19.472656 9.234375 -19.515625 C 9.703125 -19.609375 10.160156 -19.710938 10.609375 -19.828125 C 11.054688 -19.953125 11.488281 -20.097656 11.90625 -20.265625 C 12.59375 -20.515625 13.085938 -20.769531 13.390625 -21.03125 C 13.691406 -21.289062 13.925781 -21.515625 14.09375 -21.703125 L 14.265625 -21.953125 C 14.410156 -22.210938 14.546875 -22.503906 14.671875 -22.828125 C 14.804688 -23.160156 14.8125 -23.503906 14.6875 -23.859375 C 14.570312 -24.203125 14.300781 -24.484375 13.875 -24.703125 C 13.4375 -24.910156 12.789062 -25.070312 11.9375 -25.1875 C 11.539062 -25.21875 11.15625 -25.222656 10.78125 -25.203125 C 10.40625 -25.191406 9.957031 -25.128906 9.4375 -25.015625 C 8.925781 -24.898438 8.269531 -24.703125 7.46875 -24.421875 L 7.1875 -24.3125 L 7.1875 -24.03125 C 7.207031 -23.507812 7.234375 -23.078125 7.265625 -22.734375 C 7.304688 -22.398438 7.335938 -22.082031 7.359375 -21.78125 C 7.390625 -21.46875 7.414062 -21.144531 7.4375 -20.8125 C 7.457031 -20.488281 7.476562 -20.070312 7.5 -19.5625 Z M 16.984375 -9.234375 C 17.148438 -10.378906 16.710938 -11.4375 15.671875 -12.40625 C 15.015625 -13.039062 14.316406 -13.472656 13.578125 -13.703125 C 12.835938 -13.941406 12.09375 -14.0625 11.34375 -14.0625 C 10.59375 -14.0625 9.84375 -14.023438 9.09375 -13.953125 L 8.390625 -13.921875 C 8.148438 -13.890625 7.957031 -13.734375 7.8125 -13.453125 C 7.675781 -13.171875 7.597656 -12.953125 7.578125 -12.796875 C 7.578125 -12.441406 7.578125 -12.082031 7.578125 -11.71875 C 7.578125 -11.351562 7.578125 -10.992188 7.578125 -10.640625 L 7.578125 -9.859375 L 7.609375 -9.484375 C 7.609375 -9.390625 7.609375 -9.304688 7.609375 -9.234375 C 7.609375 -9.160156 7.609375 -9.085938 7.609375 -9.015625 C 7.609375 -8.691406 7.609375 -8.367188 7.609375 -8.046875 C 7.609375 -7.734375 7.597656 -7.410156 7.578125 -7.078125 C 7.523438 -6.160156 7.972656 -5.65625 8.921875 -5.5625 C 9.222656 -5.539062 9.515625 -5.53125 9.796875 -5.53125 C 11.554688 -5.53125 13.316406 -5.960938 15.078125 -6.828125 C 16.179688 -7.367188 16.816406 -8.171875 16.984375 -9.234375 Z M 16.984375 -9.234375 "/></g></g></g><g fill="#f794c6" fill-opacity="1"><g transform="translate(25.101748, 33.150476)"><g><path d="M 15.640625 -6.40625 C 16.066406 -6.4375 16.523438 -6.375 17.015625 -6.21875 C 17.515625 -6.0625 17.90625 -5.679688 18.1875 -5.078125 C 18.625 -4.140625 18.421875 -3.210938 17.578125 -2.296875 C 17.066406 -1.722656 16.457031 -1.265625 15.75 -0.921875 C 12.738281 0.535156 9.453125 0.914062 5.890625 0.21875 C 3.796875 -0.207031 2.429688 -1.570312 1.796875 -3.875 C 1.398438 -5.332031 1.234375 -6.796875 1.296875 -8.265625 C 1.367188 -9.734375 1.5 -11.113281 1.6875 -12.40625 C 1.851562 -13.476562 2.03125 -14.554688 2.21875 -15.640625 C 2.40625 -16.722656 2.59375 -17.789062 2.78125 -18.84375 C 2.875 -19.363281 2.960938 -19.875 3.046875 -20.375 C 3.128906 -20.882812 3.21875 -21.398438 3.3125 -21.921875 L 3.34375 -22.0625 C 3.363281 -22.195312 3.382812 -22.335938 3.40625 -22.484375 C 3.4375 -22.640625 3.425781 -22.800781 3.375 -22.96875 C 3.125 -24.257812 3.691406 -25.28125 5.078125 -26.03125 C 5.335938 -26.175781 5.597656 -26.304688 5.859375 -26.421875 C 6.128906 -26.546875 6.40625 -26.628906 6.6875 -26.671875 L 8.203125 -26.890625 C 9.285156 -27.023438 10.382812 -27.164062 11.5 -27.3125 C 12.613281 -27.46875 13.722656 -27.570312 14.828125 -27.625 C 14.921875 -27.625 15.015625 -27.625 15.109375 -27.625 C 16.210938 -27.625 17.109375 -27.304688 17.796875 -26.671875 C 18.398438 -26.128906 18.71875 -25.460938 18.75 -24.671875 C 18.769531 -23.773438 18.429688 -23.03125 17.734375 -22.4375 C 17.046875 -21.851562 16.140625 -21.523438 15.015625 -21.453125 C 14.285156 -21.410156 13.554688 -21.398438 12.828125 -21.421875 C 12.097656 -21.441406 11.367188 -21.476562 10.640625 -21.53125 L 9.71875 -21.5625 C 9.28125 -21.582031 8.929688 -21.585938 8.671875 -21.578125 C 8.410156 -21.566406 8.195312 -21.476562 8.03125 -21.3125 C 7.863281 -21.175781 7.769531 -20.976562 7.75 -20.71875 C 7.726562 -20.457031 7.71875 -20.101562 7.71875 -19.65625 C 7.71875 -19.207031 7.71875 -18.757812 7.71875 -18.3125 C 7.71875 -17.875 7.71875 -17.429688 7.71875 -16.984375 L 7.71875 -15.21875 L 8.171875 -15.296875 C 8.429688 -15.335938 8.679688 -15.378906 8.921875 -15.421875 C 9.171875 -15.472656 9.425781 -15.535156 9.6875 -15.609375 C 10.226562 -15.703125 10.757812 -15.796875 11.28125 -15.890625 C 11.8125 -15.984375 12.335938 -16.054688 12.859375 -16.109375 C 14.171875 -16.222656 15.394531 -16.148438 16.53125 -15.890625 C 17.539062 -15.679688 18.078125 -15.054688 18.140625 -14.015625 C 18.191406 -13.429688 18.0625 -12.96875 17.75 -12.625 C 17.445312 -12.289062 17.132812 -12.039062 16.8125 -11.875 C 15.988281 -11.445312 15.1875 -11.203125 14.40625 -11.140625 C 13.65625 -11.066406 12.882812 -11.007812 12.09375 -10.96875 C 11.3125 -10.9375 10.519531 -10.898438 9.71875 -10.859375 C 9.394531 -10.859375 9.0625 -10.84375 8.71875 -10.8125 C 8.375 -10.789062 8.03125 -10.78125 7.6875 -10.78125 L 7.328125 -10.75 L 7.328125 -10.390625 C 7.328125 -10.222656 7.328125 -10.050781 7.328125 -9.875 C 7.328125 -9.707031 7.328125 -9.539062 7.328125 -9.375 C 7.328125 -8.875 7.328125 -8.375 7.328125 -7.875 C 7.328125 -7.375 7.335938 -6.875 7.359375 -6.375 C 7.359375 -6.207031 7.410156 -6.0625 7.515625 -5.9375 C 7.628906 -5.8125 7.71875 -5.710938 7.78125 -5.640625 C 7.875 -5.566406 7.988281 -5.488281 8.125 -5.40625 C 8.269531 -5.320312 8.425781 -5.28125 8.59375 -5.28125 C 9.914062 -5.375 11.375 -5.550781 12.96875 -5.8125 C 13.175781 -5.832031 13.378906 -5.875 13.578125 -5.9375 C 13.773438 -6 13.972656 -6.050781 14.171875 -6.09375 C 14.421875 -6.164062 14.671875 -6.226562 14.921875 -6.28125 C 15.171875 -6.34375 15.410156 -6.382812 15.640625 -6.40625 Z M 15.640625 -6.40625 "/></g></g></g><g fill="#f794c6" fill-opacity="1"><g transform="translate(45.151863, 33.150476)"><g><path d="M 32.703125 -7.546875 C 32.765625 -6.296875 32.644531 -5.015625 32.34375 -3.703125 C 32.15625 -2.992188 31.832031 -2.4375 31.375 -2.03125 C 30.914062 -1.632812 30.367188 -1.425781 29.734375 -1.40625 C 29.171875 -1.382812 28.617188 -1.550781 28.078125 -1.90625 C 27.535156 -2.257812 27.195312 -2.8125 27.0625 -3.5625 C 26.59375 -5.832031 26.265625 -8.484375 26.078125 -11.515625 C 26.003906 -12.335938 25.972656 -13.160156 25.984375 -13.984375 C 25.992188 -14.804688 26 -15.617188 26 -16.421875 C 26 -16.796875 26.003906 -17.175781 26.015625 -17.5625 C 26.023438 -17.945312 26.03125 -18.328125 26.03125 -18.703125 C 26.03125 -18.921875 26.015625 -19.144531 25.984375 -19.375 C 25.953125 -19.613281 25.875 -19.863281 25.75 -20.125 L 25.40625 -20.859375 L 24.90625 -19.84375 C 24.863281 -19.71875 24.816406 -19.597656 24.765625 -19.484375 C 24.722656 -19.367188 24.675781 -19.25 24.625 -19.125 C 24.457031 -18.65625 24.289062 -18.191406 24.125 -17.734375 C 23.96875 -17.273438 23.804688 -16.8125 23.640625 -16.34375 C 23.359375 -15.550781 23.082031 -14.753906 22.8125 -13.953125 C 22.539062 -13.148438 22.253906 -12.363281 21.953125 -11.59375 L 21.921875 -11.453125 C 21.753906 -11.003906 21.582031 -10.550781 21.40625 -10.09375 C 21.226562 -9.632812 21.019531 -9.191406 20.78125 -8.765625 C 20.101562 -7.640625 19.210938 -7.054688 18.109375 -7.015625 C 17.023438 -6.960938 16.109375 -7.453125 15.359375 -8.484375 C 14.941406 -9.054688 14.570312 -9.65625 14.25 -10.28125 C 13.9375 -10.914062 13.640625 -11.5625 13.359375 -12.21875 C 13.023438 -12.925781 12.695312 -13.644531 12.375 -14.375 C 12.0625 -15.101562 11.753906 -15.832031 11.453125 -16.5625 C 11.304688 -16.914062 11.148438 -17.273438 10.984375 -17.640625 C 10.828125 -18.003906 10.675781 -18.375 10.53125 -18.75 C 10.457031 -18.90625 10.359375 -19.078125 10.234375 -19.265625 C 10.109375 -19.460938 9.9375 -19.664062 9.71875 -19.875 L 9.203125 -20.328125 L 8.984375 -18.953125 C 8.960938 -18.722656 8.929688 -18.484375 8.890625 -18.234375 C 8.859375 -17.984375 8.832031 -17.742188 8.8125 -17.515625 C 8.71875 -16.617188 8.625 -15.726562 8.53125 -14.84375 C 8.4375 -13.96875 8.34375 -13.082031 8.25 -12.1875 C 8.125 -10.945312 8 -9.707031 7.875 -8.46875 C 7.75 -7.238281 7.613281 -6 7.46875 -4.75 C 7.445312 -4.332031 7.40625 -3.914062 7.34375 -3.5 C 7.289062 -3.09375 7.203125 -2.703125 7.078125 -2.328125 C 6.890625 -1.597656 6.523438 -1.019531 5.984375 -0.59375 C 5.441406 -0.175781 4.832031 0.0195312 4.15625 0 C 3.445312 -0.0195312 2.835938 -0.269531 2.328125 -0.75 C 1.828125 -1.238281 1.53125 -1.832031 1.4375 -2.53125 C 1.25 -3.988281 1.25 -5.316406 1.4375 -6.515625 C 2.289062 -11.710938 3.242188 -17 4.296875 -22.375 C 4.535156 -23.613281 4.972656 -24.820312 5.609375 -26 C 6.191406 -27.03125 6.960938 -27.628906 7.921875 -27.796875 C 8.066406 -27.816406 8.207031 -27.828125 8.34375 -27.828125 C 9.125 -27.828125 9.851562 -27.523438 10.53125 -26.921875 C 11.613281 -25.929688 12.753906 -24.519531 13.953125 -22.6875 C 14.328125 -22.125 14.675781 -21.53125 15 -20.90625 C 15.332031 -20.289062 15.675781 -19.664062 16.03125 -19.03125 C 16.175781 -18.71875 16.320312 -18.414062 16.46875 -18.125 C 16.625 -17.832031 16.785156 -17.535156 16.953125 -17.234375 L 17.328125 -16.53125 L 17.65625 -17.265625 C 17.769531 -17.546875 17.878906 -17.828125 17.984375 -18.109375 C 18.085938 -18.390625 18.203125 -18.671875 18.328125 -18.953125 C 18.554688 -19.585938 18.785156 -20.195312 19.015625 -20.78125 C 19.253906 -21.375 19.503906 -21.960938 19.765625 -22.546875 C 20.347656 -23.835938 21.050781 -25.164062 21.875 -26.53125 C 22.28125 -27.207031 22.800781 -27.84375 23.4375 -28.4375 C 24.539062 -29.445312 25.675781 -29.832031 26.84375 -29.59375 C 28.019531 -29.363281 28.914062 -28.554688 29.53125 -27.171875 C 30.601562 -24.796875 31.316406 -21.859375 31.671875 -18.359375 L 31.890625 -16.203125 C 32.054688 -14.796875 32.207031 -13.359375 32.34375 -11.890625 C 32.488281 -10.421875 32.609375 -8.972656 32.703125 -7.546875 Z M 32.703125 -7.546875 "/></g></g></g><g fill="#f794c6" fill-opacity="1"><g transform="translate(79.226485, 33.150476)"><g/></g></g><g fill="#f794c6" fill-opacity="1"><g transform="translate(89.339642, 33.150476)"><g><path d="M 25.265625 -26.21875 C 25.828125 -25.84375 26.179688 -25.34375 26.328125 -24.71875 C 26.484375 -24.09375 26.410156 -23.441406 26.109375 -22.765625 L 25.328125 -21 C 24.066406 -18.0625 22.796875 -15.132812 21.515625 -12.21875 C 20.234375 -9.3125 18.957031 -6.398438 17.6875 -3.484375 C 17.382812 -2.804688 17.078125 -2.269531 16.765625 -1.875 C 16.128906 -1.019531 15.34375 -0.570312 14.40625 -0.53125 C 13.46875 -0.507812 12.671875 -0.875 12.015625 -1.625 C 11.472656 -2.207031 10.96875 -2.984375 10.5 -3.953125 C 10.144531 -4.703125 9.789062 -5.453125 9.4375 -6.203125 C 9.09375 -6.953125 8.742188 -7.703125 8.390625 -8.453125 C 8.035156 -9.234375 7.679688 -10 7.328125 -10.75 C 6.972656 -11.5 6.617188 -12.25 6.265625 -13 C 5.941406 -13.675781 5.613281 -14.34375 5.28125 -15 C 4.957031 -15.664062 4.628906 -16.328125 4.296875 -16.984375 C 3.992188 -17.546875 3.703125 -18.109375 3.421875 -18.671875 C 3.140625 -19.234375 2.859375 -19.8125 2.578125 -20.40625 C 2.335938 -20.894531 2.109375 -21.378906 1.890625 -21.859375 C 1.679688 -22.335938 1.519531 -22.828125 1.40625 -23.328125 C 1.101562 -24.597656 1.429688 -25.5 2.390625 -26.03125 C 2.722656 -26.195312 3.078125 -26.28125 3.453125 -26.28125 C 4.160156 -26.28125 4.769531 -25.960938 5.28125 -25.328125 C 6.21875 -24.128906 7.144531 -22.9375 8.0625 -21.75 C 8.976562 -20.570312 9.828125 -19.347656 10.609375 -18.078125 C 11.097656 -17.328125 11.546875 -16.550781 11.953125 -15.75 C 12.367188 -14.945312 12.773438 -14.113281 13.171875 -13.25 C 13.359375 -12.851562 13.550781 -12.453125 13.75 -12.046875 C 13.957031 -11.648438 14.164062 -11.253906 14.375 -10.859375 L 14.765625 -10.109375 L 15.5 -11.9375 C 15.644531 -12.25 15.773438 -12.546875 15.890625 -12.828125 C 16.003906 -13.109375 16.125 -13.390625 16.25 -13.671875 C 16.40625 -14.066406 16.566406 -14.460938 16.734375 -14.859375 C 16.898438 -15.265625 17.066406 -15.664062 17.234375 -16.0625 C 17.648438 -17.125 18.085938 -18.1875 18.546875 -19.25 C 19.003906 -20.320312 19.46875 -21.382812 19.9375 -22.4375 C 20.40625 -23.5 21.03125 -24.535156 21.8125 -25.546875 C 22.257812 -26.109375 22.804688 -26.445312 23.453125 -26.5625 C 24.097656 -26.6875 24.703125 -26.570312 25.265625 -26.21875 Z M 25.265625 -26.21875 "/></g></g></g><g fill="#f794c6" fill-opacity="1"><g transform="translate(115.873443, 33.150476)"><g><path d="M 8.390625 -20.890625 C 8.546875 -18.398438 8.523438 -15.90625 8.328125 -13.40625 C 8.128906 -10.90625 7.890625 -8.445312 7.609375 -6.03125 L 7.40625 -3.90625 C 7.332031 -3.414062 7.140625 -2.890625 6.828125 -2.328125 C 6.265625 -1.359375 5.515625 -0.875 4.578125 -0.875 C 3.710938 -0.875 3.03125 -1.320312 2.53125 -2.21875 C 1.925781 -3.320312 1.585938 -4.554688 1.515625 -5.921875 C 1.441406 -6.835938 1.40625 -7.765625 1.40625 -8.703125 C 1.40625 -9.640625 1.414062 -10.566406 1.4375 -11.484375 C 1.4375 -11.859375 1.4375 -12.238281 1.4375 -12.625 C 1.4375 -13.019531 1.4375 -13.414062 1.4375 -13.8125 L 1.4375 -14.203125 L 1.296875 -14.203125 C 1.328125 -14.484375 1.347656 -14.769531 1.359375 -15.0625 C 1.367188 -15.351562 1.375 -15.640625 1.375 -15.921875 C 1.414062 -16.796875 1.457031 -17.671875 1.5 -18.546875 C 1.550781 -19.429688 1.613281 -20.320312 1.6875 -21.21875 C 1.78125 -22.3125 1.984375 -23.332031 2.296875 -24.28125 C 2.523438 -24.914062 2.890625 -25.410156 3.390625 -25.765625 C 3.898438 -26.128906 4.472656 -26.300781 5.109375 -26.28125 C 6.492188 -26.207031 7.382812 -25.523438 7.78125 -24.234375 C 8.09375 -23.273438 8.296875 -22.160156 8.390625 -20.890625 Z M 8.390625 -20.890625 "/></g></g></g><g fill="#f794c6" fill-opacity="1"><g transform="translate(125.704693, 33.150476)"><g><path d="M 26.390625 -25.234375 C 26.535156 -24.523438 26.609375 -23.769531 26.609375 -22.96875 L 26.53125 -20.078125 C 26.488281 -17.847656 26.441406 -15.585938 26.390625 -13.296875 C 26.335938 -11.003906 26.265625 -8.722656 26.171875 -6.453125 C 26.109375 -4.003906 25.394531 -2.40625 24.03125 -1.65625 C 22.71875 -0.925781 21.023438 -1.148438 18.953125 -2.328125 C 17.898438 -2.929688 16.929688 -3.660156 16.046875 -4.515625 C 15.171875 -5.378906 14.445312 -6.148438 13.875 -6.828125 C 13.175781 -7.628906 12.507812 -8.46875 11.875 -9.34375 C 11.238281 -10.226562 10.613281 -11.109375 10 -11.984375 C 9.75 -12.335938 9.5 -12.6875 9.25 -13.03125 C 9 -13.382812 8.742188 -13.738281 8.484375 -14.09375 L 8.34375 -14.34375 C 8.207031 -14.53125 8.054688 -14.722656 7.890625 -14.921875 C 7.722656 -15.117188 7.515625 -15.3125 7.265625 -15.5 L 6.65625 -15.96875 L 6.65625 -14.828125 C 6.65625 -14.691406 6.65625 -14.554688 6.65625 -14.421875 C 6.65625 -14.296875 6.65625 -14.160156 6.65625 -14.015625 L 6.546875 -11.734375 C 6.503906 -10.273438 6.457031 -8.800781 6.40625 -7.3125 C 6.363281 -5.820312 6.304688 -4.347656 6.234375 -2.890625 C 6.210938 -2.347656 6.0625 -1.804688 5.78125 -1.265625 C 5.425781 -0.535156 4.929688 -0.160156 4.296875 -0.140625 C 3.679688 -0.0976562 3.175781 -0.414062 2.78125 -1.09375 C 2.40625 -1.65625 2.195312 -2.207031 2.15625 -2.75 C 1.707031 -6.4375 1.4375 -9.828125 1.34375 -12.921875 C 1.25 -16.023438 1.328125 -19 1.578125 -21.84375 C 1.609375 -22.332031 1.738281 -22.847656 1.96875 -23.390625 C 2.34375 -24.359375 2.96875 -24.992188 3.84375 -25.296875 C 4.164062 -25.390625 4.484375 -25.4375 4.796875 -25.4375 C 5.359375 -25.4375 5.894531 -25.285156 6.40625 -24.984375 C 7.164062 -24.554688 7.800781 -24.015625 8.3125 -23.359375 C 8.90625 -22.609375 9.492188 -21.84375 10.078125 -21.0625 C 10.660156 -20.289062 11.234375 -19.53125 11.796875 -18.78125 C 12.128906 -18.351562 12.453125 -17.925781 12.765625 -17.5 C 13.085938 -17.082031 13.410156 -16.664062 13.734375 -16.25 C 14.304688 -15.488281 14.875 -14.742188 15.4375 -14.015625 C 16 -13.296875 16.5625 -12.554688 17.125 -11.796875 L 18.84375 -9.578125 L 19.765625 -9.9375 L 19.796875 -10.578125 C 19.828125 -10.710938 19.84375 -10.847656 19.84375 -10.984375 C 19.84375 -11.128906 19.851562 -11.273438 19.875 -11.421875 C 19.875 -11.953125 19.882812 -12.488281 19.90625 -13.03125 C 19.925781 -13.570312 19.9375 -14.113281 19.9375 -14.65625 C 19.988281 -16 20.035156 -17.347656 20.078125 -18.703125 C 20.128906 -20.066406 20.175781 -21.429688 20.21875 -22.796875 C 20.289062 -23.828125 20.515625 -24.835938 20.890625 -25.828125 C 21.148438 -26.460938 21.554688 -26.941406 22.109375 -27.265625 C 22.660156 -27.597656 23.265625 -27.726562 23.921875 -27.65625 C 24.535156 -27.582031 25.070312 -27.320312 25.53125 -26.875 C 25.988281 -26.4375 26.273438 -25.890625 26.390625 -25.234375 Z M 26.390625 -25.234375 "/></g></g></g><g fill="#f794c6" fill-opacity="1"><g transform="translate(153.648, 33.150476)"><g><path d="M 19.265625 -23.21875 C 20.492188 -22.019531 21.441406 -20.609375 22.109375 -18.984375 C 22.773438 -17.367188 23.109375 -15.664062 23.109375 -13.875 C 23.109375 -10.050781 21.59375 -7.023438 18.5625 -4.796875 C 14.6875 -1.953125 10.4375 -0.425781 5.8125 -0.21875 C 4.726562 -0.164062 3.671875 -0.445312 2.640625 -1.0625 C 1.984375 -1.40625 1.570312 -1.929688 1.40625 -2.640625 C 1.175781 -3.460938 1.332031 -4.320312 1.875 -5.21875 C 2.3125 -5.945312 2.546875 -6.707031 2.578125 -7.5 C 2.597656 -8.976562 2.617188 -10.457031 2.640625 -11.9375 C 2.660156 -13.425781 2.6875 -14.921875 2.71875 -16.421875 C 2.738281 -17.429688 2.753906 -18.445312 2.765625 -19.46875 C 2.773438 -20.488281 2.789062 -21.503906 2.8125 -22.515625 C 2.8125 -23.222656 2.875 -23.773438 3 -24.171875 C 3.132812 -24.566406 3.375 -24.878906 3.71875 -25.109375 C 4.0625 -25.347656 4.5625 -25.578125 5.21875 -25.796875 C 5.726562 -25.953125 6.265625 -26.09375 6.828125 -26.21875 C 7.398438 -26.351562 7.953125 -26.484375 8.484375 -26.609375 C 8.671875 -26.648438 8.859375 -26.6875 9.046875 -26.71875 C 9.242188 -26.757812 9.4375 -26.800781 9.625 -26.84375 L 9.65625 -26.640625 L 9.96875 -26.640625 C 11.757812 -26.710938 13.457031 -26.453125 15.0625 -25.859375 C 16.664062 -25.273438 18.066406 -24.394531 19.265625 -23.21875 Z M 14.125 -10.21875 C 14.945312 -10.707031 15.585938 -11.378906 16.046875 -12.234375 C 16.503906 -13.097656 16.722656 -14.023438 16.703125 -15.015625 C 16.703125 -16.046875 16.453125 -16.992188 15.953125 -17.859375 C 15.460938 -18.734375 14.796875 -19.425781 13.953125 -19.9375 C 13.222656 -20.382812 12.453125 -20.679688 11.640625 -20.828125 C 10.828125 -20.984375 10.023438 -21.113281 9.234375 -21.21875 C 9.066406 -21.238281 8.898438 -21.257812 8.734375 -21.28125 C 8.566406 -21.300781 8.390625 -21.328125 8.203125 -21.359375 L 7.75 -21.421875 L 8.421875 -7.21875 L 8.953125 -7.5 C 9.253906 -7.664062 9.550781 -7.816406 9.84375 -7.953125 C 10.132812 -8.097656 10.425781 -8.242188 10.71875 -8.390625 C 11.320312 -8.671875 11.90625 -8.957031 12.46875 -9.25 C 13.03125 -9.539062 13.582031 -9.863281 14.125 -10.21875 Z M 14.125 -10.21875 "/></g></g></g><g fill="#f794c6" fill-opacity="1"><g transform="translate(178.102801, 33.150476)"><g><path d="M 15.015625 -26.25 C 16.585938 -25.875 18.03125 -25.40625 19.34375 -24.84375 C 20.65625 -24.28125 21.789062 -23.546875 22.75 -22.640625 C 23.71875 -21.734375 24.488281 -20.59375 25.0625 -19.21875 C 25.644531 -17.84375 25.992188 -16.171875 26.109375 -14.203125 C 25.828125 -11.054688 24.921875 -8.550781 23.390625 -6.6875 C 23.085938 -6.363281 22.796875 -6.03125 22.515625 -5.6875 C 22.234375 -5.34375 21.941406 -5.007812 21.640625 -4.6875 L 20.96875 -3.875 C 18.707031 -1.238281 15.757812 -0.144531 12.125 -0.59375 C 11.863281 -0.625 11.601562 -0.660156 11.34375 -0.703125 C 11.082031 -0.753906 10.828125 -0.800781 10.578125 -0.84375 L 10.421875 -0.875 C 7.046875 -1.582031 4.554688 -3.347656 2.953125 -6.171875 C 2.066406 -7.710938 1.535156 -9.445312 1.359375 -11.375 C 1.179688 -13.300781 1.382812 -15.113281 1.96875 -16.8125 C 3.894531 -22.332031 7.550781 -25.441406 12.9375 -26.140625 L 13.3125 -26.21875 C 13.5 -26.238281 13.6875 -26.257812 13.875 -26.28125 C 14.070312 -26.300781 14.265625 -26.3125 14.453125 -26.3125 C 14.660156 -26.3125 14.847656 -26.289062 15.015625 -26.25 Z M 19.734375 -13.640625 L 19.765625 -13.734375 L 19.765625 -13.84375 C 19.597656 -15.113281 19.257812 -16.09375 18.75 -16.78125 C 18.25 -17.476562 17.445312 -18.050781 16.34375 -18.5 C 15.332031 -18.914062 14.453125 -19.316406 13.703125 -19.703125 C 12.691406 -20.210938 11.820312 -20.378906 11.09375 -20.203125 C 10.363281 -20.023438 9.6875 -19.476562 9.0625 -18.5625 C 7.175781 -15.726562 6.71875 -12.96875 7.6875 -10.28125 C 8.007812 -9.394531 8.53125 -8.644531 9.25 -8.03125 C 9.96875 -7.425781 10.796875 -7.023438 11.734375 -6.828125 C 12.054688 -6.765625 12.394531 -6.734375 12.75 -6.734375 C 14.257812 -6.734375 15.503906 -7.296875 16.484375 -8.421875 C 16.578125 -8.515625 16.664062 -8.601562 16.75 -8.6875 C 16.832031 -8.769531 16.910156 -8.847656 16.984375 -8.921875 C 17.191406 -9.148438 17.394531 -9.375 17.59375 -9.59375 C 17.800781 -9.820312 17.984375 -10.066406 18.140625 -10.328125 C 18.359375 -10.703125 18.5625 -11.082031 18.75 -11.46875 C 18.9375 -11.851562 19.109375 -12.25 19.265625 -12.65625 C 19.335938 -12.8125 19.410156 -12.972656 19.484375 -13.140625 C 19.554688 -13.304688 19.640625 -13.472656 19.734375 -13.640625 Z M 19.734375 -13.640625 "/></g></g></g><g fill="#f794c6" fill-opacity="1"><g transform="translate(205.552784, 33.150476)"><g><path d="M 1.34375 -7.828125 C 1.3125 -8.296875 1.296875 -8.769531 1.296875 -9.25 C 1.296875 -9.726562 1.296875 -10.21875 1.296875 -10.71875 C 1.347656 -13.320312 1.609375 -15.882812 2.078125 -18.40625 C 2.546875 -20.9375 3.34375 -23.382812 4.46875 -25.75 C 4.914062 -26.664062 5.457031 -27.539062 6.09375 -28.375 C 6.726562 -29.207031 7.351562 -30.050781 7.96875 -30.90625 C 8.125 -31.132812 8.34375 -31.351562 8.625 -31.5625 C 8.914062 -31.78125 9.203125 -31.910156 9.484375 -31.953125 C 9.828125 -32.023438 10.210938 -32.039062 10.640625 -32 C 11.066406 -31.96875 11.40625 -31.859375 11.65625 -31.671875 C 12.03125 -31.410156 12.191406 -31.078125 12.140625 -30.671875 C 12.097656 -30.265625 11.953125 -29.882812 11.703125 -29.53125 C 10.171875 -27.175781 9.03125 -24.742188 8.28125 -22.234375 C 7.53125 -19.722656 7.0625 -17.15625 6.875 -14.53125 C 6.6875 -11.914062 6.6875 -9.253906 6.875 -6.546875 C 6.96875 -5.046875 7.257812 -3.59375 7.75 -2.1875 C 8.238281 -0.78125 9.0625 0.472656 10.21875 1.578125 C 11.039062 2.378906 11.179688 3.3125 10.640625 4.375 C 10.378906 4.84375 9.992188 5.175781 9.484375 5.375 C 8.984375 5.570312 8.429688 5.585938 7.828125 5.421875 C 7.003906 5.234375 6.300781 4.894531 5.71875 4.40625 C 5.144531 3.914062 4.648438 3.316406 4.234375 2.609375 C 3.316406 0.984375 2.613281 -0.691406 2.125 -2.421875 C 1.644531 -4.160156 1.382812 -5.960938 1.34375 -7.828125 Z M 1.34375 -7.828125 "/></g></g></g><g fill="#f794c6" fill-opacity="1"><g transform="translate(219.013492, 33.150476)"><g><path d="M 26.953125 -5.78125 C 26.972656 -5.613281 27.007812 -5.460938 27.0625 -5.328125 C 27.039062 -4.453125 26.847656 -3.71875 26.484375 -3.125 C 26.117188 -2.539062 25.609375 -2.15625 24.953125 -1.96875 C 24.285156 -1.757812 23.644531 -1.785156 23.03125 -2.046875 C 22.425781 -2.304688 21.9375 -2.738281 21.5625 -3.34375 C 21.164062 -4.03125 20.828125 -4.878906 20.546875 -5.890625 C 20.453125 -6.265625 20.285156 -6.601562 20.046875 -6.90625 C 19.816406 -7.207031 19.394531 -7.375 18.78125 -7.40625 C 18.101562 -7.425781 17.421875 -7.445312 16.734375 -7.46875 C 16.054688 -7.488281 15.375 -7.515625 14.6875 -7.546875 C 13.800781 -7.585938 12.898438 -7.625 11.984375 -7.65625 C 11.066406 -7.695312 10.148438 -7.726562 9.234375 -7.75 C 8.992188 -7.75 8.734375 -7.648438 8.453125 -7.453125 C 8.171875 -7.253906 7.960938 -7.046875 7.828125 -6.828125 C 7.640625 -6.503906 7.457031 -6.171875 7.28125 -5.828125 C 7.101562 -5.492188 6.929688 -5.160156 6.765625 -4.828125 C 6.597656 -4.492188 6.425781 -4.148438 6.25 -3.796875 C 6.070312 -3.453125 5.878906 -3.113281 5.671875 -2.78125 C 4.847656 -1.351562 3.847656 -0.894531 2.671875 -1.40625 C 2.203125 -1.59375 1.820312 -1.96875 1.53125 -2.53125 C 1.238281 -3.09375 1.207031 -3.753906 1.4375 -4.515625 C 2.257812 -7.066406 3.316406 -9.96875 4.609375 -13.21875 C 5.429688 -15.28125 6.46875 -17.601562 7.71875 -20.1875 C 8.070312 -20.914062 8.460938 -21.6875 8.890625 -22.5 C 9.328125 -23.3125 9.804688 -24.101562 10.328125 -24.875 C 10.867188 -25.644531 11.65625 -26.328125 12.6875 -26.921875 C 13.457031 -27.390625 14.195312 -27.625 14.90625 -27.625 C 16.144531 -27.625 17.175781 -26.929688 18 -25.546875 C 19.625 -22.773438 21.210938 -19.890625 22.765625 -16.890625 C 24.316406 -13.898438 25.570312 -10.75 26.53125 -7.4375 C 26.625 -7.125 26.707031 -6.828125 26.78125 -6.546875 C 26.851562 -6.265625 26.910156 -6.007812 26.953125 -5.78125 Z M 11.3125 -13.703125 L 17.90625 -13.703125 L 14.125 -21.421875 Z M 11.3125 -13.703125 "/></g></g></g><g fill="#f794c6" fill-opacity="1"><g transform="translate(247.379658, 33.150476)"><g><path d="M 6.796875 -27.65625 C 7.828125 -25.1875 8.613281 -22.648438 9.15625 -20.046875 C 9.695312 -17.441406 9.957031 -14.660156 9.9375 -11.703125 C 10.050781 -9.179688 9.800781 -6.648438 9.1875 -4.109375 C 8.582031 -1.578125 7.46875 0.835938 5.84375 3.140625 C 5.6875 3.367188 5.519531 3.609375 5.34375 3.859375 C 5.164062 4.109375 4.96875 4.335938 4.75 4.546875 C 4.40625 4.898438 4.023438 5.117188 3.609375 5.203125 C 3.203125 5.285156 2.773438 5.207031 2.328125 4.96875 C 1.878906 4.726562 1.582031 4.410156 1.4375 4.015625 C 1.300781 3.617188 1.28125 3.1875 1.375 2.71875 C 1.488281 2.101562 1.6875 1.503906 1.96875 0.921875 C 3.707031 -2.515625 4.675781 -6.007812 4.875 -9.5625 C 5.070312 -13.125 4.785156 -16.738281 4.015625 -20.40625 C 3.785156 -21.550781 3.492188 -22.6875 3.140625 -23.8125 C 2.785156 -24.945312 2.441406 -26.078125 2.109375 -27.203125 C 2.066406 -27.367188 2.015625 -27.535156 1.953125 -27.703125 C 1.898438 -27.878906 1.859375 -28.050781 1.828125 -28.21875 C 1.785156 -28.71875 1.832031 -29.160156 1.96875 -29.546875 C 2.113281 -29.929688 2.410156 -30.242188 2.859375 -30.484375 C 3.328125 -30.734375 3.773438 -30.8125 4.203125 -30.71875 C 4.640625 -30.625 5.023438 -30.378906 5.359375 -29.984375 C 5.640625 -29.628906 5.898438 -29.257812 6.140625 -28.875 C 6.390625 -28.488281 6.609375 -28.082031 6.796875 -27.65625 Z M 6.796875 -27.65625 "/></g></g></g><g fill="#f794c6" fill-opacity="1"><g transform="translate(258.338493, 33.150476)"><g><path d="M 5.25 -9.515625 C 5.90625 -8.828125 6.488281 -8.078125 7 -7.265625 C 7.519531 -6.460938 7.796875 -5.5 7.828125 -4.375 C 7.773438 -3.21875 7.453125 -2.203125 6.859375 -1.328125 C 6.273438 -0.460938 5.503906 0.285156 4.546875 0.921875 C 4.265625 1.078125 3.894531 1.144531 3.4375 1.125 C 2.976562 1.101562 2.609375 1.007812 2.328125 0.84375 C 2.066406 0.675781 1.867188 0.398438 1.734375 0.015625 C 1.609375 -0.367188 1.507812 -0.738281 1.4375 -1.09375 C 1.394531 -1.320312 1.414062 -1.566406 1.5 -1.828125 C 1.582031 -2.085938 1.671875 -2.347656 1.765625 -2.609375 C 1.953125 -3.171875 2.046875 -3.722656 2.046875 -4.265625 C 2.046875 -4.804688 1.890625 -5.359375 1.578125 -5.921875 C 1.421875 -6.222656 1.328125 -6.578125 1.296875 -6.984375 C 1.273438 -7.398438 1.300781 -7.785156 1.375 -8.140625 C 1.507812 -8.722656 1.804688 -9.191406 2.265625 -9.546875 C 2.722656 -9.898438 3.226562 -10.082031 3.78125 -10.09375 C 4.332031 -10.101562 4.820312 -9.910156 5.25 -9.515625 Z M 5.25 -9.515625 "/></g></g></g><g fill="#f794c6" fill-opacity="1"><g transform="translate(267.464991, 33.150476)"><g/></g></g><g fill="#f794c6" fill-opacity="1"><g transform="translate(277.578161, 33.150476)"><g><path d="M 15.640625 -6.40625 C 16.066406 -6.4375 16.523438 -6.375 17.015625 -6.21875 C 17.515625 -6.0625 17.90625 -5.679688 18.1875 -5.078125 C 18.625 -4.140625 18.421875 -3.210938 17.578125 -2.296875 C 17.066406 -1.722656 16.457031 -1.265625 15.75 -0.921875 C 12.738281 0.535156 9.453125 0.914062 5.890625 0.21875 C 3.796875 -0.207031 2.429688 -1.570312 1.796875 -3.875 C 1.398438 -5.332031 1.234375 -6.796875 1.296875 -8.265625 C 1.367188 -9.734375 1.5 -11.113281 1.6875 -12.40625 C 1.851562 -13.476562 2.03125 -14.554688 2.21875 -15.640625 C 2.40625 -16.722656 2.59375 -17.789062 2.78125 -18.84375 C 2.875 -19.363281 2.960938 -19.875 3.046875 -20.375 C 3.128906 -20.882812 3.21875 -21.398438 3.3125 -21.921875 L 3.34375 -22.0625 C 3.363281 -22.195312 3.382812 -22.335938 3.40625 -22.484375 C 3.4375 -22.640625 3.425781 -22.800781 3.375 -22.96875 C 3.125 -24.257812 3.691406 -25.28125 5.078125 -26.03125 C 5.335938 -26.175781 5.597656 -26.304688 5.859375 -26.421875 C 6.128906 -26.546875 6.40625 -26.628906 6.6875 -26.671875 L 8.203125 -26.890625 C 9.285156 -27.023438 10.382812 -27.164062 11.5 -27.3125 C 12.613281 -27.46875 13.722656 -27.570312 14.828125 -27.625 C 14.921875 -27.625 15.015625 -27.625 15.109375 -27.625 C 16.210938 -27.625 17.109375 -27.304688 17.796875 -26.671875 C 18.398438 -26.128906 18.71875 -25.460938 18.75 -24.671875 C 18.769531 -23.773438 18.429688 -23.03125 17.734375 -22.4375 C 17.046875 -21.851562 16.140625 -21.523438 15.015625 -21.453125 C 14.285156 -21.410156 13.554688 -21.398438 12.828125 -21.421875 C 12.097656 -21.441406 11.367188 -21.476562 10.640625 -21.53125 L 9.71875 -21.5625 C 9.28125 -21.582031 8.929688 -21.585938 8.671875 -21.578125 C 8.410156 -21.566406 8.195312 -21.476562 8.03125 -21.3125 C 7.863281 -21.175781 7.769531 -20.976562 7.75 -20.71875 C 7.726562 -20.457031 7.71875 -20.101562 7.71875 -19.65625 C 7.71875 -19.207031 7.71875 -18.757812 7.71875 -18.3125 C 7.71875 -17.875 7.71875 -17.429688 7.71875 -16.984375 L 7.71875 -15.21875 L 8.171875 -15.296875 C 8.429688 -15.335938 8.679688 -15.378906 8.921875 -15.421875 C 9.171875 -15.472656 9.425781 -15.535156 9.6875 -15.609375 C 10.226562 -15.703125 10.757812 -15.796875 11.28125 -15.890625 C 11.8125 -15.984375 12.335938 -16.054688 12.859375 -16.109375 C 14.171875 -16.222656 15.394531 -16.148438 16.53125 -15.890625 C 17.539062 -15.679688 18.078125 -15.054688 18.140625 -14.015625 C 18.191406 -13.429688 18.0625 -12.96875 17.75 -12.625 C 17.445312 -12.289062 17.132812 -12.039062 16.8125 -11.875 C 15.988281 -11.445312 15.1875 -11.203125 14.40625 -11.140625 C 13.65625 -11.066406 12.882812 -11.007812 12.09375 -10.96875 C 11.3125 -10.9375 10.519531 -10.898438 9.71875 -10.859375 C 9.394531 -10.859375 9.0625 -10.84375 8.71875 -10.8125 C 8.375 -10.789062 8.03125 -10.78125 7.6875 -10.78125 L 7.328125 -10.75 L 7.328125 -10.390625 C 7.328125 -10.222656 7.328125 -10.050781 7.328125 -9.875 C 7.328125 -9.707031 7.328125 -9.539062 7.328125 -9.375 C 7.328125 -8.875 7.328125 -8.375 7.328125 -7.875 C 7.328125 -7.375 7.335938 -6.875 7.359375 -6.375 C 7.359375 -6.207031 7.410156 -6.0625 7.515625 -5.9375 C 7.628906 -5.8125 7.71875 -5.710938 7.78125 -5.640625 C 7.875 -5.566406 7.988281 -5.488281 8.125 -5.40625 C 8.269531 -5.320312 8.425781 -5.28125 8.59375 -5.28125 C 9.914062 -5.375 11.375 -5.550781 12.96875 -5.8125 C 13.175781 -5.832031 13.378906 -5.875 13.578125 -5.9375 C 13.773438 -6 13.972656 -6.050781 14.171875 -6.09375 C 14.421875 -6.164062 14.671875 -6.226562 14.921875 -6.28125 C 15.171875 -6.34375 15.410156 -6.382812 15.640625 -6.40625 Z M 15.640625 -6.40625 "/></g></g></g><g fill="#f794c6" fill-opacity="1"><g transform="translate(297.62825, 33.150476)"><g><path d="M 22.9375 -24.734375 C 23.3125 -23.796875 23.460938 -23.03125 23.390625 -22.4375 C 22.785156 -17.675781 22.175781 -13.425781 21.5625 -9.6875 C 21.445312 -9.070312 21.265625 -8.457031 21.015625 -7.84375 C 20.765625 -7.238281 20.5 -6.65625 20.21875 -6.09375 C 19 -3.582031 17.144531 -1.960938 14.65625 -1.234375 C 12.144531 -0.503906 9.679688 -0.890625 7.265625 -2.390625 C 3.597656 -4.671875 1.65625 -8.09375 1.4375 -12.65625 C 1.414062 -12.976562 1.410156 -13.300781 1.421875 -13.625 C 1.429688 -13.957031 1.4375 -14.289062 1.4375 -14.625 C 1.4375 -14.789062 1.4375 -14.945312 1.4375 -15.09375 C 1.4375 -15.25 1.4375 -15.394531 1.4375 -15.53125 L 1.4375 -15.921875 L 1.296875 -15.921875 L 1.40625 -17.15625 C 1.476562 -18.03125 1.546875 -18.898438 1.609375 -19.765625 C 1.679688 -20.628906 1.769531 -21.5 1.875 -22.375 C 1.894531 -22.695312 1.972656 -23.082031 2.109375 -23.53125 C 2.460938 -24.59375 3.132812 -25.160156 4.125 -25.234375 C 4.59375 -25.253906 5.019531 -25.113281 5.40625 -24.8125 C 5.789062 -24.519531 6.054688 -24.117188 6.203125 -23.609375 C 6.460938 -22.785156 6.648438 -21.773438 6.765625 -20.578125 C 6.835938 -19.773438 6.90625 -18.972656 6.96875 -18.171875 C 7.039062 -17.378906 7.113281 -16.582031 7.1875 -15.78125 C 7.238281 -15.289062 7.285156 -14.785156 7.328125 -14.265625 C 7.378906 -13.753906 7.425781 -13.238281 7.46875 -12.71875 C 7.675781 -10.414062 8.6875 -8.664062 10.5 -7.46875 C 11.675781 -6.695312 12.742188 -6.484375 13.703125 -6.828125 C 14.578125 -7.160156 15.175781 -7.90625 15.5 -9.0625 C 15.832031 -10.226562 16.101562 -11.410156 16.3125 -12.609375 C 16.519531 -13.804688 16.707031 -14.992188 16.875 -16.171875 L 16.984375 -16.734375 C 17.054688 -17.253906 17.113281 -17.773438 17.15625 -18.296875 C 17.207031 -18.828125 17.253906 -19.351562 17.296875 -19.875 C 17.316406 -20.289062 17.347656 -20.726562 17.390625 -21.1875 C 17.441406 -21.644531 17.492188 -22.085938 17.546875 -22.515625 C 17.660156 -23.410156 17.90625 -24.222656 18.28125 -24.953125 C 18.78125 -25.890625 19.59375 -26.320312 20.71875 -26.25 C 21.800781 -26.195312 22.539062 -25.691406 22.9375 -24.734375 Z M 22.9375 -24.734375 "/></g></g></g><g fill="#f794c6" fill-opacity="1"><g transform="translate(322.364958, 33.150476)"><g/></g></g><g fill="#f794c6" fill-opacity="1"><g transform="translate(332.478128, 33.150476)"><g><path d="M 18.890625 -8.484375 C 19.304688 -6.816406 19.171875 -5.328125 18.484375 -4.015625 C 17.804688 -2.703125 16.695312 -1.785156 15.15625 -1.265625 C 13.414062 -0.660156 11.320312 -0.3125 8.875 -0.21875 C 7.769531 -0.164062 6.789062 -0.414062 5.9375 -0.96875 C 5.082031 -1.519531 4.394531 -2.078125 3.875 -2.640625 C 3.3125 -3.273438 2.960938 -3.957031 2.828125 -4.6875 C 2.703125 -5.414062 2.816406 -6.070312 3.171875 -6.65625 C 3.734375 -7.644531 4.660156 -8.140625 5.953125 -8.140625 C 6.304688 -8.140625 6.660156 -8.101562 7.015625 -8.03125 C 7.148438 -7.988281 7.300781 -7.945312 7.46875 -7.90625 C 7.632812 -7.875 7.785156 -7.832031 7.921875 -7.78125 C 8.554688 -7.59375 9.203125 -7.441406 9.859375 -7.328125 C 10.523438 -7.210938 11.21875 -7.257812 11.9375 -7.46875 L 13.109375 -7.828125 L 12.9375 -8.203125 C 12.625 -8.929688 12.1875 -9.46875 11.625 -9.8125 C 11.0625 -10.15625 10.472656 -10.421875 9.859375 -10.609375 C 7.441406 -11.335938 5.257812 -12.6875 3.3125 -14.65625 C 1.875 -16.113281 1.203125 -17.75 1.296875 -19.5625 C 1.390625 -21.34375 2.203125 -22.851562 3.734375 -24.09375 C 6.648438 -26.488281 9.953125 -27.253906 13.640625 -26.390625 C 15.285156 -26.015625 16.503906 -25.179688 17.296875 -23.890625 C 17.609375 -23.347656 17.785156 -22.757812 17.828125 -22.125 C 17.828125 -21.9375 17.800781 -21.722656 17.75 -21.484375 C 17.707031 -21.253906 17.601562 -21.082031 17.4375 -20.96875 C 17.15625 -20.75 16.722656 -20.757812 16.140625 -21 C 15.429688 -21.28125 14.570312 -21.539062 13.5625 -21.78125 C 12.550781 -22.03125 11.484375 -22.03125 10.359375 -21.78125 C 9.816406 -21.65625 9.289062 -21.472656 8.78125 -21.234375 C 8.28125 -21.003906 7.820312 -20.757812 7.40625 -20.5 C 6.90625 -20.21875 6.65625 -19.859375 6.65625 -19.421875 C 6.65625 -18.972656 6.890625 -18.59375 7.359375 -18.28125 L 8.140625 -17.828125 C 8.773438 -17.453125 9.414062 -17.082031 10.0625 -16.71875 C 10.707031 -16.351562 11.367188 -16.03125 12.046875 -15.75 C 15.804688 -14.25 18.085938 -11.828125 18.890625 -8.484375 Z M 18.890625 -8.484375 "/></g></g></g><g fill="#f794c6" fill-opacity="1"><g transform="translate(352.915831, 33.150476)"><g><path d="M 15.015625 -26.25 C 16.585938 -25.875 18.03125 -25.40625 19.34375 -24.84375 C 20.65625 -24.28125 21.789062 -23.546875 22.75 -22.640625 C 23.71875 -21.734375 24.488281 -20.59375 25.0625 -19.21875 C 25.644531 -17.84375 25.992188 -16.171875 26.109375 -14.203125 C 25.828125 -11.054688 24.921875 -8.550781 23.390625 -6.6875 C 23.085938 -6.363281 22.796875 -6.03125 22.515625 -5.6875 C 22.234375 -5.34375 21.941406 -5.007812 21.640625 -4.6875 L 20.96875 -3.875 C 18.707031 -1.238281 15.757812 -0.144531 12.125 -0.59375 C 11.863281 -0.625 11.601562 -0.660156 11.34375 -0.703125 C 11.082031 -0.753906 10.828125 -0.800781 10.578125 -0.84375 L 10.421875 -0.875 C 7.046875 -1.582031 4.554688 -3.347656 2.953125 -6.171875 C 2.066406 -7.710938 1.535156 -9.445312 1.359375 -11.375 C 1.179688 -13.300781 1.382812 -15.113281 1.96875 -16.8125 C 3.894531 -22.332031 7.550781 -25.441406 12.9375 -26.140625 L 13.3125 -26.21875 C 13.5 -26.238281 13.6875 -26.257812 13.875 -26.28125 C 14.070312 -26.300781 14.265625 -26.3125 14.453125 -26.3125 C 14.660156 -26.3125 14.847656 -26.289062 15.015625 -26.25 Z M 19.734375 -13.640625 L 19.765625 -13.734375 L 19.765625 -13.84375 C 19.597656 -15.113281 19.257812 -16.09375 18.75 -16.78125 C 18.25 -17.476562 17.445312 -18.050781 16.34375 -18.5 C 15.332031 -18.914062 14.453125 -19.316406 13.703125 -19.703125 C 12.691406 -20.210938 11.820312 -20.378906 11.09375 -20.203125 C 10.363281 -20.023438 9.6875 -19.476562 9.0625 -18.5625 C 7.175781 -15.726562 6.71875 -12.96875 7.6875 -10.28125 C 8.007812 -9.394531 8.53125 -8.644531 9.25 -8.03125 C 9.96875 -7.425781 10.796875 -7.023438 11.734375 -6.828125 C 12.054688 -6.765625 12.394531 -6.734375 12.75 -6.734375 C 14.257812 -6.734375 15.503906 -7.296875 16.484375 -8.421875 C 16.578125 -8.515625 16.664062 -8.601562 16.75 -8.6875 C 16.832031 -8.769531 16.910156 -8.847656 16.984375 -8.921875 C 17.191406 -9.148438 17.394531 -9.375 17.59375 -9.59375 C 17.800781 -9.820312 17.984375 -10.066406 18.140625 -10.328125 C 18.359375 -10.703125 18.5625 -11.082031 18.75 -11.46875 C 18.9375 -11.851562 19.109375 -12.25 19.265625 -12.65625 C 19.335938 -12.8125 19.410156 -12.972656 19.484375 -13.140625 C 19.554688 -13.304688 19.640625 -13.472656 19.734375 -13.640625 Z M 19.734375 -13.640625 "/></g></g></g><g fill="#f794c6" fill-opacity="1"><g transform="translate(380.365814, 33.150476)"><g><path d="M 22.9375 -24.734375 C 23.3125 -23.796875 23.460938 -23.03125 23.390625 -22.4375 C 22.785156 -17.675781 22.175781 -13.425781 21.5625 -9.6875 C 21.445312 -9.070312 21.265625 -8.457031 21.015625 -7.84375 C 20.765625 -7.238281 20.5 -6.65625 20.21875 -6.09375 C 19 -3.582031 17.144531 -1.960938 14.65625 -1.234375 C 12.144531 -0.503906 9.679688 -0.890625 7.265625 -2.390625 C 3.597656 -4.671875 1.65625 -8.09375 1.4375 -12.65625 C 1.414062 -12.976562 1.410156 -13.300781 1.421875 -13.625 C 1.429688 -13.957031 1.4375 -14.289062 1.4375 -14.625 C 1.4375 -14.789062 1.4375 -14.945312 1.4375 -15.09375 C 1.4375 -15.25 1.4375 -15.394531 1.4375 -15.53125 L 1.4375 -15.921875 L 1.296875 -15.921875 L 1.40625 -17.15625 C 1.476562 -18.03125 1.546875 -18.898438 1.609375 -19.765625 C 1.679688 -20.628906 1.769531 -21.5 1.875 -22.375 C 1.894531 -22.695312 1.972656 -23.082031 2.109375 -23.53125 C 2.460938 -24.59375 3.132812 -25.160156 4.125 -25.234375 C 4.59375 -25.253906 5.019531 -25.113281 5.40625 -24.8125 C 5.789062 -24.519531 6.054688 -24.117188 6.203125 -23.609375 C 6.460938 -22.785156 6.648438 -21.773438 6.765625 -20.578125 C 6.835938 -19.773438 6.90625 -18.972656 6.96875 -18.171875 C 7.039062 -17.378906 7.113281 -16.582031 7.1875 -15.78125 C 7.238281 -15.289062 7.285156 -14.785156 7.328125 -14.265625 C 7.378906 -13.753906 7.425781 -13.238281 7.46875 -12.71875 C 7.675781 -10.414062 8.6875 -8.664062 10.5 -7.46875 C 11.675781 -6.695312 12.742188 -6.484375 13.703125 -6.828125 C 14.578125 -7.160156 15.175781 -7.90625 15.5 -9.0625 C 15.832031 -10.226562 16.101562 -11.410156 16.3125 -12.609375 C 16.519531 -13.804688 16.707031 -14.992188 16.875 -16.171875 L 16.984375 -16.734375 C 17.054688 -17.253906 17.113281 -17.773438 17.15625 -18.296875 C 17.207031 -18.828125 17.253906 -19.351562 17.296875 -19.875 C 17.316406 -20.289062 17.347656 -20.726562 17.390625 -21.1875 C 17.441406 -21.644531 17.492188 -22.085938 17.546875 -22.515625 C 17.660156 -23.410156 17.90625 -24.222656 18.28125 -24.953125 C 18.78125 -25.890625 19.59375 -26.320312 20.71875 -26.25 C 21.800781 -26.195312 22.539062 -25.691406 22.9375 -24.734375 Z M 22.9375 -24.734375 "/></g></g></g></g></g></svg>