<svg xmlns="http://www.w3.org/2000/svg" xmlns:xlink="http://www.w3.org/1999/xlink" width="1200" zoomAndPan="magnify" viewBox="0 0 900 307.91998" height="400" preserveAspectRatio="xMidYMid meet" version="1.0"><defs><g/><clipPath id="2714b878e9"><path d="M 15.636719 95.949219 L 895.691406 95.949219 L 895.691406 222.804688 L 15.636719 222.804688 Z M 15.636719 95.949219 " clip-rule="nonzero"/></clipPath><clipPath id="cad534c4cd"><path d="M 32.507812 95.949219 L 878.511719 95.949219 C 882.988281 95.949219 887.277344 97.726562 890.441406 100.890625 C 893.605469 104.054688 895.382812 108.347656 895.382812 112.820312 L 895.382812 205.933594 C 895.382812 210.410156 893.605469 214.699219 890.441406 217.863281 C 887.277344 221.027344 882.988281 222.804688 878.511719 222.804688 L 32.507812 222.804688 C 28.03125 222.804688 23.742188 221.027344 20.578125 217.863281 C 17.414062 214.699219 15.636719 210.410156 15.636719 205.933594 L 15.636719 112.820312 C 15.636719 108.347656 17.414062 104.054688 20.578125 100.890625 C 23.742188 97.726562 28.03125 95.949219 32.507812 95.949219 Z M 32.507812 95.949219 " clip-rule="nonzero"/></clipPath><clipPath id="cb59f642f3"><path d="M 0.636719 0.949219 L 880.5625 0.949219 L 880.5625 127.804688 L 0.636719 127.804688 Z M 0.636719 0.949219 " clip-rule="nonzero"/></clipPath><clipPath id="f6bd6c965f"><path d="M 17.507812 0.949219 L 863.511719 0.949219 C 867.988281 0.949219 872.277344 2.726562 875.441406 5.890625 C 878.605469 9.054688 880.382812 13.347656 880.382812 17.820312 L 880.382812 110.933594 C 880.382812 115.410156 878.605469 119.699219 875.441406 122.863281 C 872.277344 126.027344 867.988281 127.804688 863.511719 127.804688 L 17.507812 127.804688 C 13.03125 127.804688 8.742188 126.027344 5.578125 122.863281 C 2.414062 119.699219 0.636719 115.410156 0.636719 110.933594 L 0.636719 17.820312 C 0.636719 13.347656 2.414062 9.054688 5.578125 5.890625 C 8.742188 2.726562 13.03125 0.949219 17.507812 0.949219 Z M 17.507812 0.949219 " clip-rule="nonzero"/></clipPath><clipPath id="f010aff9fa"><rect x="0" width="881" y="0" height="128"/></clipPath><clipPath id="a4981c9b70"><path d="M 15.664062 95.949219 L 895.15625 95.949219 L 895.15625 222.667969 L 15.664062 222.667969 Z M 15.664062 95.949219 " clip-rule="nonzero"/></clipPath><clipPath id="ffaf544a79"><path d="M 32.535156 95.949219 L 878.480469 95.949219 C 882.957031 95.949219 887.246094 97.726562 890.410156 100.890625 C 893.574219 104.054688 895.351562 108.34375 895.351562 112.820312 L 895.351562 205.925781 C 895.351562 210.402344 893.574219 214.691406 890.410156 217.855469 C 887.246094 221.019531 882.957031 222.796875 878.480469 222.796875 L 32.535156 222.796875 C 28.058594 222.796875 23.769531 221.019531 20.605469 217.855469 C 17.441406 214.691406 15.664062 210.402344 15.664062 205.925781 L 15.664062 112.820312 C 15.664062 108.34375 17.441406 104.054688 20.605469 100.890625 C 23.769531 97.726562 28.058594 95.949219 32.535156 95.949219 Z M 32.535156 95.949219 " clip-rule="nonzero"/></clipPath><clipPath id="b278db0c11"><path d="M 3.355469 83.808594 L 883.414062 83.808594 L 883.414062 210.664062 L 3.355469 210.664062 Z M 3.355469 83.808594 " clip-rule="nonzero"/></clipPath><clipPath id="3e9e2c04e3"><path d="M 20.226562 83.808594 L 866.234375 83.808594 C 870.710938 83.808594 875 85.585938 878.164062 88.75 C 881.328125 91.914062 883.105469 96.203125 883.105469 100.679688 L 883.105469 193.792969 C 883.105469 198.265625 881.328125 202.558594 878.164062 205.722656 C 875 208.886719 870.710938 210.664062 866.234375 210.664062 L 20.226562 210.664062 C 15.753906 210.664062 11.460938 208.886719 8.296875 205.722656 C 5.132812 202.558594 3.355469 198.265625 3.355469 193.792969 L 3.355469 100.679688 C 3.355469 96.203125 5.132812 91.914062 8.296875 88.75 C 11.460938 85.585938 15.753906 83.808594 20.226562 83.808594 Z M 20.226562 83.808594 " clip-rule="nonzero"/></clipPath><clipPath id="f02295f6e9"><path d="M 0.355469 0.808594 L 880 0.808594 L 880 127.664062 L 0.355469 127.664062 Z M 0.355469 0.808594 " clip-rule="nonzero"/></clipPath><clipPath id="2d36f5249d"><path d="M 17.226562 0.808594 L 863.234375 0.808594 C 867.710938 0.808594 872 2.585938 875.164062 5.75 C 878.328125 8.914062 880.105469 13.203125 880.105469 17.679688 L 880.105469 110.792969 C 880.105469 115.265625 878.328125 119.558594 875.164062 122.722656 C 872 125.886719 867.710938 127.664062 863.234375 127.664062 L 17.226562 127.664062 C 12.753906 127.664062 8.460938 125.886719 5.296875 122.722656 C 2.132812 119.558594 0.355469 115.265625 0.355469 110.792969 L 0.355469 17.679688 C 0.355469 13.203125 2.132812 8.914062 5.296875 5.75 C 8.460938 2.585938 12.753906 0.808594 17.226562 0.808594 Z M 17.226562 0.808594 " clip-rule="nonzero"/></clipPath><clipPath id="2d09c2fa23"><rect x="0" width="881" y="0" height="128"/></clipPath><clipPath id="c66ca78b31"><path d="M 3.386719 83.808594 L 882.878906 83.808594 L 882.878906 210.523438 L 3.386719 210.523438 Z M 3.386719 83.808594 " clip-rule="nonzero"/></clipPath><clipPath id="d96839a88d"><path d="M 20.253906 83.808594 L 866.203125 83.808594 C 870.675781 83.808594 874.96875 85.585938 878.132812 88.75 C 881.292969 91.914062 883.070312 96.203125 883.070312 100.675781 L 883.070312 193.785156 C 883.070312 198.257812 881.292969 202.550781 878.132812 205.714844 C 874.96875 208.875 870.675781 210.652344 866.203125 210.652344 L 20.253906 210.652344 C 15.78125 210.652344 11.492188 208.875 8.328125 205.714844 C 5.164062 202.550781 3.386719 198.257812 3.386719 193.785156 L 3.386719 100.675781 C 3.386719 96.203125 5.164062 91.914062 8.328125 88.75 C 11.492188 85.585938 15.78125 83.808594 20.253906 83.808594 Z M 20.253906 83.808594 " clip-rule="nonzero"/></clipPath><clipPath id="4840c4b5dd"><rect x="0" width="772" y="0" height="80"/></clipPath></defs><g clip-path="url(#2714b878e9)"><g clip-path="url(#cad534c4cd)"><g transform="matrix(1, 0, 0, 1, 15, 95)"><g clip-path="url(#f010aff9fa)"><g clip-path="url(#cb59f642f3)"><g clip-path="url(#f6bd6c965f)"><path fill="#ffffff" d="M 0.636719 0.949219 L 880.195312 0.949219 L 880.195312 127.804688 L 0.636719 127.804688 Z M 0.636719 0.949219 " fill-opacity="1" fill-rule="nonzero"/></g></g></g></g></g></g><g clip-path="url(#a4981c9b70)"><g clip-path="url(#ffaf544a79)"><path stroke-linecap="butt" transform="matrix(0.749805, 0, 0, 0.749805, 15.664607, 95.950276)" fill="none" stroke-linejoin="miter" d="M 22.499913 -0.00141049 L 1150.720161 -0.00141049 C 1156.690462 -0.00141049 1162.410698 2.368997 1166.630545 6.588844 C 1170.850391 10.80869 1173.220799 16.528927 1173.220799 22.499228 L 1173.220799 146.672119 C 1173.220799 152.64242 1170.850391 158.362657 1166.630545 162.582503 C 1162.410698 166.80235 1156.690462 169.172757 1150.720161 169.172757 L 22.499913 169.172757 C 16.529611 169.172757 10.809375 166.80235 6.589529 162.582503 C 2.369682 158.362657 -0.000725586 152.64242 -0.000725586 146.672119 L -0.000725586 22.499228 C -0.000725586 16.528927 2.369682 10.80869 6.589529 6.588844 C 10.809375 2.368997 16.529611 -0.00141049 22.499913 -0.00141049 Z M 22.499913 -0.00141049 " stroke="#000000" stroke-width="8" stroke-opacity="1" stroke-miterlimit="4"/></g></g><g clip-path="url(#b278db0c11)"><g clip-path="url(#3e9e2c04e3)"><g transform="matrix(1, 0, 0, 1, 3, 83)"><g clip-path="url(#2d09c2fa23)"><g clip-path="url(#f02295f6e9)"><g clip-path="url(#2d36f5249d)"><path fill="#f794c6" d="M 0.355469 0.808594 L 879.917969 0.808594 L 879.917969 127.664062 L 0.355469 127.664062 Z M 0.355469 0.808594 " fill-opacity="1" fill-rule="nonzero"/></g></g></g></g></g></g><g clip-path="url(#c66ca78b31)"><g clip-path="url(#d96839a88d)"><path stroke-linecap="butt" transform="matrix(0.749805, 0, 0, 0.749805, 3.386, 83.807944)" fill="none" stroke-linejoin="miter" d="M 22.496387 0.000866146 L 1150.721845 0.000866146 C 1156.686937 0.000866146 1162.412383 2.371274 1166.632229 6.59112 C 1170.846866 10.810967 1173.217274 16.531203 1173.217274 22.496295 L 1173.217274 146.674395 C 1173.217274 152.639487 1170.846866 158.364933 1166.632229 162.58478 C 1162.412383 166.799417 1156.686937 169.169824 1150.721845 169.169824 L 22.496387 169.169824 C 16.531296 169.169824 10.811059 166.799417 6.591213 162.58478 C 2.371366 158.364933 0.000958659 152.639487 0.000958659 146.674395 L 0.000958659 22.496295 C 0.000958659 16.531203 2.371366 10.810967 6.591213 6.59112 C 10.811059 2.371274 16.531296 0.000866146 22.496387 0.000866146 Z M 22.496387 0.000866146 " stroke="#000000" stroke-width="8" stroke-opacity="1" stroke-miterlimit="4"/></g></g><g transform="matrix(1, 0, 0, 1, 70, 110)"><g clip-path="url(#4840c4b5dd)"><g fill="#ff5991" fill-opacity="1"><g transform="translate(4.697764, 65.640246)"><g><path d="M 15.40625 -0.078125 C 11.625 -1.328125 8.640625 -2.894531 6.453125 -4.78125 C 4.273438 -6.675781 2.691406 -9.234375 1.703125 -12.453125 C 0.722656 -15.671875 0.15625 -19.820312 0 -24.90625 C 0.15625 -29.988281 0.738281 -34.539062 1.75 -38.5625 C 2.757812 -42.59375 4.351562 -45.992188 6.53125 -48.765625 C 8.71875 -51.546875 11.675781 -53.554688 15.40625 -54.796875 C 17.332031 -55.421875 19.515625 -55.769531 21.953125 -55.84375 C 24.390625 -55.925781 26.800781 -55.691406 29.1875 -55.140625 C 31.570312 -54.597656 33.648438 -53.734375 35.421875 -52.546875 C 38.015625 -50.773438 40.023438 -48.566406 41.453125 -45.921875 C 42.878906 -43.273438 43.890625 -40.253906 44.484375 -36.859375 C 45.085938 -33.460938 45.460938 -29.6875 45.609375 -25.53125 C 45.609375 -20.8125 44.878906 -16.441406 43.421875 -12.421875 C 41.972656 -8.398438 39.304688 -5.0625 35.421875 -2.40625 C 33.648438 -1.21875 31.570312 -0.351562 29.1875 0.1875 C 26.800781 0.738281 24.390625 0.972656 21.953125 0.890625 C 19.515625 0.816406 17.332031 0.492188 15.40625 -0.078125 Z M 17.90625 -26.703125 C 17.957031 -23.484375 18.460938 -21.039062 19.421875 -19.375 C 20.378906 -17.71875 21.492188 -16.847656 22.765625 -16.765625 C 24.035156 -16.691406 25.175781 -17.429688 26.1875 -18.984375 C 27.207031 -20.546875 27.769531 -22.910156 27.875 -26.078125 C 27.875 -30.179688 27.363281 -33.320312 26.34375 -35.5 C 25.332031 -37.675781 24.164062 -38.828125 22.84375 -38.953125 C 21.519531 -39.085938 20.363281 -38.140625 19.375 -36.109375 C 18.394531 -34.085938 17.90625 -30.953125 17.90625 -26.703125 Z M 17.90625 -26.703125 "/></g></g></g><g fill="#ff5991" fill-opacity="1"><g transform="translate(53.423121, 65.640246)"><g><path d="M 2.71875 0.46875 C 2.050781 0.46875 1.429688 0.128906 0.859375 -0.546875 C 0.285156 -1.222656 0 -1.894531 0 -2.5625 L 0.15625 -51.609375 C 0.15625 -52.597656 0.441406 -53.347656 1.015625 -53.859375 C 1.585938 -54.378906 2.207031 -54.640625 2.875 -54.640625 L 16.8125 -54.5625 C 18.0625 -54.5625 18.941406 -53.941406 19.453125 -52.703125 L 27.640625 -33.234375 L 27.71875 -51.765625 C 27.71875 -52.703125 28 -53.425781 28.5625 -53.9375 C 29.132812 -54.457031 29.757812 -54.71875 30.4375 -54.71875 L 44.375 -54.640625 C 45.195312 -54.640625 45.894531 -54.34375 46.46875 -53.75 C 47.039062 -53.15625 47.273438 -52.441406 47.171875 -51.609375 L 46.546875 -2.484375 C 46.546875 -1.710938 46.273438 -1.023438 45.734375 -0.421875 C 45.191406 0.171875 44.53125 0.46875 43.75 0.46875 L 30.515625 0.46875 C 29.835938 0.46875 29.289062 0.207031 28.875 -0.3125 C 28.457031 -0.832031 28.148438 -1.300781 27.953125 -1.71875 L 19.078125 -20.078125 L 18.765625 -2.5625 C 18.765625 -1.632812 18.476562 -0.894531 17.90625 -0.34375 C 17.332031 0.195312 16.679688 0.46875 15.953125 0.46875 Z M 2.71875 0.46875 "/></g></g></g><g fill="#ff5991" fill-opacity="1"><g transform="translate(103.705193, 65.640246)"><g><path d="M 2.953125 0.546875 C 2.179688 0.546875 1.507812 0.234375 0.9375 -0.390625 C 0.3125 -1.015625 0 -1.738281 0 -2.5625 L 0.15625 -52.078125 C 0.15625 -52.910156 0.441406 -53.660156 1.015625 -54.328125 C 1.585938 -54.953125 2.285156 -55.265625 3.109375 -55.265625 L 15.03125 -55.1875 C 17.832031 -55.1875 20.710938 -55.066406 23.671875 -54.828125 C 26.628906 -54.597656 29.457031 -54.082031 32.15625 -53.28125 C 34.851562 -52.476562 37.273438 -51.21875 39.421875 -49.5 C 41.578125 -47.789062 43.226562 -45.457031 44.375 -42.5 C 45.195312 -40.375 45.789062 -37.859375 46.15625 -34.953125 C 46.519531 -32.046875 46.675781 -29.113281 46.625 -26.15625 C 46.570312 -23.195312 46.335938 -20.578125 45.921875 -18.296875 C 45.253906 -14.296875 43.867188 -11.035156 41.765625 -8.515625 C 39.660156 -6.003906 37.101562 -4.085938 34.09375 -2.765625 C 31.082031 -1.441406 27.835938 -0.546875 24.359375 -0.078125 C 20.890625 0.390625 17.441406 0.597656 14.015625 0.546875 Z M 17.359375 -18.84375 C 18.804688 -18.789062 20.191406 -18.914062 21.515625 -19.21875 C 22.847656 -19.53125 24.046875 -20.179688 25.109375 -21.171875 C 26.171875 -22.160156 27.015625 -23.640625 27.640625 -25.609375 C 28.046875 -28.566406 28.039062 -30.769531 27.625 -32.21875 C 27.21875 -33.675781 26.546875 -34.675781 25.609375 -35.21875 C 24.671875 -35.769531 23.582031 -36.148438 22.34375 -36.359375 C 21.507812 -36.515625 20.703125 -36.601562 19.921875 -36.625 C 19.148438 -36.65625 18.398438 -36.617188 17.671875 -36.515625 Z M 17.359375 -18.84375 "/></g></g></g><g fill="#ff5991" fill-opacity="1"><g transform="translate(153.442406, 65.640246)"><g><path d="M 2.796875 0 C 2.128906 0 1.507812 -0.285156 0.9375 -0.859375 C 0.414062 -1.378906 0.15625 -2.101562 0.15625 -3.03125 L 0 -52.3125 C 0 -53.039062 0.285156 -53.738281 0.859375 -54.40625 C 1.429688 -55.03125 2.023438 -55.34375 2.640625 -55.34375 L 32.765625 -55.265625 C 33.648438 -55.265625 34.378906 -55.003906 34.953125 -54.484375 C 35.523438 -53.921875 35.8125 -53.273438 35.8125 -52.546875 L 35.8125 -40.953125 C 35.8125 -40.328125 35.5 -39.726562 34.875 -39.15625 C 34.300781 -38.6875 33.597656 -38.398438 32.765625 -38.296875 L 18.0625 -37.59375 L 18.21875 -33.703125 L 26.625 -33.625 C 27.300781 -33.625 27.894531 -33.441406 28.40625 -33.078125 C 28.925781 -32.710938 29.160156 -32.222656 29.109375 -31.609375 L 28.71875 -23.28125 C 28.71875 -22.757812 28.460938 -22.316406 27.953125 -21.953125 C 27.484375 -21.640625 26.910156 -21.429688 26.234375 -21.328125 L 18.53125 -20.9375 L 18.6875 -17.828125 L 32.765625 -17.203125 C 33.597656 -17.097656 34.300781 -16.8125 34.875 -16.34375 C 35.5 -15.820312 35.8125 -15.226562 35.8125 -14.5625 L 35.8125 -2.953125 C 35.8125 -2.234375 35.523438 -1.585938 34.953125 -1.015625 C 34.378906 -0.492188 33.648438 -0.234375 32.765625 -0.234375 L 11.984375 0 C 11.878906 0 11.75 0 11.59375 0 C 11.4375 0 11.304688 -0.0234375 11.203125 -0.078125 Z M 2.796875 0 "/></g></g></g><g fill="#ff5991" fill-opacity="1"><g transform="translate(192.360423, 65.640246)"><g/></g></g><g fill="#ff5991" fill-opacity="1"><g transform="translate(218.824667, 65.640246)"><g><path d="M 2.71875 0 C 2.050781 0 1.429688 -0.347656 0.859375 -1.046875 C 0.285156 -1.753906 0 -2.441406 0 -3.109375 L 0.15625 -52.78125 C 0.15625 -53.8125 0.441406 -54.585938 1.015625 -55.109375 C 1.585938 -55.628906 2.207031 -55.890625 2.875 -55.890625 L 16.8125 -55.8125 C 18.0625 -55.8125 18.941406 -55.191406 19.453125 -53.953125 L 28.875 -31.21875 L 38.21875 -53.953125 C 38.738281 -55.191406 39.625 -55.8125 40.875 -55.8125 L 54.796875 -55.890625 C 55.523438 -55.890625 56.160156 -55.628906 56.703125 -55.109375 C 57.253906 -54.585938 57.53125 -53.8125 57.53125 -52.78125 L 57.6875 -3.109375 C 57.6875 -2.441406 57.410156 -1.753906 56.859375 -1.046875 C 56.316406 -0.347656 55.679688 0 54.953125 0 L 41.71875 0 C 41.050781 0 40.414062 -0.269531 39.8125 -0.8125 C 39.21875 -1.363281 38.921875 -2.128906 38.921875 -3.109375 L 38.609375 -20.859375 L 33.546875 -10.28125 C 33.335938 -9.863281 33.023438 -9.394531 32.609375 -8.875 C 32.203125 -8.351562 31.660156 -8.09375 30.984375 -8.09375 L 26.703125 -8.09375 C 26.023438 -8.09375 25.476562 -8.351562 25.0625 -8.875 C 24.644531 -9.394531 24.332031 -9.863281 24.125 -10.28125 L 19.078125 -20.859375 L 18.765625 -3.109375 C 18.765625 -2.128906 18.476562 -1.363281 17.90625 -0.8125 C 17.332031 -0.269531 16.679688 0 15.953125 0 Z M 2.71875 0 "/></g></g></g><g fill="#ff5991" fill-opacity="1"><g transform="translate(279.614609, 65.640246)"><g><path d="M 2.796875 0 C 2.128906 0 1.507812 -0.285156 0.9375 -0.859375 C 0.414062 -1.378906 0.15625 -2.101562 0.15625 -3.03125 L 0 -52.3125 C 0 -53.039062 0.285156 -53.738281 0.859375 -54.40625 C 1.429688 -55.03125 2.023438 -55.34375 2.640625 -55.34375 L 32.765625 -55.265625 C 33.648438 -55.265625 34.378906 -55.003906 34.953125 -54.484375 C 35.523438 -53.921875 35.8125 -53.273438 35.8125 -52.546875 L 35.8125 -40.953125 C 35.8125 -40.328125 35.5 -39.726562 34.875 -39.15625 C 34.300781 -38.6875 33.597656 -38.398438 32.765625 -38.296875 L 18.0625 -37.59375 L 18.21875 -33.703125 L 26.625 -33.625 C 27.300781 -33.625 27.894531 -33.441406 28.40625 -33.078125 C 28.925781 -32.710938 29.160156 -32.222656 29.109375 -31.609375 L 28.71875 -23.28125 C 28.71875 -22.757812 28.460938 -22.316406 27.953125 -21.953125 C 27.484375 -21.640625 26.910156 -21.429688 26.234375 -21.328125 L 18.53125 -20.9375 L 18.6875 -17.828125 L 32.765625 -17.203125 C 33.597656 -17.097656 34.300781 -16.8125 34.875 -16.34375 C 35.5 -15.820312 35.8125 -15.226562 35.8125 -14.5625 L 35.8125 -2.953125 C 35.8125 -2.234375 35.523438 -1.585938 34.953125 -1.015625 C 34.378906 -0.492188 33.648438 -0.234375 32.765625 -0.234375 L 11.984375 0 C 11.878906 0 11.75 0 11.59375 0 C 11.4375 0 11.304688 -0.0234375 11.203125 -0.078125 Z M 2.796875 0 "/></g></g></g><g fill="#ff5991" fill-opacity="1"><g transform="translate(318.532643, 65.640246)"><g/></g></g><g fill="#ff5991" fill-opacity="1"><g transform="translate(344.99687, 65.640246)"><g><path d="M 2.796875 0 C 2.128906 0 1.507812 -0.285156 0.9375 -0.859375 C 0.414062 -1.378906 0.15625 -2.101562 0.15625 -3.03125 L 0 -52.3125 C 0 -53.039062 0.285156 -53.738281 0.859375 -54.40625 C 1.429688 -55.03125 2.023438 -55.34375 2.640625 -55.34375 L 32.765625 -55.265625 C 33.648438 -55.265625 34.378906 -55.003906 34.953125 -54.484375 C 35.523438 -53.921875 35.8125 -53.273438 35.8125 -52.546875 L 35.8125 -40.953125 C 35.8125 -40.328125 35.5 -39.726562 34.875 -39.15625 C 34.300781 -38.6875 33.597656 -38.398438 32.765625 -38.296875 L 18.0625 -37.59375 L 18.21875 -33.703125 L 26.625 -33.625 C 27.300781 -33.625 27.894531 -33.441406 28.40625 -33.078125 C 28.925781 -32.710938 29.160156 -32.222656 29.109375 -31.609375 L 28.71875 -23.28125 C 28.71875 -22.757812 28.460938 -22.316406 27.953125 -21.953125 C 27.484375 -21.640625 26.910156 -21.429688 26.234375 -21.328125 L 18.53125 -20.9375 L 18.6875 -17.828125 L 32.765625 -17.203125 C 33.597656 -17.097656 34.300781 -16.8125 34.875 -16.34375 C 35.5 -15.820312 35.8125 -15.226562 35.8125 -14.5625 L 35.8125 -2.953125 C 35.8125 -2.234375 35.523438 -1.585938 34.953125 -1.015625 C 34.378906 -0.492188 33.648438 -0.234375 32.765625 -0.234375 L 11.984375 0 C 11.878906 0 11.75 0 11.59375 0 C 11.4375 0 11.304688 -0.0234375 11.203125 -0.078125 Z M 2.796875 0 "/></g></g></g><g fill="#ff5991" fill-opacity="1"><g transform="translate(383.914887, 65.640246)"><g><path d="M 2.71875 0.46875 C 2.050781 0.46875 1.429688 0.128906 0.859375 -0.546875 C 0.285156 -1.222656 0 -1.894531 0 -2.5625 L 0.15625 -51.609375 C 0.15625 -52.597656 0.441406 -53.347656 1.015625 -53.859375 C 1.585938 -54.378906 2.207031 -54.640625 2.875 -54.640625 L 16.8125 -54.5625 C 18.0625 -54.5625 18.941406 -53.941406 19.453125 -52.703125 L 27.640625 -33.234375 L 27.71875 -51.765625 C 27.71875 -52.703125 28 -53.425781 28.5625 -53.9375 C 29.132812 -54.457031 29.757812 -54.71875 30.4375 -54.71875 L 44.375 -54.640625 C 45.195312 -54.640625 45.894531 -54.34375 46.46875 -53.75 C 47.039062 -53.15625 47.273438 -52.441406 47.171875 -51.609375 L 46.546875 -2.484375 C 46.546875 -1.710938 46.273438 -1.023438 45.734375 -0.421875 C 45.191406 0.171875 44.53125 0.46875 43.75 0.46875 L 30.515625 0.46875 C 29.835938 0.46875 29.289062 0.207031 28.875 -0.3125 C 28.457031 -0.832031 28.148438 -1.300781 27.953125 -1.71875 L 19.078125 -20.078125 L 18.765625 -2.5625 C 18.765625 -1.632812 18.476562 -0.894531 17.90625 -0.34375 C 17.332031 0.195312 16.679688 0.46875 15.953125 0.46875 Z M 2.71875 0.46875 "/></g></g></g><g fill="#ff5991" fill-opacity="1"><g transform="translate(434.196976, 65.640246)"><g><path d="M 31.84375 0.46875 C 28.675781 1.300781 25.429688 1.5625 22.109375 1.25 C 18.785156 0.9375 15.671875 0.0390625 12.765625 -1.4375 C 9.859375 -2.914062 7.445312 -4.925781 5.53125 -7.46875 C 3.863281 -9.75 2.578125 -12.378906 1.671875 -15.359375 C 0.765625 -18.347656 0.234375 -21.503906 0.078125 -24.828125 C -0.078125 -28.148438 0.078125 -31.421875 0.546875 -34.640625 C 1.429688 -40.035156 3.273438 -44.601562 6.078125 -48.34375 C 8.878906 -52.082031 12.378906 -54.675781 16.578125 -56.125 C 20.785156 -57.582031 25.429688 -57.582031 30.515625 -56.125 C 33.890625 -55.238281 36.519531 -53.941406 38.40625 -52.234375 C 40.300781 -50.523438 41.664062 -48.601562 42.5 -46.46875 C 43.332031 -44.34375 43.828125 -42.191406 43.984375 -40.015625 C 44.140625 -37.835938 44.164062 -35.835938 44.0625 -34.015625 C 44.007812 -32.460938 43.070312 -31.554688 41.25 -31.296875 L 30.203125 -30.984375 C 29.367188 -30.878906 28.640625 -31.097656 28.015625 -31.640625 C 27.398438 -32.179688 27.066406 -32.867188 27.015625 -33.703125 C 27.015625 -34.015625 26.972656 -34.570312 26.890625 -35.375 C 26.816406 -36.1875 26.648438 -37.003906 26.390625 -37.828125 C 26.128906 -38.660156 25.710938 -39.234375 25.140625 -39.546875 C 23.484375 -40.273438 22.222656 -40.128906 21.359375 -39.109375 C 20.503906 -38.097656 19.921875 -36.503906 19.609375 -34.328125 C 19.304688 -32.148438 19.15625 -29.660156 19.15625 -26.859375 L 19.15625 -26.46875 C 19.207031 -22.363281 19.828125 -19.351562 21.015625 -17.4375 C 22.210938 -15.519531 24.03125 -15.078125 26.46875 -16.109375 C 27.039062 -16.421875 27.441406 -16.976562 27.671875 -17.78125 C 27.910156 -18.59375 28.066406 -19.410156 28.140625 -20.234375 C 28.210938 -21.066406 28.25 -21.664062 28.25 -22.03125 C 28.300781 -22.8125 28.640625 -23.472656 29.265625 -24.015625 C 29.890625 -24.554688 30.617188 -24.773438 31.453125 -24.671875 L 42.5 -24.359375 C 44.375 -24.097656 45.335938 -23.164062 45.390625 -21.5625 C 45.484375 -19.800781 45.441406 -17.84375 45.265625 -15.6875 C 45.085938 -13.53125 44.582031 -11.390625 43.75 -9.265625 C 42.914062 -7.140625 41.5625 -5.21875 39.6875 -3.5 C 37.820312 -1.789062 35.207031 -0.46875 31.84375 0.46875 Z M 31.84375 0.46875 "/></g></g></g><g fill="#ff5991" fill-opacity="1"><g transform="translate(482.766628, 65.640246)"><g><path d="M 15.40625 -0.078125 C 11.625 -1.328125 8.640625 -2.894531 6.453125 -4.78125 C 4.273438 -6.675781 2.691406 -9.234375 1.703125 -12.453125 C 0.722656 -15.671875 0.15625 -19.820312 0 -24.90625 C 0.15625 -29.988281 0.738281 -34.539062 1.75 -38.5625 C 2.757812 -42.59375 4.351562 -45.992188 6.53125 -48.765625 C 8.71875 -51.546875 11.675781 -53.554688 15.40625 -54.796875 C 17.332031 -55.421875 19.515625 -55.769531 21.953125 -55.84375 C 24.390625 -55.925781 26.800781 -55.691406 29.1875 -55.140625 C 31.570312 -54.597656 33.648438 -53.734375 35.421875 -52.546875 C 38.015625 -50.773438 40.023438 -48.566406 41.453125 -45.921875 C 42.878906 -43.273438 43.890625 -40.253906 44.484375 -36.859375 C 45.085938 -33.460938 45.460938 -29.6875 45.609375 -25.53125 C 45.609375 -20.8125 44.878906 -16.441406 43.421875 -12.421875 C 41.972656 -8.398438 39.304688 -5.0625 35.421875 -2.40625 C 33.648438 -1.21875 31.570312 -0.351562 29.1875 0.1875 C 26.800781 0.738281 24.390625 0.972656 21.953125 0.890625 C 19.515625 0.816406 17.332031 0.492188 15.40625 -0.078125 Z M 17.90625 -26.703125 C 17.957031 -23.484375 18.460938 -21.039062 19.421875 -19.375 C 20.378906 -17.71875 21.492188 -16.847656 22.765625 -16.765625 C 24.035156 -16.691406 25.175781 -17.429688 26.1875 -18.984375 C 27.207031 -20.546875 27.769531 -22.910156 27.875 -26.078125 C 27.875 -30.179688 27.363281 -33.320312 26.34375 -35.5 C 25.332031 -37.675781 24.164062 -38.828125 22.84375 -38.953125 C 21.519531 -39.085938 20.363281 -38.140625 19.375 -36.109375 C 18.394531 -34.085938 17.90625 -30.953125 17.90625 -26.703125 Z M 17.90625 -26.703125 "/></g></g></g><g fill="#ff5991" fill-opacity="1"><g transform="translate(531.492002, 65.640246)"><g><path d="M 2.71875 0.46875 C 2.050781 0.46875 1.429688 0.128906 0.859375 -0.546875 C 0.285156 -1.222656 0 -1.894531 0 -2.5625 L 0.15625 -51.609375 C 0.15625 -52.597656 0.441406 -53.347656 1.015625 -53.859375 C 1.585938 -54.378906 2.207031 -54.640625 2.875 -54.640625 L 16.8125 -54.5625 C 18.0625 -54.5625 18.941406 -53.941406 19.453125 -52.703125 L 27.640625 -33.234375 L 27.71875 -51.765625 C 27.71875 -52.703125 28 -53.425781 28.5625 -53.9375 C 29.132812 -54.457031 29.757812 -54.71875 30.4375 -54.71875 L 44.375 -54.640625 C 45.195312 -54.640625 45.894531 -54.34375 46.46875 -53.75 C 47.039062 -53.15625 47.273438 -52.441406 47.171875 -51.609375 L 46.546875 -2.484375 C 46.546875 -1.710938 46.273438 -1.023438 45.734375 -0.421875 C 45.191406 0.171875 44.53125 0.46875 43.75 0.46875 L 30.515625 0.46875 C 29.835938 0.46875 29.289062 0.207031 28.875 -0.3125 C 28.457031 -0.832031 28.148438 -1.300781 27.953125 -1.71875 L 19.078125 -20.078125 L 18.765625 -2.5625 C 18.765625 -1.632812 18.476562 -0.894531 17.90625 -0.34375 C 17.332031 0.195312 16.679688 0.46875 15.953125 0.46875 Z M 2.71875 0.46875 "/></g></g></g><g fill="#ff5991" fill-opacity="1"><g transform="translate(581.774057, 65.640246)"><g><path d="M 12.453125 0 C 11.617188 0 10.921875 -0.285156 10.359375 -0.859375 C 9.785156 -1.429688 9.5 -2.15625 9.5 -3.03125 L 9.890625 -35.96875 L 3.109375 -35.96875 C 2.285156 -35.914062 1.5625 -36.1875 0.9375 -36.78125 C 0.3125 -37.375 0 -38.113281 0 -39 L 0.15625 -52.15625 C 0.257812 -53.039062 0.582031 -53.765625 1.125 -54.328125 C 1.675781 -54.898438 2.363281 -55.1875 3.1875 -55.1875 L 36.8125 -55.421875 C 37.695312 -55.421875 38.4375 -55.109375 39.03125 -54.484375 C 39.632812 -53.867188 39.910156 -53.117188 39.859375 -52.234375 L 39.46875 -38.921875 C 39.3125 -37.160156 38.351562 -36.203125 36.59375 -36.046875 L 30.28125 -36.046875 L 30.4375 -3.1875 C 30.539062 -2.3125 30.253906 -1.585938 29.578125 -1.015625 C 28.898438 -0.390625 28.175781 -0.078125 27.40625 -0.078125 Z M 12.453125 0 "/></g></g></g><g fill="#ff5991" fill-opacity="1"><g transform="translate(624.739602, 65.640246)"><g><path d="M 41.40625 0.390625 C 39.90625 0.335938 38.101562 0.3125 36 0.3125 C 33.894531 0.3125 31.390625 0.3125 28.484375 0.3125 C 27.660156 0.3125 26.988281 0.0507812 26.46875 -0.46875 C 25.945312 -0.988281 25.453125 -1.660156 24.984375 -2.484375 L 20.234375 -13.078125 L 18.765625 -13.078125 L 19.078125 -3.1875 C 19.179688 -2.3125 18.921875 -1.570312 18.296875 -0.96875 C 17.671875 -0.375 17.019531 -0.078125 16.34375 -0.078125 L 2.796875 0 C 2.078125 0 1.457031 -0.296875 0.9375 -0.890625 C 0.414062 -1.492188 0.15625 -2.207031 0.15625 -3.03125 L 0 -51.6875 C 0 -52.414062 0.269531 -53.101562 0.8125 -53.75 C 1.363281 -54.394531 1.972656 -54.71875 2.640625 -54.71875 L 13.703125 -54.71875 C 17.796875 -54.769531 21.554688 -54.726562 24.984375 -54.59375 C 28.410156 -54.46875 31.429688 -54.03125 34.046875 -53.28125 C 36.671875 -52.53125 38.851562 -51.242188 40.59375 -49.421875 C 42.332031 -47.609375 43.566406 -45.015625 44.296875 -41.640625 C 44.554688 -40.347656 44.773438 -38.78125 44.953125 -36.9375 C 45.140625 -35.09375 45.179688 -33.171875 45.078125 -31.171875 C 44.972656 -29.171875 44.6875 -27.265625 44.21875 -25.453125 C 43.75 -23.640625 43.019531 -22.132812 42.03125 -20.9375 C 40.738281 -19.332031 39.179688 -18.007812 37.359375 -16.96875 C 38.191406 -15.3125 39.125 -13.390625 40.15625 -11.203125 C 41.195312 -9.023438 42.445312 -6.484375 43.90625 -3.578125 C 44.53125 -2.335938 44.644531 -1.351562 44.25 -0.625 C 43.863281 0.101562 42.914062 0.441406 41.40625 0.390625 Z M 18.0625 -36.890625 L 18.296875 -28.796875 L 22.1875 -28.796875 C 24 -28.796875 25.398438 -29.238281 26.390625 -30.125 C 27.378906 -31.007812 27.898438 -32.035156 27.953125 -33.203125 C 28.003906 -34.367188 27.484375 -35.394531 26.390625 -36.28125 C 25.867188 -36.6875 24.84375 -36.875 23.3125 -36.84375 C 21.78125 -36.820312 20.03125 -36.835938 18.0625 -36.890625 Z M 18.0625 -36.890625 "/></g></g></g><g fill="#ff5991" fill-opacity="1"><g transform="translate(672.997876, 65.640246)"><g><path d="M 2.71875 0.234375 C 1.738281 0.234375 0.988281 -0.179688 0.46875 -1.015625 C 0.101562 -1.640625 -0.0390625 -2.128906 0.03125 -2.484375 C 0.113281 -2.847656 0.234375 -3.5 0.390625 -4.4375 L 11.90625 -52.390625 C 12.113281 -53.171875 12.4375 -53.867188 12.875 -54.484375 C 13.320312 -55.109375 13.910156 -55.421875 14.640625 -55.421875 L 34.171875 -55.421875 C 34.898438 -55.421875 35.484375 -55.109375 35.921875 -54.484375 C 36.367188 -53.867188 36.691406 -53.171875 36.890625 -52.390625 L 48.421875 -4.4375 C 48.578125 -3.5 48.707031 -2.847656 48.8125 -2.484375 C 48.914062 -2.128906 48.757812 -1.640625 48.34375 -1.015625 C 47.820312 -0.179688 47.066406 0.234375 46.078125 0.234375 C 42.242188 0.234375 39.257812 0.242188 37.125 0.265625 C 35 0.296875 33.46875 0.21875 32.53125 0.03125 C 31.601562 -0.144531 30.984375 -0.554688 30.671875 -1.203125 C 30.359375 -1.847656 30.070312 -2.875 29.8125 -4.28125 L 29.34375 -6.6875 L 19.453125 -6.6875 L 19 -4.28125 C 18.738281 -2.875 18.453125 -1.847656 18.140625 -1.203125 C 17.828125 -0.554688 17.203125 -0.144531 16.265625 0.03125 C 15.335938 0.21875 13.804688 0.296875 11.671875 0.265625 C 9.546875 0.242188 6.5625 0.234375 2.71875 0.234375 Z M 22.109375 -21.71875 L 26.703125 -21.71875 L 24.4375 -34.640625 Z M 22.109375 -21.71875 "/></g></g></g><g fill="#ff5991" fill-opacity="1"><g transform="translate(724.914558, 65.640246)"><g><path d="M 41.40625 0.390625 C 39.90625 0.335938 38.101562 0.3125 36 0.3125 C 33.894531 0.3125 31.390625 0.3125 28.484375 0.3125 C 27.660156 0.3125 26.988281 0.0507812 26.46875 -0.46875 C 25.945312 -0.988281 25.453125 -1.660156 24.984375 -2.484375 L 20.234375 -13.078125 L 18.765625 -13.078125 L 19.078125 -3.1875 C 19.179688 -2.3125 18.921875 -1.570312 18.296875 -0.96875 C 17.671875 -0.375 17.019531 -0.078125 16.34375 -0.078125 L 2.796875 0 C 2.078125 0 1.457031 -0.296875 0.9375 -0.890625 C 0.414062 -1.492188 0.15625 -2.207031 0.15625 -3.03125 L 0 -51.6875 C 0 -52.414062 0.269531 -53.101562 0.8125 -53.75 C 1.363281 -54.394531 1.972656 -54.71875 2.640625 -54.71875 L 13.703125 -54.71875 C 17.796875 -54.769531 21.554688 -54.726562 24.984375 -54.59375 C 28.410156 -54.46875 31.429688 -54.03125 34.046875 -53.28125 C 36.671875 -52.53125 38.851562 -51.242188 40.59375 -49.421875 C 42.332031 -47.609375 43.566406 -45.015625 44.296875 -41.640625 C 44.554688 -40.347656 44.773438 -38.78125 44.953125 -36.9375 C 45.140625 -35.09375 45.179688 -33.171875 45.078125 -31.171875 C 44.972656 -29.171875 44.6875 -27.265625 44.21875 -25.453125 C 43.75 -23.640625 43.019531 -22.132812 42.03125 -20.9375 C 40.738281 -19.332031 39.179688 -18.007812 37.359375 -16.96875 C 38.191406 -15.3125 39.125 -13.390625 40.15625 -11.203125 C 41.195312 -9.023438 42.445312 -6.484375 43.90625 -3.578125 C 44.53125 -2.335938 44.644531 -1.351562 44.25 -0.625 C 43.863281 0.101562 42.914062 0.441406 41.40625 0.390625 Z M 18.0625 -36.890625 L 18.296875 -28.796875 L 22.1875 -28.796875 C 24 -28.796875 25.398438 -29.238281 26.390625 -30.125 C 27.378906 -31.007812 27.898438 -32.035156 27.953125 -33.203125 C 28.003906 -34.367188 27.484375 -35.394531 26.390625 -36.28125 C 25.867188 -36.6875 24.84375 -36.875 23.3125 -36.84375 C 21.78125 -36.820312 20.03125 -36.835938 18.0625 -36.890625 Z M 18.0625 -36.890625 "/></g></g></g><g fill="#ffffff" fill-opacity="1"><g transform="translate(1.257374, 62.199856)"><g><path d="M 15.40625 -0.078125 C 11.625 -1.328125 8.640625 -2.894531 6.453125 -4.78125 C 4.273438 -6.675781 2.691406 -9.234375 1.703125 -12.453125 C 0.722656 -15.671875 0.15625 -19.820312 0 -24.90625 C 0.15625 -29.988281 0.738281 -34.539062 1.75 -38.5625 C 2.757812 -42.59375 4.351562 -45.992188 6.53125 -48.765625 C 8.71875 -51.546875 11.675781 -53.554688 15.40625 -54.796875 C 17.332031 -55.421875 19.515625 -55.769531 21.953125 -55.84375 C 24.390625 -55.925781 26.800781 -55.691406 29.1875 -55.140625 C 31.570312 -54.597656 33.648438 -53.734375 35.421875 -52.546875 C 38.015625 -50.773438 40.023438 -48.566406 41.453125 -45.921875 C 42.878906 -43.273438 43.890625 -40.253906 44.484375 -36.859375 C 45.085938 -33.460938 45.460938 -29.6875 45.609375 -25.53125 C 45.609375 -20.8125 44.878906 -16.441406 43.421875 -12.421875 C 41.972656 -8.398438 39.304688 -5.0625 35.421875 -2.40625 C 33.648438 -1.21875 31.570312 -0.351562 29.1875 0.1875 C 26.800781 0.738281 24.390625 0.972656 21.953125 0.890625 C 19.515625 0.816406 17.332031 0.492188 15.40625 -0.078125 Z M 17.90625 -26.703125 C 17.957031 -23.484375 18.460938 -21.039062 19.421875 -19.375 C 20.378906 -17.71875 21.492188 -16.847656 22.765625 -16.765625 C 24.035156 -16.691406 25.175781 -17.429688 26.1875 -18.984375 C 27.207031 -20.546875 27.769531 -22.910156 27.875 -26.078125 C 27.875 -30.179688 27.363281 -33.320312 26.34375 -35.5 C 25.332031 -37.675781 24.164062 -38.828125 22.84375 -38.953125 C 21.519531 -39.085938 20.363281 -38.140625 19.375 -36.109375 C 18.394531 -34.085938 17.90625 -30.953125 17.90625 -26.703125 Z M 17.90625 -26.703125 "/></g></g></g><g fill="#ffffff" fill-opacity="1"><g transform="translate(49.982731, 62.199856)"><g><path d="M 2.71875 0.46875 C 2.050781 0.46875 1.429688 0.128906 0.859375 -0.546875 C 0.285156 -1.222656 0 -1.894531 0 -2.5625 L 0.15625 -51.609375 C 0.15625 -52.597656 0.441406 -53.347656 1.015625 -53.859375 C 1.585938 -54.378906 2.207031 -54.640625 2.875 -54.640625 L 16.8125 -54.5625 C 18.0625 -54.5625 18.941406 -53.941406 19.453125 -52.703125 L 27.640625 -33.234375 L 27.71875 -51.765625 C 27.71875 -52.703125 28 -53.425781 28.5625 -53.9375 C 29.132812 -54.457031 29.757812 -54.71875 30.4375 -54.71875 L 44.375 -54.640625 C 45.195312 -54.640625 45.894531 -54.34375 46.46875 -53.75 C 47.039062 -53.15625 47.273438 -52.441406 47.171875 -51.609375 L 46.546875 -2.484375 C 46.546875 -1.710938 46.273438 -1.023438 45.734375 -0.421875 C 45.191406 0.171875 44.53125 0.46875 43.75 0.46875 L 30.515625 0.46875 C 29.835938 0.46875 29.289062 0.207031 28.875 -0.3125 C 28.457031 -0.832031 28.148438 -1.300781 27.953125 -1.71875 L 19.078125 -20.078125 L 18.765625 -2.5625 C 18.765625 -1.632812 18.476562 -0.894531 17.90625 -0.34375 C 17.332031 0.195312 16.679688 0.46875 15.953125 0.46875 Z M 2.71875 0.46875 "/></g></g></g><g fill="#ffffff" fill-opacity="1"><g transform="translate(100.264803, 62.199856)"><g><path d="M 2.953125 0.546875 C 2.179688 0.546875 1.507812 0.234375 0.9375 -0.390625 C 0.3125 -1.015625 0 -1.738281 0 -2.5625 L 0.15625 -52.078125 C 0.15625 -52.910156 0.441406 -53.660156 1.015625 -54.328125 C 1.585938 -54.953125 2.285156 -55.265625 3.109375 -55.265625 L 15.03125 -55.1875 C 17.832031 -55.1875 20.710938 -55.066406 23.671875 -54.828125 C 26.628906 -54.597656 29.457031 -54.082031 32.15625 -53.28125 C 34.851562 -52.476562 37.273438 -51.21875 39.421875 -49.5 C 41.578125 -47.789062 43.226562 -45.457031 44.375 -42.5 C 45.195312 -40.375 45.789062 -37.859375 46.15625 -34.953125 C 46.519531 -32.046875 46.675781 -29.113281 46.625 -26.15625 C 46.570312 -23.195312 46.335938 -20.578125 45.921875 -18.296875 C 45.253906 -14.296875 43.867188 -11.035156 41.765625 -8.515625 C 39.660156 -6.003906 37.101562 -4.085938 34.09375 -2.765625 C 31.082031 -1.441406 27.835938 -0.546875 24.359375 -0.078125 C 20.890625 0.390625 17.441406 0.597656 14.015625 0.546875 Z M 17.359375 -18.84375 C 18.804688 -18.789062 20.191406 -18.914062 21.515625 -19.21875 C 22.847656 -19.53125 24.046875 -20.179688 25.109375 -21.171875 C 26.171875 -22.160156 27.015625 -23.640625 27.640625 -25.609375 C 28.046875 -28.566406 28.039062 -30.769531 27.625 -32.21875 C 27.21875 -33.675781 26.546875 -34.675781 25.609375 -35.21875 C 24.671875 -35.769531 23.582031 -36.148438 22.34375 -36.359375 C 21.507812 -36.515625 20.703125 -36.601562 19.921875 -36.625 C 19.148438 -36.65625 18.398438 -36.617188 17.671875 -36.515625 Z M 17.359375 -18.84375 "/></g></g></g><g fill="#ffffff" fill-opacity="1"><g transform="translate(150.002016, 62.199856)"><g><path d="M 2.796875 0 C 2.128906 0 1.507812 -0.285156 0.9375 -0.859375 C 0.414062 -1.378906 0.15625 -2.101562 0.15625 -3.03125 L 0 -52.3125 C 0 -53.039062 0.285156 -53.738281 0.859375 -54.40625 C 1.429688 -55.03125 2.023438 -55.34375 2.640625 -55.34375 L 32.765625 -55.265625 C 33.648438 -55.265625 34.378906 -55.003906 34.953125 -54.484375 C 35.523438 -53.921875 35.8125 -53.273438 35.8125 -52.546875 L 35.8125 -40.953125 C 35.8125 -40.328125 35.5 -39.726562 34.875 -39.15625 C 34.300781 -38.6875 33.597656 -38.398438 32.765625 -38.296875 L 18.0625 -37.59375 L 18.21875 -33.703125 L 26.625 -33.625 C 27.300781 -33.625 27.894531 -33.441406 28.40625 -33.078125 C 28.925781 -32.710938 29.160156 -32.222656 29.109375 -31.609375 L 28.71875 -23.28125 C 28.71875 -22.757812 28.460938 -22.316406 27.953125 -21.953125 C 27.484375 -21.640625 26.910156 -21.429688 26.234375 -21.328125 L 18.53125 -20.9375 L 18.6875 -17.828125 L 32.765625 -17.203125 C 33.597656 -17.097656 34.300781 -16.8125 34.875 -16.34375 C 35.5 -15.820312 35.8125 -15.226562 35.8125 -14.5625 L 35.8125 -2.953125 C 35.8125 -2.234375 35.523438 -1.585938 34.953125 -1.015625 C 34.378906 -0.492188 33.648438 -0.234375 32.765625 -0.234375 L 11.984375 0 C 11.878906 0 11.75 0 11.59375 0 C 11.4375 0 11.304688 -0.0234375 11.203125 -0.078125 Z M 2.796875 0 "/></g></g></g><g fill="#ffffff" fill-opacity="1"><g transform="translate(188.920033, 62.199856)"><g/></g></g><g fill="#ffffff" fill-opacity="1"><g transform="translate(215.384277, 62.199856)"><g><path d="M 2.71875 0 C 2.050781 0 1.429688 -0.347656 0.859375 -1.046875 C 0.285156 -1.753906 0 -2.441406 0 -3.109375 L 0.15625 -52.78125 C 0.15625 -53.8125 0.441406 -54.585938 1.015625 -55.109375 C 1.585938 -55.628906 2.207031 -55.890625 2.875 -55.890625 L 16.8125 -55.8125 C 18.0625 -55.8125 18.941406 -55.191406 19.453125 -53.953125 L 28.875 -31.21875 L 38.21875 -53.953125 C 38.738281 -55.191406 39.625 -55.8125 40.875 -55.8125 L 54.796875 -55.890625 C 55.523438 -55.890625 56.160156 -55.628906 56.703125 -55.109375 C 57.253906 -54.585938 57.53125 -53.8125 57.53125 -52.78125 L 57.6875 -3.109375 C 57.6875 -2.441406 57.410156 -1.753906 56.859375 -1.046875 C 56.316406 -0.347656 55.679688 0 54.953125 0 L 41.71875 0 C 41.050781 0 40.414062 -0.269531 39.8125 -0.8125 C 39.21875 -1.363281 38.921875 -2.128906 38.921875 -3.109375 L 38.609375 -20.859375 L 33.546875 -10.28125 C 33.335938 -9.863281 33.023438 -9.394531 32.609375 -8.875 C 32.203125 -8.351562 31.660156 -8.09375 30.984375 -8.09375 L 26.703125 -8.09375 C 26.023438 -8.09375 25.476562 -8.351562 25.0625 -8.875 C 24.644531 -9.394531 24.332031 -9.863281 24.125 -10.28125 L 19.078125 -20.859375 L 18.765625 -3.109375 C 18.765625 -2.128906 18.476562 -1.363281 17.90625 -0.8125 C 17.332031 -0.269531 16.679688 0 15.953125 0 Z M 2.71875 0 "/></g></g></g><g fill="#ffffff" fill-opacity="1"><g transform="translate(276.174219, 62.199856)"><g><path d="M 2.796875 0 C 2.128906 0 1.507812 -0.285156 0.9375 -0.859375 C 0.414062 -1.378906 0.15625 -2.101562 0.15625 -3.03125 L 0 -52.3125 C 0 -53.039062 0.285156 -53.738281 0.859375 -54.40625 C 1.429688 -55.03125 2.023438 -55.34375 2.640625 -55.34375 L 32.765625 -55.265625 C 33.648438 -55.265625 34.378906 -55.003906 34.953125 -54.484375 C 35.523438 -53.921875 35.8125 -53.273438 35.8125 -52.546875 L 35.8125 -40.953125 C 35.8125 -40.328125 35.5 -39.726562 34.875 -39.15625 C 34.300781 -38.6875 33.597656 -38.398438 32.765625 -38.296875 L 18.0625 -37.59375 L 18.21875 -33.703125 L 26.625 -33.625 C 27.300781 -33.625 27.894531 -33.441406 28.40625 -33.078125 C 28.925781 -32.710938 29.160156 -32.222656 29.109375 -31.609375 L 28.71875 -23.28125 C 28.71875 -22.757812 28.460938 -22.316406 27.953125 -21.953125 C 27.484375 -21.640625 26.910156 -21.429688 26.234375 -21.328125 L 18.53125 -20.9375 L 18.6875 -17.828125 L 32.765625 -17.203125 C 33.597656 -17.097656 34.300781 -16.8125 34.875 -16.34375 C 35.5 -15.820312 35.8125 -15.226562 35.8125 -14.5625 L 35.8125 -2.953125 C 35.8125 -2.234375 35.523438 -1.585938 34.953125 -1.015625 C 34.378906 -0.492188 33.648438 -0.234375 32.765625 -0.234375 L 11.984375 0 C 11.878906 0 11.75 0 11.59375 0 C 11.4375 0 11.304688 -0.0234375 11.203125 -0.078125 Z M 2.796875 0 "/></g></g></g><g fill="#ffffff" fill-opacity="1"><g transform="translate(315.092254, 62.199856)"><g/></g></g><g fill="#ffffff" fill-opacity="1"><g transform="translate(341.55648, 62.199856)"><g><path d="M 2.796875 0 C 2.128906 0 1.507812 -0.285156 0.9375 -0.859375 C 0.414062 -1.378906 0.15625 -2.101562 0.15625 -3.03125 L 0 -52.3125 C 0 -53.039062 0.285156 -53.738281 0.859375 -54.40625 C 1.429688 -55.03125 2.023438 -55.34375 2.640625 -55.34375 L 32.765625 -55.265625 C 33.648438 -55.265625 34.378906 -55.003906 34.953125 -54.484375 C 35.523438 -53.921875 35.8125 -53.273438 35.8125 -52.546875 L 35.8125 -40.953125 C 35.8125 -40.328125 35.5 -39.726562 34.875 -39.15625 C 34.300781 -38.6875 33.597656 -38.398438 32.765625 -38.296875 L 18.0625 -37.59375 L 18.21875 -33.703125 L 26.625 -33.625 C 27.300781 -33.625 27.894531 -33.441406 28.40625 -33.078125 C 28.925781 -32.710938 29.160156 -32.222656 29.109375 -31.609375 L 28.71875 -23.28125 C 28.71875 -22.757812 28.460938 -22.316406 27.953125 -21.953125 C 27.484375 -21.640625 26.910156 -21.429688 26.234375 -21.328125 L 18.53125 -20.9375 L 18.6875 -17.828125 L 32.765625 -17.203125 C 33.597656 -17.097656 34.300781 -16.8125 34.875 -16.34375 C 35.5 -15.820312 35.8125 -15.226562 35.8125 -14.5625 L 35.8125 -2.953125 C 35.8125 -2.234375 35.523438 -1.585938 34.953125 -1.015625 C 34.378906 -0.492188 33.648438 -0.234375 32.765625 -0.234375 L 11.984375 0 C 11.878906 0 11.75 0 11.59375 0 C 11.4375 0 11.304688 -0.0234375 11.203125 -0.078125 Z M 2.796875 0 "/></g></g></g><g fill="#ffffff" fill-opacity="1"><g transform="translate(380.474497, 62.199856)"><g><path d="M 2.71875 0.46875 C 2.050781 0.46875 1.429688 0.128906 0.859375 -0.546875 C 0.285156 -1.222656 0 -1.894531 0 -2.5625 L 0.15625 -51.609375 C 0.15625 -52.597656 0.441406 -53.347656 1.015625 -53.859375 C 1.585938 -54.378906 2.207031 -54.640625 2.875 -54.640625 L 16.8125 -54.5625 C 18.0625 -54.5625 18.941406 -53.941406 19.453125 -52.703125 L 27.640625 -33.234375 L 27.71875 -51.765625 C 27.71875 -52.703125 28 -53.425781 28.5625 -53.9375 C 29.132812 -54.457031 29.757812 -54.71875 30.4375 -54.71875 L 44.375 -54.640625 C 45.195312 -54.640625 45.894531 -54.34375 46.46875 -53.75 C 47.039062 -53.15625 47.273438 -52.441406 47.171875 -51.609375 L 46.546875 -2.484375 C 46.546875 -1.710938 46.273438 -1.023438 45.734375 -0.421875 C 45.191406 0.171875 44.53125 0.46875 43.75 0.46875 L 30.515625 0.46875 C 29.835938 0.46875 29.289062 0.207031 28.875 -0.3125 C 28.457031 -0.832031 28.148438 -1.300781 27.953125 -1.71875 L 19.078125 -20.078125 L 18.765625 -2.5625 C 18.765625 -1.632812 18.476562 -0.894531 17.90625 -0.34375 C 17.332031 0.195312 16.679688 0.46875 15.953125 0.46875 Z M 2.71875 0.46875 "/></g></g></g><g fill="#ffffff" fill-opacity="1"><g transform="translate(430.756586, 62.199856)"><g><path d="M 31.84375 0.46875 C 28.675781 1.300781 25.429688 1.5625 22.109375 1.25 C 18.785156 0.9375 15.671875 0.0390625 12.765625 -1.4375 C 9.859375 -2.914062 7.445312 -4.925781 5.53125 -7.46875 C 3.863281 -9.75 2.578125 -12.378906 1.671875 -15.359375 C 0.765625 -18.347656 0.234375 -21.503906 0.078125 -24.828125 C -0.078125 -28.148438 0.078125 -31.421875 0.546875 -34.640625 C 1.429688 -40.035156 3.273438 -44.601562 6.078125 -48.34375 C 8.878906 -52.082031 12.378906 -54.675781 16.578125 -56.125 C 20.785156 -57.582031 25.429688 -57.582031 30.515625 -56.125 C 33.890625 -55.238281 36.519531 -53.941406 38.40625 -52.234375 C 40.300781 -50.523438 41.664062 -48.601562 42.5 -46.46875 C 43.332031 -44.34375 43.828125 -42.191406 43.984375 -40.015625 C 44.140625 -37.835938 44.164062 -35.835938 44.0625 -34.015625 C 44.007812 -32.460938 43.070312 -31.554688 41.25 -31.296875 L 30.203125 -30.984375 C 29.367188 -30.878906 28.640625 -31.097656 28.015625 -31.640625 C 27.398438 -32.179688 27.066406 -32.867188 27.015625 -33.703125 C 27.015625 -34.015625 26.972656 -34.570312 26.890625 -35.375 C 26.816406 -36.1875 26.648438 -37.003906 26.390625 -37.828125 C 26.128906 -38.660156 25.710938 -39.234375 25.140625 -39.546875 C 23.484375 -40.273438 22.222656 -40.128906 21.359375 -39.109375 C 20.503906 -38.097656 19.921875 -36.503906 19.609375 -34.328125 C 19.304688 -32.148438 19.15625 -29.660156 19.15625 -26.859375 L 19.15625 -26.46875 C 19.207031 -22.363281 19.828125 -19.351562 21.015625 -17.4375 C 22.210938 -15.519531 24.03125 -15.078125 26.46875 -16.109375 C 27.039062 -16.421875 27.441406 -16.976562 27.671875 -17.78125 C 27.910156 -18.59375 28.066406 -19.410156 28.140625 -20.234375 C 28.210938 -21.066406 28.25 -21.664062 28.25 -22.03125 C 28.300781 -22.8125 28.640625 -23.472656 29.265625 -24.015625 C 29.890625 -24.554688 30.617188 -24.773438 31.453125 -24.671875 L 42.5 -24.359375 C 44.375 -24.097656 45.335938 -23.164062 45.390625 -21.5625 C 45.484375 -19.800781 45.441406 -17.84375 45.265625 -15.6875 C 45.085938 -13.53125 44.582031 -11.390625 43.75 -9.265625 C 42.914062 -7.140625 41.5625 -5.21875 39.6875 -3.5 C 37.820312 -1.789062 35.207031 -0.46875 31.84375 0.46875 Z M 31.84375 0.46875 "/></g></g></g><g fill="#ffffff" fill-opacity="1"><g transform="translate(479.326238, 62.199856)"><g><path d="M 15.40625 -0.078125 C 11.625 -1.328125 8.640625 -2.894531 6.453125 -4.78125 C 4.273438 -6.675781 2.691406 -9.234375 1.703125 -12.453125 C 0.722656 -15.671875 0.15625 -19.820312 0 -24.90625 C 0.15625 -29.988281 0.738281 -34.539062 1.75 -38.5625 C 2.757812 -42.59375 4.351562 -45.992188 6.53125 -48.765625 C 8.71875 -51.546875 11.675781 -53.554688 15.40625 -54.796875 C 17.332031 -55.421875 19.515625 -55.769531 21.953125 -55.84375 C 24.390625 -55.925781 26.800781 -55.691406 29.1875 -55.140625 C 31.570312 -54.597656 33.648438 -53.734375 35.421875 -52.546875 C 38.015625 -50.773438 40.023438 -48.566406 41.453125 -45.921875 C 42.878906 -43.273438 43.890625 -40.253906 44.484375 -36.859375 C 45.085938 -33.460938 45.460938 -29.6875 45.609375 -25.53125 C 45.609375 -20.8125 44.878906 -16.441406 43.421875 -12.421875 C 41.972656 -8.398438 39.304688 -5.0625 35.421875 -2.40625 C 33.648438 -1.21875 31.570312 -0.351562 29.1875 0.1875 C 26.800781 0.738281 24.390625 0.972656 21.953125 0.890625 C 19.515625 0.816406 17.332031 0.492188 15.40625 -0.078125 Z M 17.90625 -26.703125 C 17.957031 -23.484375 18.460938 -21.039062 19.421875 -19.375 C 20.378906 -17.71875 21.492188 -16.847656 22.765625 -16.765625 C 24.035156 -16.691406 25.175781 -17.429688 26.1875 -18.984375 C 27.207031 -20.546875 27.769531 -22.910156 27.875 -26.078125 C 27.875 -30.179688 27.363281 -33.320312 26.34375 -35.5 C 25.332031 -37.675781 24.164062 -38.828125 22.84375 -38.953125 C 21.519531 -39.085938 20.363281 -38.140625 19.375 -36.109375 C 18.394531 -34.085938 17.90625 -30.953125 17.90625 -26.703125 Z M 17.90625 -26.703125 "/></g></g></g><g fill="#ffffff" fill-opacity="1"><g transform="translate(528.051612, 62.199856)"><g><path d="M 2.71875 0.46875 C 2.050781 0.46875 1.429688 0.128906 0.859375 -0.546875 C 0.285156 -1.222656 0 -1.894531 0 -2.5625 L 0.15625 -51.609375 C 0.15625 -52.597656 0.441406 -53.347656 1.015625 -53.859375 C 1.585938 -54.378906 2.207031 -54.640625 2.875 -54.640625 L 16.8125 -54.5625 C 18.0625 -54.5625 18.941406 -53.941406 19.453125 -52.703125 L 27.640625 -33.234375 L 27.71875 -51.765625 C 27.71875 -52.703125 28 -53.425781 28.5625 -53.9375 C 29.132812 -54.457031 29.757812 -54.71875 30.4375 -54.71875 L 44.375 -54.640625 C 45.195312 -54.640625 45.894531 -54.34375 46.46875 -53.75 C 47.039062 -53.15625 47.273438 -52.441406 47.171875 -51.609375 L 46.546875 -2.484375 C 46.546875 -1.710938 46.273438 -1.023438 45.734375 -0.421875 C 45.191406 0.171875 44.53125 0.46875 43.75 0.46875 L 30.515625 0.46875 C 29.835938 0.46875 29.289062 0.207031 28.875 -0.3125 C 28.457031 -0.832031 28.148438 -1.300781 27.953125 -1.71875 L 19.078125 -20.078125 L 18.765625 -2.5625 C 18.765625 -1.632812 18.476562 -0.894531 17.90625 -0.34375 C 17.332031 0.195312 16.679688 0.46875 15.953125 0.46875 Z M 2.71875 0.46875 "/></g></g></g><g fill="#ffffff" fill-opacity="1"><g transform="translate(578.333667, 62.199856)"><g><path d="M 12.453125 0 C 11.617188 0 10.921875 -0.285156 10.359375 -0.859375 C 9.785156 -1.429688 9.5 -2.15625 9.5 -3.03125 L 9.890625 -35.96875 L 3.109375 -35.96875 C 2.285156 -35.914062 1.5625 -36.1875 0.9375 -36.78125 C 0.3125 -37.375 0 -38.113281 0 -39 L 0.15625 -52.15625 C 0.257812 -53.039062 0.582031 -53.765625 1.125 -54.328125 C 1.675781 -54.898438 2.363281 -55.1875 3.1875 -55.1875 L 36.8125 -55.421875 C 37.695312 -55.421875 38.4375 -55.109375 39.03125 -54.484375 C 39.632812 -53.867188 39.910156 -53.117188 39.859375 -52.234375 L 39.46875 -38.921875 C 39.3125 -37.160156 38.351562 -36.203125 36.59375 -36.046875 L 30.28125 -36.046875 L 30.4375 -3.1875 C 30.539062 -2.3125 30.253906 -1.585938 29.578125 -1.015625 C 28.898438 -0.390625 28.175781 -0.078125 27.40625 -0.078125 Z M 12.453125 0 "/></g></g></g><g fill="#ffffff" fill-opacity="1"><g transform="translate(621.299212, 62.199856)"><g><path d="M 41.40625 0.390625 C 39.90625 0.335938 38.101562 0.3125 36 0.3125 C 33.894531 0.3125 31.390625 0.3125 28.484375 0.3125 C 27.660156 0.3125 26.988281 0.0507812 26.46875 -0.46875 C 25.945312 -0.988281 25.453125 -1.660156 24.984375 -2.484375 L 20.234375 -13.078125 L 18.765625 -13.078125 L 19.078125 -3.1875 C 19.179688 -2.3125 18.921875 -1.570312 18.296875 -0.96875 C 17.671875 -0.375 17.019531 -0.078125 16.34375 -0.078125 L 2.796875 0 C 2.078125 0 1.457031 -0.296875 0.9375 -0.890625 C 0.414062 -1.492188 0.15625 -2.207031 0.15625 -3.03125 L 0 -51.6875 C 0 -52.414062 0.269531 -53.101562 0.8125 -53.75 C 1.363281 -54.394531 1.972656 -54.71875 2.640625 -54.71875 L 13.703125 -54.71875 C 17.796875 -54.769531 21.554688 -54.726562 24.984375 -54.59375 C 28.410156 -54.46875 31.429688 -54.03125 34.046875 -53.28125 C 36.671875 -52.53125 38.851562 -51.242188 40.59375 -49.421875 C 42.332031 -47.609375 43.566406 -45.015625 44.296875 -41.640625 C 44.554688 -40.347656 44.773438 -38.78125 44.953125 -36.9375 C 45.140625 -35.09375 45.179688 -33.171875 45.078125 -31.171875 C 44.972656 -29.171875 44.6875 -27.265625 44.21875 -25.453125 C 43.75 -23.640625 43.019531 -22.132812 42.03125 -20.9375 C 40.738281 -19.332031 39.179688 -18.007812 37.359375 -16.96875 C 38.191406 -15.3125 39.125 -13.390625 40.15625 -11.203125 C 41.195312 -9.023438 42.445312 -6.484375 43.90625 -3.578125 C 44.53125 -2.335938 44.644531 -1.351562 44.25 -0.625 C 43.863281 0.101562 42.914062 0.441406 41.40625 0.390625 Z M 18.0625 -36.890625 L 18.296875 -28.796875 L 22.1875 -28.796875 C 24 -28.796875 25.398438 -29.238281 26.390625 -30.125 C 27.378906 -31.007812 27.898438 -32.035156 27.953125 -33.203125 C 28.003906 -34.367188 27.484375 -35.394531 26.390625 -36.28125 C 25.867188 -36.6875 24.84375 -36.875 23.3125 -36.84375 C 21.78125 -36.820312 20.03125 -36.835938 18.0625 -36.890625 Z M 18.0625 -36.890625 "/></g></g></g><g fill="#ffffff" fill-opacity="1"><g transform="translate(669.557486, 62.199856)"><g><path d="M 2.71875 0.234375 C 1.738281 0.234375 0.988281 -0.179688 0.46875 -1.015625 C 0.101562 -1.640625 -0.0390625 -2.128906 0.03125 -2.484375 C 0.113281 -2.847656 0.234375 -3.5 0.390625 -4.4375 L 11.90625 -52.390625 C 12.113281 -53.171875 12.4375 -53.867188 12.875 -54.484375 C 13.320312 -55.109375 13.910156 -55.421875 14.640625 -55.421875 L 34.171875 -55.421875 C 34.898438 -55.421875 35.484375 -55.109375 35.921875 -54.484375 C 36.367188 -53.867188 36.691406 -53.171875 36.890625 -52.390625 L 48.421875 -4.4375 C 48.578125 -3.5 48.707031 -2.847656 48.8125 -2.484375 C 48.914062 -2.128906 48.757812 -1.640625 48.34375 -1.015625 C 47.820312 -0.179688 47.066406 0.234375 46.078125 0.234375 C 42.242188 0.234375 39.257812 0.242188 37.125 0.265625 C 35 0.296875 33.46875 0.21875 32.53125 0.03125 C 31.601562 -0.144531 30.984375 -0.554688 30.671875 -1.203125 C 30.359375 -1.847656 30.070312 -2.875 29.8125 -4.28125 L 29.34375 -6.6875 L 19.453125 -6.6875 L 19 -4.28125 C 18.738281 -2.875 18.453125 -1.847656 18.140625 -1.203125 C 17.828125 -0.554688 17.203125 -0.144531 16.265625 0.03125 C 15.335938 0.21875 13.804688 0.296875 11.671875 0.265625 C 9.546875 0.242188 6.5625 0.234375 2.71875 0.234375 Z M 22.109375 -21.71875 L 26.703125 -21.71875 L 24.4375 -34.640625 Z M 22.109375 -21.71875 "/></g></g></g><g fill="#ffffff" fill-opacity="1"><g transform="translate(721.474168, 62.199856)"><g><path d="M 41.40625 0.390625 C 39.90625 0.335938 38.101562 0.3125 36 0.3125 C 33.894531 0.3125 31.390625 0.3125 28.484375 0.3125 C 27.660156 0.3125 26.988281 0.0507812 26.46875 -0.46875 C 25.945312 -0.988281 25.453125 -1.660156 24.984375 -2.484375 L 20.234375 -13.078125 L 18.765625 -13.078125 L 19.078125 -3.1875 C 19.179688 -2.3125 18.921875 -1.570312 18.296875 -0.96875 C 17.671875 -0.375 17.019531 -0.078125 16.34375 -0.078125 L 2.796875 0 C 2.078125 0 1.457031 -0.296875 0.9375 -0.890625 C 0.414062 -1.492188 0.15625 -2.207031 0.15625 -3.03125 L 0 -51.6875 C 0 -52.414062 0.269531 -53.101562 0.8125 -53.75 C 1.363281 -54.394531 1.972656 -54.71875 2.640625 -54.71875 L 13.703125 -54.71875 C 17.796875 -54.769531 21.554688 -54.726562 24.984375 -54.59375 C 28.410156 -54.46875 31.429688 -54.03125 34.046875 -53.28125 C 36.671875 -52.53125 38.851562 -51.242188 40.59375 -49.421875 C 42.332031 -47.609375 43.566406 -45.015625 44.296875 -41.640625 C 44.554688 -40.347656 44.773438 -38.78125 44.953125 -36.9375 C 45.140625 -35.09375 45.179688 -33.171875 45.078125 -31.171875 C 44.972656 -29.171875 44.6875 -27.265625 44.21875 -25.453125 C 43.75 -23.640625 43.019531 -22.132812 42.03125 -20.9375 C 40.738281 -19.332031 39.179688 -18.007812 37.359375 -16.96875 C 38.191406 -15.3125 39.125 -13.390625 40.15625 -11.203125 C 41.195312 -9.023438 42.445312 -6.484375 43.90625 -3.578125 C 44.53125 -2.335938 44.644531 -1.351562 44.25 -0.625 C 43.863281 0.101562 42.914062 0.441406 41.40625 0.390625 Z M 18.0625 -36.890625 L 18.296875 -28.796875 L 22.1875 -28.796875 C 24 -28.796875 25.398438 -29.238281 26.390625 -30.125 C 27.378906 -31.007812 27.898438 -32.035156 27.953125 -33.203125 C 28.003906 -34.367188 27.484375 -35.394531 26.390625 -36.28125 C 25.867188 -36.6875 24.84375 -36.875 23.3125 -36.84375 C 21.78125 -36.820312 20.03125 -36.835938 18.0625 -36.890625 Z M 18.0625 -36.890625 "/></g></g></g></g></g></svg>